<svg xmlns="http://www.w3.org/2000/svg" width="65" height="175.5" fill="#FFF" viewBox="67.5 22.5 65 175.5"><path d="M86 145.8l-18.5-11.4v15.3c0 7.4 3.8 14.3 10.2 18.2l13 8v22h5.5V164c0-7.4-3.9-14.3-10.2-18.2zm4.7 21.6M103.8 164v34h5.5v-22l13-8c6.3-3.9 10.2-10.8 10.2-18.2v-15.3L114 145.8c-6.3 3.9-10.2 10.8-10.2 18.2zM86 115.4L67.5 104v15.3c0 7.4 3.8 14.3 10.2 18.2L96.2 149v-15.3c0-7.5-3.9-14.4-10.2-18.3zM103.8 133.7V149l18.5-11.4c6.3-3.9 10.2-10.8 10.2-18.2v-15.3L114 115.4c-6.3 3.9-10.2 10.8-10.2 18.3zM86 85.4L67.6 74v15.3c0 7.4 3.8 14.3 10.2 18.2l18.5 11.4v-15.3c-.1-7.4-4-14.3-10.3-18.2zM114 85.4c-6.3 3.9-10.2 10.8-10.2 18.2v15.3l18.5-11.4c6.3-3.9 10.2-10.8 10.2-18.2V74L114 85.4zM76 33.1h5.5v43.3H76zM118.5 33.1h5.5v43.3h-5.5zM90.7 22.5h5.5v61.7h-5.5zM103.8 22.5h5.5v61.7h-5.5z"/></svg>