<svg width="48" height="48" xmlns="http://www.w3.org/2000/svg" viewBox="0 0 100 100" preserveAspectRatio="xMidYMid" class="uil-default"><path fill="none" class="bk" d="M0 0h100v100H0z"/><rect x="46.5" y="40" width="7" height="20" rx="5" ry="5" fill="#fff" transform="translate(0 -30)"><animate attributeName="opacity" from="1" to="0" dur="1s" begin="0s" repeatCount="indefinite"/></rect><rect x="46.5" y="40" width="7" height="20" rx="5" ry="5" fill="#fff" transform="rotate(36 96.165 65)"><animate attributeName="opacity" from="1" to="0" dur="1s" begin="0.1s" repeatCount="indefinite"/></rect><rect x="46.5" y="40" width="7" height="20" rx="5" ry="5" fill="#fff" transform="rotate(72 70.646 65)"><animate attributeName="opacity" from="1" to="0" dur="1s" begin="0.2s" repeatCount="indefinite"/></rect><rect x="46.5" y="40" width="7" height="20" rx="5" ry="5" fill="#fff" transform="rotate(108 60.898 65)"><animate attributeName="opacity" from="1" to="0" dur="1s" begin="0.3s" repeatCount="indefinite"/></rect><rect x="46.5" y="40" width="7" height="20" rx="5" ry="5" fill="#fff" transform="rotate(144 54.874 65)"><animate attributeName="opacity" from="1" to="0" dur="1s" begin="0.4s" repeatCount="indefinite"/></rect><rect x="46.5" y="40" width="7" height="20" rx="5" ry="5" fill="#fff" transform="rotate(180 50 65)"><animate attributeName="opacity" from="1" to="0" dur="1s" begin="0.5s" repeatCount="indefinite"/></rect><rect x="46.5" y="40" width="7" height="20" rx="5" ry="5" fill="#fff" transform="rotate(-144 45.126 65)"><animate attributeName="opacity" from="1" to="0" dur="1s" begin="0.6s" repeatCount="indefinite"/></rect><rect x="46.5" y="40" width="7" height="20" rx="5" ry="5" fill="#fff" transform="rotate(-108 39.102 65)"><animate attributeName="opacity" from="1" to="0" dur="1s" begin="0.7s" repeatCount="indefinite"/></rect><rect x="46.5" y="40" width="7" height="20" rx="5" ry="5" fill="#fff" transform="rotate(-72 29.354 65)"><animate attributeName="opacity" from="1" to="0" dur="1s" begin="0.8s" repeatCount="indefinite"/></rect><rect x="46.5" y="40" width="7" height="20" rx="5" ry="5" fill="#fff" transform="rotate(-36 3.835 65)"><animate attributeName="opacity" from="1" to="0" dur="1s" begin="0.9s" repeatCount="indefinite"/></rect></svg>