<?xml version="1.0" standalone="no"?>
<!DOCTYPE svg PUBLIC "-//W3C//DTD SVG 1.1//EN" "http://www.w3.org/Graphics/SVG/1.1/DTD/svg11.dtd" >
<svg xmlns="http://www.w3.org/2000/svg" xmlns:xlink="http://www.w3.org/1999/xlink" version="1.1">
<metadata></metadata>
<defs>
<font id="marker_feltwideregular" horiz-adv-x="1044" >
<font-face units-per-em="2048" ascent="1638" descent="-410" />
<missing-glyph horiz-adv-x="512" />
<glyph horiz-adv-x="0" />
<glyph horiz-adv-x="682" />
<glyph unicode=" "  horiz-adv-x="512" />
<glyph unicode="&#x09;" horiz-adv-x="512" />
<glyph unicode="&#xa0;" horiz-adv-x="512" />
<glyph unicode="!" horiz-adv-x="454" d="M35.5 696.5q-1.5 18.5 2 29.5t11.5 36q1 3 13 30t12 44v774q0 24 18 44.5t43 28.5q44 14 139.5 -12.5t118.5 -60.5q5 -9 6 -24t-0.5 -43.5t-1.5 -43.5v-835q0 -13 5 -36t4 -38q-2 -31 -12 -55.5t-27 -28.5q-52 -12 -152.5 37t-165.5 121q-12 14 -13.5 32.5zM42 32.5v7 t1.5 7.5t2 7t3 7.5t3 7.5t3.5 8t4 7q5 11 9 30t5 32l1 14q1 3 -0.5 31t-2.5 62.5t3 78.5q3 28 20.5 50t40.5 21q57 -3 160.5 -45t110.5 -65q4 -27 2 -58t-6.5 -88.5t-4.5 -85.5q0 -12 1.5 -28t1.5 -29t-3 -27q-7 -37 -22.5 -65.5t-36.5 -32.5q-25 -6 -144.5 43t-144.5 88 q-2 4 -3.5 8t-2.5 7t-1 7.5z" />
<glyph unicode="&#x22;" horiz-adv-x="921" d="M60.5 1310.5q-1.5 18.5 2 29.5t11.5 36q3 8 9.5 22.5t10.5 26.5t4 25v160q0 24 18 44.5t44 28.5q43 14 126.5 -12t106.5 -61q5 -9 6 -24t-0.5 -43.5t-1.5 -43.5v-221q0 -13 5 -36t4 -38q-2 -31 -12 -55.5t-27 -28.5q-51 -12 -138.5 36t-154.5 122q-12 14 -13.5 32.5z M502.5 1310.5q-1.5 18.5 2 29.5t11.5 36q1 3 13 30t12 44v160q0 24 18 44.5t43 28.5q43 14 127 -12t107 -61q5 -9 6 -24t-0.5 -43.5t-1.5 -43.5v-221q0 -13 4.5 -36t3.5 -38q-2 -31 -12 -55.5t-27 -28.5q-51 -12 -138.5 36t-154.5 122q-12 14 -13.5 32.5z" />
<glyph unicode="#" horiz-adv-x="1536" d="M74 1155q4 27 20 37.5t49 17.5q32 6 303 9v59q2 29 -7.5 74t-10.5 55q-2 30 7 59t34 37q41 10 139 -17t129 -65q11 -18 11 -198h98q3 242 16 260q20 28 72.5 25t109 -20.5t105.5 -43.5q10 -4 14.5 -13t4.5 -17t-1.5 -23t-1.5 -23q0 -14 -11 -34.5t-11 -37.5v-71l112 2 q18 0 39 11t35 11q7 0 18 1.5t18.5 2t15.5 0t14 -5t10 -12.5q26 -50 43.5 -106t20.5 -109.5t-25 -73.5q-17 -12 -303 -12q-2 -35 -2 -100q227 0 243 -13q38 -30 65 -128t17 -138q-15 -48 -98 -43q-9 1 -53 11.5t-74 8.5h-102q-7 -326 -13 -350q-5 -32 -16 -48.5t-39 -20.5 q-39 -6 -131 41.5t-109 72.5q-8 12 -12 49q-2 20 12.5 49t14.5 48q3 24 6 159h-117q-6 -144 -6 -167q-1 -20 2.5 -68t-0.5 -55q-7 -29 -35 -52t-63 -20q-13 0 -28.5 9t-40.5 30t-34 27q-12 8 -48 25.5t-52 34t-18 44.5q-2 22 16 50.5t20 47.5v94h-47q-20 -2 -48 -21t-50 -17 q-28 3 -44.5 19t-34.5 52t-27 49q-5 7 -16.5 21t-18 22.5t-14.5 20t-11.5 21.5t-3.5 18q-3 34 20 62.5t52 33.5q7 4 54 0.5t69 -2.5q1 0 16 0.5t44.5 1.5t59.5 2v119q-91 0 -112 -6q-19 0 -47.5 -14.5t-48.5 -12.5q-35 4 -50 14q-25 17 -72.5 109t-41.5 131zM741 825 q74 4 107 4v105h-103q-1 -18 -2 -54.5t-2 -54.5z" />
<glyph unicode="$" horiz-adv-x="528" d="M14 1143q0 72 49 138.5t118.5 105t133.5 38.5q31 0 69.5 -40.5t62.5 -87.5t20 -68q-14 -66 -96 -51q-17 3 -39.5 24t-40.5 21q-31 0 -60.5 -47.5t-15.5 -67.5q15 -19 51.5 -36t74 -31.5t74 -36.5t60 -61.5t23.5 -94.5q0 -53 -17.5 -110t-58.5 -101.5t-96 -44.5 q-99 0 -181.5 60.5t-105.5 125.5q-6 17 19.5 29t59.5 12.5t62 -8.5q16 -6 32.5 -36.5t37.5 -33.5q19 -3 37.5 38t25.5 85q3 16 -27 36.5t-74.5 43t-89 49.5t-76.5 66.5t-32 83.5zM133 1569q2 34 14 53q22 34 43.5 44.5t57.5 10.5q52 0 71 -30q14 -23 25 -71t0 -77 q-27 -45 -59 -45q-36 0 -83.5 22t-58.5 40q-12 19 -10 53zM174 412q1 50 10 67q17 30 45 48t56 18q54 0 84 -66q14 -31 15.5 -99.5t-7.5 -84.5q-13 -30 -49 -33q-35 -3 -80 26t-66 60q-9 14 -8 64z" />
<glyph unicode="%" horiz-adv-x="1290" d="M27 1264q-12 48 8.5 109t62.5 117.5t102 101.5t122.5 66t127.5 4.5t113 -75.5q43 -52 58 -114.5t3.5 -120.5t-43 -113t-76 -96t-101.5 -65.5t-115 -24.5q-204 0 -262 211zM32.5 178q-0.5 9 3 19t6.5 16t10 18t9 15q77 141 283.5 456.5t374.5 561.5l168 245q10 21 18 44.5 t14.5 35t22.5 23.5q46 34 90 22q77 -22 164 -94.5t78 -99.5q-2 -8 -19 -24.5t-44 -46.5t-48 -62q-116 -139 -303 -431.5t-316 -515.5l-130 -223q-9 -15 -12.5 -47.5t-8.5 -48.5q-11 -37 -35.5 -68t-42.5 -24q-78 31 -171.5 106t-106.5 105q-4 9 -4.5 18zM228 1305 q-15 -52 5 -76q32 -34 94 22t99.5 137.5t9.5 110.5q-17 17 -66 -20t-96 -88q-31 -34 -46 -86zM653 258q0 55 49 133t127 139.5t174.5 77.5t190.5 -51q51 -38 71.5 -100.5t13 -130.5t-38.5 -139t-76.5 -126.5t-107 -91t-124.5 -35.5q-32 0 -58 15.5t-54.5 41.5t-49.5 38 q-43 27 -80 94.5t-37 134.5zM860 175q-3 -39 19 -58q32 -26 97 43t93 149t-10 125q-17 13 -61.5 -21t-73.5 -75q-26 -37 -43.5 -80.5t-20.5 -82.5z" />
<glyph unicode="&#x26;" horiz-adv-x="1290" d="M19.5 341.5q8.5 49.5 29.5 94t59 93.5t76.5 91.5t81.5 87.5q6 5 9.5 9t7.5 8q-11 6 -42.5 21.5t-43.5 22t-37 22.5t-36.5 27t-29 31t-26 39.5t-16.5 47t-11 59.5q-4 47 68.5 156t172 218.5t206.5 193.5t163 84q67 0 138 -40t122 -94t85 -108t36 -84q3 -34 -24 -62 t-62 -30q-14 -1 -35.5 17.5t-41 41t-45.5 41.5t-48 19q-32 0 -131.5 -88.5t-180 -186t-65.5 -117.5q9 -13 50 7.5t97.5 45t94.5 17.5q28 -5 78 -39t91 -75.5t44 -63.5q7 -24 5 -53.5t-30 -42.5q-102 -50 -227 -166t-201.5 -224t-56.5 -141q11 -17 37 -18t60.5 13t74.5 37 t79.5 53.5t73.5 62.5t59 64.5t34 58.5q8 22 -8 42t-32.5 39.5t-10.5 40.5q10 36 38.5 54.5t58.5 22t77 8t76 12.5q19 5 47.5 14t49 15t42.5 11.5t40 4.5t31 -8q47 -25 88 -135t31 -146q-6 -22 -25 -38.5t-44 -20.5q-12 -2 -27 1.5t-26.5 2.5t-24.5 -13q-26 -25 -75.5 -80.5 t-90 -99.5t-101 -98.5t-117 -91t-128.5 -61.5t-144 -25q-125 0 -284 116q-70 50 -108.5 89.5t-63.5 101.5q-20 42 -11.5 91.5z" />
<glyph unicode="'" horiz-adv-x="454" d="M60.5 1310.5q-1.5 18.5 2 29.5t11.5 36q3 8 9.5 22.5t10.5 26.5t4 25v160q0 24 18 44.5t44 28.5q43 14 126.5 -12t106.5 -61q5 -9 6 -24t-0.5 -43.5t-1.5 -43.5v-221q0 -13 5 -36t4 -38q-2 -31 -12 -55.5t-27 -28.5q-51 -12 -138.5 36t-154.5 122q-12 14 -13.5 32.5z" />
<glyph unicode="(" horiz-adv-x="688" d="M58.5 1001.5q8.5 188.5 74 371t184.5 310.5q42 45 86 29q40 -16 116 -83t99 -99q9 -24 2.5 -50t-20.5 -48q-91 -145 -144 -300t-65 -289t-2.5 -263.5t38.5 -232t64.5 -184.5t69 -130.5t57.5 -61.5q34 -19 31 -53q-3 -29 -40.5 -60.5t-59.5 -23.5q-107 39 -203 155.5 t-163 275.5t-100 353.5t-24.5 383z" />
<glyph unicode=")" horiz-adv-x="688" d="M39 1647q3 29 40.5 60.5t59.5 23.5q107 -39 203 -155.5t163 -275.5t100 -354t24.5 -383.5t-74 -371t-184.5 -310.5q-41 -44 -86 -28q-40 16 -116 83t-99 99q-9 24 -2.5 50t20.5 48q91 145 144 300t65 289t2.5 263.5t-38.5 231.5t-64.5 184t-69 130.5t-57.5 61.5 q-34 19 -31 54z" />
<glyph unicode="*" horiz-adv-x="1314" d="M96 885q2 6 4 11t4 8.5t5.5 6.5t5.5 4.5t8 4t8.5 3.5t11.5 4t13 5q9 3 33 4t47 1t61 -0.5t55 -0.5l-86 143q-2 3 -15 10t-22 16t-6 21q9 52 45.5 104t81.5 77q44 27 99 -7q19 -12 86 -112.5t112 -175.5q8 14 38.5 72t51.5 95.5t48.5 81.5t45.5 62q11 11 33.5 13.5 t50.5 -5.5q33 -12 94 -87t38 -118q-35 -67 -111 -190q23 0 62 0.5t56 0.5t39.5 -1.5t34 -5t17.5 -10.5q95 -95 82 -222q-5 -43 -68 -51q-19 -2 -47.5 7.5t-34.5 9.5q-8 2 -141 2l90 -138q5 -3 12 -8.5t17.5 -19t7.5 -23.5q-10 -51 -83 -114.5t-120 -75.5q-29 -9 -66 34l-3 3 q-18 20 -41.5 62.5t-54 103t-52.5 96.5l-182 -242q-6 -51 -31 -57q-32 -9 -108 41t-103 112q-6 16 14 70q2 7 12 20.5t43.5 55t63.5 80.5h-106q-13 0 -31.5 -8.5t-27 -10t-27.5 11.5q-47 42 -63 108t-1 118z" />
<glyph unicode="+" horiz-adv-x="1118" d="M27 999q3 10 9.5 18t16.5 13t18.5 8t23 5t23 3t25.5 2t23 1q164 12 217 12v379q0 17 34 40t68 27q26 3 102 -86.5t95 -146.5q10 -46 9 -58t-7.5 -54.5t-7.5 -86.5h143q34 0 87 11t65 8q35 -9 69 -122t21 -165q-7 -25 -31.5 -32t-66.5 -7h-287v-236q0 -14 11 -35t9 -36 q-4 -39 -43 -59.5t-75 -8.5q-14 4 -31 19.5t-41 42t-37 39.5t-34.5 30t-35.5 29.5t-18 24.5q-4 13 4 32t8 29v121l-135 -10q-9 0 -27.5 -10.5t-33.5 -2.5q-38 21 -71.5 61.5t-88.5 135.5q-20 33 -10 65z" />
<glyph unicode="," horiz-adv-x="626" d="M46 -127q0 41 20 45l10 -2q23 -11 66 4.5t83 47t60.5 83.5t1.5 105q-11 32 5 67t40 43q28 9 116.5 -18.5t102.5 -54.5q18 -30 19.5 -75t-12.5 -93t-43 -96.5t-67 -87.5t-90.5 -64t-109.5 -27q-76 -2 -178 60q-25 16 -24 63z" />
<glyph unicode="-" horiz-adv-x="1007" d="M84 840q-3 36 22 67t56 37q7 4 58 0.5t73 -2.5q3 0 89 5.5t178.5 10.5t178.5 3.5t101 -13.5q41 -33 70.5 -138.5t17.5 -147.5q-8 -27 -39.5 -37.5t-65.5 -8.5q-12 1 -59 14t-78 11h-313q-21 -1 -52.5 -22t-54.5 -19q-30 3 -48 21t-36 55.5t-28 52.5q-7 9 -22.5 28.5 t-24 30.5t-16 26t-7.5 26z" />
<glyph unicode="." horiz-adv-x="380" d="M16 33q-9 19 26 107.5t60 129.5q9 15 30 18.5t39 0.5t51.5 -11.5t47.5 -11.5q81 -13 90 -53q5 -22 -26 -80.5t-31 -95.5q-2 -7 -0.5 -24.5t0.5 -24.5q-8 -59 -33 -70q-30 -12 -135.5 38t-118.5 77z" />
<glyph unicode="/" horiz-adv-x="1214" d="M5.5 121q-0.5 7 1.5 13t5 13q59 113 423 706t491 755q16 47 20 51q50 46 98 37q15 -3 66.5 -54t92.5 -105.5t28 -63.5q-90 -70 -311.5 -407t-401.5 -647.5t-186 -344.5q-8 -13 -9.5 -40t-3.5 -34q-9 -35 -36.5 -61t-51.5 -23q-35 5 -121 70.5t-96 99.5q-1 4 -3.5 12.5 t-3.5 12t-1.5 10.5z" />
<glyph unicode="0" horiz-adv-x="1130" d="M54 844.5q-2 198.5 22.5 372.5t87.5 304t155 162q23 8 47.5 -6.5t34.5 -11.5q48 17 97.5 20.5t98 -5.5t89.5 -21t94.5 -28.5t91.5 -24.5q68 -15 118 -110.5t71 -238.5t23.5 -313t-25.5 -342t-74 -317t-124.5 -245.5t-174.5 -121.5q-28 -4 -45.5 -4.5t-42.5 6.5t-42 13.5 t-43.5 17t-47.5 16.5q-41 11 -99 36t-83 34q-67 23 -119.5 145.5t-80 293t-29.5 369zM418 838q0 -120 19.5 -267t50 -251.5t57.5 -104.5q57 0 100 130t59 315t15 370t-29.5 315t-75.5 130q-52 0 -91.5 -62t-61.5 -161t-32.5 -204.5t-10.5 -209.5z" />
<glyph unicode="1" horiz-adv-x="700" d="M29 1240q3 25 10 43t22 40.5t29 40t30.5 41.5t26.5 45q13 28 25.5 74t20.5 76.5t31 58.5t59 37q49 12 121.5 -9t130 -69.5t57.5 -106.5v-1357q0 -20 19.5 -52.5t19.5 -54.5q-2 -53 -32 -93.5t-77 -37.5q-20 1 -90 42.5t-134 92t-65 72.5q-1 15 6 38.5t7 35.5v860 q0 31 -28.5 47.5t-64 21t-71 20.5t-45.5 46q-11 23 -8 48z" />
<glyph unicode="2" horiz-adv-x="1081" d="M-14 111q0 14 70.5 113.5t173 247.5t206.5 313t182 339.5t87 296.5q-76 -31 -156 -105t-122 -132l-42 -58q-12 -10 -15.5 -37.5t-11.5 -37.5q-52 -73 -223 39q-15 11 -50.5 28.5t-58 32.5t-24.5 31q-2 27 37 90.5t108.5 141t152 149t178 120t175.5 48.5q27 0 52.5 -10 t41 -21t42 -33t42.5 -33q45 -31 68.5 -48.5t54.5 -45t51.5 -57t36.5 -66.5q30 -68 -37 -262t-182.5 -411t-230.5 -377q11 4 78.5 26.5t97.5 34.5q14 7 29.5 19t27 18t25.5 4q32 -5 88 -61.5t98.5 -118t44.5 -84.5q3 -29 -20 -51.5t-55 -32.5q-14 -4 -39 -1t-39 -1 q-35 0 -242 -61.5t-315 -114.5q-22 -11 -39.5 -26t-27.5 -25t-15 -11q-8 -1 -18 1.5t-23 9t-24 13.5t-27.5 18.5t-27 20t-29.5 23t-29 21.5q-12 8 -32 20.5t-34 21.5t-28.5 21.5t-22 27.5t-8.5 32z" />
<glyph unicode="3" horiz-adv-x="1118" d="M61 246q-1 47 46.5 86.5t89.5 36.5q21 -1 45.5 -24t45.5 -50t53 -53t65 -33q27 -6 64.5 13.5t74.5 56t75 83.5t67.5 95.5t52 92.5t27.5 74.5t-5 41.5q-16 12 -78.5 -3.5t-73.5 -27.5q-5 -1 -13 -15.5t-15 -19.5q-33 -22 -64 -18q-34 5 -111 66t-126 126q-20 30 -4 65.5 t49 49.5q24 11 72.5 47.5t114 99t123 157.5t77.5 196q-49 -11 -98.5 -56.5t-82.5 -94t-68 -92.5t-58 -52q-40 -13 -149.5 50t-141.5 111q-3 5 -4.5 10.5t0 13.5t2.5 12t5 14.5t5 13.5q4 10 10.5 18.5t16.5 18.5l14 14q133 148 169 185q150 148 272 163q23 3 46 2 q65 -4 141.5 -51t136.5 -114t97.5 -146.5t30.5 -142.5q-14 -140 -187 -344q94 -79 145.5 -169.5t59 -175.5t-13 -171.5t-66 -161.5t-104 -140.5t-123 -113t-127.5 -76t-113 -31.5q-33 -2 -112 47.5t-156.5 114t-137.5 124.5t-61 77z" />
<glyph unicode="4" horiz-adv-x="1388" d="M-22 528.5q2 9.5 3.5 16.5t8.5 18t10.5 16t13 17.5t11.5 15.5q8 11 31 32t32 38q7 7 316.5 500t330.5 506q53 32 74 36q12 3 27 2q47 -2 167.5 -87.5t129.5 -125.5q2 -8 0.5 -16.5t-7 -19t-9.5 -16.5t-13 -19t-12 -17v-557q7 1 30 6.5t33 6.5t25.5 -2t27.5 -13 q37 -32 104.5 -135.5t67.5 -122.5q0 -48 -88 -78q-34 -13 -73 -10l-125 -24v-480q0 -8 3.5 -25t2.5 -30q-4 -42 -40 -74.5t-69 -27.5q-67 8 -144.5 69.5t-133.5 126.5q-13 16 -14.5 35t1.5 37q1 9 15 24t14 27v268q-378 -121 -467 -127q-49 -3 -148 66t-126 109 q-6 8 -9 16.5t-1 18zM514 705l219 73v283z" />
<glyph unicode="5" horiz-adv-x="1167" d="M59 240q-5 42 24 82t71 43q16 1 33.5 -4.5t39 -19t36.5 -24t42 -31.5t39 -30q22 -16 60 -59.5t57 -49.5q85 47 164.5 160t120.5 242t22 217q-52 7 -102 -8t-74.5 -31t-61.5 -46q-2 -2 -3.5 -3t-3.5 -2.5t-3.5 -3t-3.5 -2.5q-12 -8 -35.5 -35.5t-42.5 -28.5 q-42 -2 -154 51.5t-155 102.5q-14 17 -15 35t5 44.5t6 43.5v616q0 32 38 62t83 38q13 2 41 -7t45 1q105 48 232 81t201.5 43t98.5 9q9 1 22.5 4t21.5 4t19 -1t21 -9q55 -41 124 -128.5t79 -135.5q5 -24 -24 -56t-62 -38q-25 -4 -78.5 16t-83.5 23q-73 9 -195 -25t-223 -116 v-224q85 39 166 39q74 0 183.5 -61t191.5 -148.5t82 -154.5q0 -154 -44.5 -310.5t-115.5 -276.5t-166.5 -195.5t-191.5 -75.5q-63 0 -189 70.5t-231 164t-111 148.5z" />
<glyph unicode="6" horiz-adv-x="1155" d="M59.5 884q5.5 182 35.5 348.5t97.5 294t161.5 175.5q32 16 71.5 17.5t85.5 -11.5t85.5 -29t91.5 -41q50 -24 77 -37.5t72 -38t70 -42t57.5 -44t50 -50.5t31.5 -54.5t17 -62.5l3 -9t5.5 -22.5t5.5 -31.5t1.5 -33t-5.5 -31q-14 -32 -42.5 -54t-55.5 -16q-103 21 -172 49 t-117 84v21t-4 47t-12 60.5t-26 49.5t-44 25q-47 4 -82.5 -44t-55 -127.5t-29 -147.5t-13.5 -134q19 12 56 43.5t68.5 49.5t69.5 22q37 3 74 -5t55.5 -15.5t65.5 -32t61 -31.5q15 -8 55 -26.5t56.5 -28t40.5 -30.5t39 -46q39 -64 48 -164t-10 -208t-63.5 -218t-104.5 -197 t-140.5 -141.5t-165.5 -54.5q-77 0 -176 41t-162 108q-7 7 -31.5 32t-34.5 36t-27 31t-26.5 36.5t-15.5 32.5q-48 127 -73 300t-19.5 355zM473 203q80 17 141.5 91t98.5 165q72 183 35 381q-193 -93 -269 -265t-6 -372z" />
<glyph unicode="7" horiz-adv-x="1142" d="M5.5 1526q20.5 45 62.5 63q20 9 44 13t58.5 7t52.5 5l584 104q15 2 45 19.5t53 13.5q40 -9 140 -132.5t94 -158.5q-4 -23 -36 -49.5t-46 -44.5q-16 -45 -185 -655.5t-174 -638.5q-6 -28 -7.5 -63.5t-6.5 -57.5t-25 -45.5t-43 -32.5q-30 -13 -145.5 25.5t-169.5 87.5 q-22 22 -22 65q0 19 17.5 41.5t20.5 36.5q255 984 351 1251l-303 -80q-7 -4 -18.5 -13.5t-18.5 -14t-17.5 -7.5t-21.5 -1q-42 7 -151.5 73.5t-131.5 106.5q-21 37 -0.5 82z" />
<glyph unicode="8" horiz-adv-x="1339" d="M25 281q0 155 69.5 274t212.5 225q-233 77 -233 258q0 81 70 203t170 231.5t221.5 188t214.5 78.5q52 0 92.5 -8.5t66.5 -20t51.5 -34.5t39.5 -41.5t39.5 -52t43.5 -54.5q79 -93 114 -179t7 -175q-25 -78 -70 -132.5t-114 -101.5q123 -81 203 -180t80 -201 q0 -104 -84.5 -226.5t-210 -221.5t-279.5 -165.5t-283 -66.5q-44 0 -115.5 38t-139.5 95t-117 131t-49 138zM385 211q85 -13 189.5 34t187 121.5t139.5 159.5t57 144q-102 0 -186.5 -22.5t-165.5 -80.5q-97 -69 -148 -152.5t-73 -203.5zM418 989q77 -2 149 22.5t126 67.5 t95.5 96.5t62.5 110.5t21 109q-91 -23 -153 -55.5t-129 -92.5q-66 -59 -104.5 -116t-67.5 -142z" />
<glyph unicode="9" horiz-adv-x="1105" d="M26 895q-9 100 10 208t63.5 218t104.5 197t140.5 141.5t165.5 54.5q77 0 176 -41t162 -108q7 -7 31.5 -32t34.5 -36t27 -31t26.5 -36.5t15.5 -32.5q48 -127 72.5 -300t19.5 -355t-35.5 -348.5t-98 -294t-161.5 -175.5q-32 -16 -71.5 -17.5t-85.5 11.5t-85.5 29t-91.5 41 q-50 24 -77 37.5t-71.5 38t-70 42t-57.5 44t-49.5 50.5t-31.5 54.5t-17 62.5l-3 9t-6 22.5t-6 31.5t-1.5 33t5.5 31q14 32 43 54t56 16q103 -21 172 -49t117 -84v-21t4 -47t12 -60.5t26 -49.5t44 -25q47 -4 82.5 44t55 127.5t29 147.5t13.5 134q-18 -12 -55.5 -43.5 t-69.5 -49.5t-70 -22q-37 -3 -74 5t-55.5 15.5t-65.5 32t-61 31.5t-54.5 26.5t-56.5 28.5t-40 30t-39 46q-39 64 -48 164zM387 786q193 93 269 265t6 372q-80 -17 -141.5 -91t-98.5 -165q-72 -183 -35 -381z" />
<glyph unicode=":" horiz-adv-x="450" d="M41 12q-9 19 26 108t60 130q9 15 30 18.5t39 0.5t51.5 -11.5t47.5 -11.5q81 -13 90 -53q5 -22 -26 -81t-31 -96q-2 -7 -0.5 -24.5t0.5 -24.5q-7 -58 -33 -69q-30 -12 -135.5 37.5t-118.5 76.5zM41 954q-9 19 26 108t60 130q9 15 30 18.5t39 0.5t51.5 -11.5t47.5 -11.5 q81 -13 90 -53q5 -22 -26 -81t-31 -96q-2 -7 -0.5 -24.5t0.5 -24.5q-7 -58 -33 -69q-30 -12 -135.5 37.5t-118.5 76.5z" />
<glyph unicode=";" horiz-adv-x="450" d="M-126 -191q0 41 19 45q4 1 9 -1q19 -9 51.5 -1t66.5 29t62 53t38 72t-5 86q-11 32 5 67.5t40 43.5q28 8 116.5 -20.5t102.5 -53.5q18 -31 19.5 -75.5t-12.5 -92.5t-43 -96.5t-67 -87t-90.5 -63.5t-109.5 -27q-79 -4 -178 59q-25 14 -24 63zM41 954q-9 19 26 108t60 130 q9 15 30 18.5t39 0.5t51.5 -11.5t47.5 -11.5q81 -13 90 -53q5 -22 -26 -81t-31 -96q-2 -7 -0.5 -24.5t0.5 -24.5q-7 -58 -33 -69q-30 -12 -135.5 37.5t-118.5 76.5z" />
<glyph unicode="&#x3c;" horiz-adv-x="1302" d="M45 1168.5q-3 159.5 35.5 301t114.5 168.5q13 7 27.5 0t19.5 -6q27 10 55 11.5t54.5 -4.5t50 -13t52.5 -17t50 -14q45 -9 75 -79t40 -169.5t1 -216t-34 -217.5t-73.5 -174.5t-111.5 -87.5q-12 -5 -32 -2t-30 6.5t-30 11t-33 11.5q-23 7 -55.5 20.5t-46.5 18.5 q-56 19 -91 155.5t-38 296zM250 1169q0 -109 24 -228.5t48 -119.5q32 0 56 72t33 175.5t8.5 206.5t-16.5 175t-43 72q-28 0 -50.5 -34.5t-35 -89t-18.5 -113.5t-6 -116zM356 449q-4 24 12.5 44t37.5 27q9 1 40.5 -1t49.5 -1q3 0 59.5 7t118.5 14t121 10t67 -6q28 -23 48 -94 t12 -99q-10 -36 -72 -31q-10 0 -39.5 8t-50.5 7l-211 -19q-15 -1 -36 -14t-36 -12q-19 2 -31 13t-25.5 37.5t-19.5 35.5q-5 8 -18.5 25t-20 28.5t-6.5 20.5zM671.5 1168.5q-3.5 159.5 35 301t114.5 168.5q13 7 27 0t18 -6q27 10 55 11.5t55 -4.5t50.5 -13t53 -17t50.5 -14 q39 -8 67 -61t39.5 -133t13 -175t-14 -191.5t-41 -178t-69 -137.5t-97.5 -68q-13 -5 -33 -2t-29.5 6.5t-29.5 11t-33 11.5q-23 7 -55.5 20.5t-46.5 18.5q-56 19 -91 155.5t-38.5 296zM877 1169q0 -109 23.5 -228.5t47.5 -119.5q32 0 55.5 72t32.5 175.5t9 206.5t-16 175 t-42 72q-29 0 -51.5 -34.5t-34.5 -89t-18 -113t-6 -116.5z" />
<glyph unicode="=" d="M47 1044q4 29 22 41t54 19q31 6 182.5 10.5t287.5 5.5l136 2q19 0 41 12.5t37 12.5q8 0 24 1.5t24.5 1.5t18.5 -4.5t15 -15.5q28 -53 46.5 -113.5t21.5 -117t-27 -78.5q-18 -14 -156 -14.5t-261.5 3t-184.5 -8.5q-21 0 -52.5 -15.5t-52.5 -13.5q-36 3 -53 14 q-27 20 -77.5 118t-45.5 140zM109 573q-3 37 21.5 68t55.5 37q7 4 58 0.5t73 -2.5q3 0 89 6.5t178.5 12t178.5 4.5t101 -13q41 -33 70.5 -139t17.5 -148q-15 -50 -104 -45q-12 1 -58.5 12t-78.5 9h-314q-21 -2 -51.5 -22.5t-54.5 -18.5q-30 3 -48 21t-36.5 56t-28.5 52 q-7 9 -22.5 28.5t-23.5 30.5t-15.5 25.5t-7.5 25.5z" />
<glyph unicode="&#x3e;" horiz-adv-x="1277" d="M21 1193.5q-3 70.5 18.5 144.5t57 141t88.5 110t110 43q43 0 98 -24t92 -62l12 -12l14 -14t12 -12.5t12.5 -14t10 -13t9.5 -14.5t6 -14q45 -121 51 -295t-37 -329.5t-129 -200.5q-18 -9 -39.5 -9.5t-47.5 7t-47.5 16t-51.5 23.5q-37 17 -60 29t-53.5 31t-48.5 36.5 t-32 41t-17 48.5q-2 5 -4 12.5t-4.5 28t4.5 29.5q6 19 23 30.5t32 7.5q117 -23 160 -75v-11.5t2.5 -26t7 -33t15 -27t24.5 -13.5q27 -3 47 23.5t31 71t16 82.5t7 75q-10 -7 -31 -24.5t-39 -28t-39 -13.5q-21 -1 -41 3.5t-32 10t-35.5 18t-34.5 18.5q-10 5 -31.5 15 t-31.5 15.5t-23 17t-21 25.5q-27 42 -30 112.5zM225 1110q109 53 151 149t3 209q-77 -17 -133 -145q-39 -92 -21 -213zM332 418q-3 25 12.5 44.5t36.5 26.5q11 1 41.5 -1t48.5 -1q3 0 60 7t119 14t121 10t67 -6q28 -23 47.5 -94t11.5 -99q-10 -35 -70 -30q-11 0 -41.5 7.5 t-50.5 6.5l-211 -18q-15 -1 -35 -14.5t-36 -12.5q-19 2 -31 14t-24.5 36.5t-20.5 35.5q-5 8 -18.5 25t-20 28.5t-6.5 20.5zM652.5 1193.5q-2.5 70.5 19 144.5t56.5 141t88 110t110 43q43 0 98 -24t92 -62l12 -12l14 -14t12 -12.5t12.5 -14t10 -13t9.5 -14.5t6 -14 q45 -121 51 -295t-37 -329.5t-129 -200.5q-18 -9 -39.5 -9.5t-47.5 7t-47.5 16t-51.5 23.5q-37 17 -60 29t-53.5 31t-48.5 36.5t-32 41t-17 48.5q-2 5 -4 12.5t-4.5 28t4.5 29.5q6 19 23 30.5t32 7.5q117 -23 160 -75v-11.5t2.5 -26t7 -33t15 -27t24.5 -13.5q27 -3 47 23.5 t30.5 71.5t15.5 82.5t7 74.5q-11 -7 -31 -24.5t-38 -28t-39 -13.5q-21 -1 -41.5 3.5t-32.5 10t-35.5 18.5t-34.5 18q-9 5 -31 15t-31.5 15.5t-22.5 16.5t-21 26q-27 42 -29.5 112.5zM856 1110q109 53 151 149t3 209q-77 -17 -133 -145q-39 -92 -21 -213z" />
<glyph unicode="?" horiz-adv-x="995" d="M37 1499q-16 26 12 62q16 20 86.5 53t165 62t203.5 28.5t184 -45.5q119 -71 176 -176t70 -254q7 -74 -12 -143t-52 -121t-87 -108.5t-101 -95t-110.5 -91.5t-100.5 -88q-53 -51 -82 -97q-1 -2 -6 -10.5t-8.5 -14t-10.5 -14t-13 -13t-14.5 -7t-17.5 -0.5q-16 3 -34 12.5 t-36.5 24.5t-34 29t-33 33.5t-27.5 30.5t-23 27t-14 17q-12 15 -1 47.5t27 52.5q21 27 59.5 64.5t82 74.5t95 81t99 85.5t94 87.5t79 86.5t54.5 82.5t21 76t-22 67q-30 40 -91.5 46.5t-135.5 -17t-135.5 -51t-119.5 -60.5q-28 -17 -87.5 47.5t-98.5 128.5zM103.5 48 q-0.5 6 4 14t5.5 10q1 4 25 63t22 98q-1 27 26.5 44.5t59.5 17.5q47 0 131.5 -69t99.5 -107q8 -19 -3 -35.5t-29 -35t-23 -36.5q-5 -12 -9.5 -34t-9.5 -33q-11 -23 -18.5 -37t-21.5 -27t-27 -10q-90 18 -225 164q-7 7 -7.5 13z" />
<glyph unicode="A" horiz-adv-x="1361" d="M10 66q-1 5 -1 11q0 23 15 66q19 55 52.5 136t48.5 129q-15 15 -24 27t-15 33.5t-2 47.5q3 12 34 34t61 38l30 16l264 903q7 30 6.5 55t-5 43t-2.5 34.5t15 27.5q11 10 48 10q35 1 95 -9q122 -20 245 -59.5t149 -68.5q4 -84 29 -269t63 -409t95 -444t114 -334 q-4 -28 -5.5 -62t-5 -51t-14.5 -32q-13 -7 -38 -7q-46 0 -132 24q-132 38 -180 91q-14 16 -22.5 63.5t-23 130t-38.5 156.5q-77 -9 -227 -56t-195 -77q-62 -174 -82 -217q-5 -13 -8.5 -36.5t-11.5 -36.5t-29 -25q-7 -3 -18 -3q-26 0 -77 16q-74 24 -139.5 58t-68.5 46z M567 649q40 17 78 27.5t90.5 20t55.5 10.5q-1 3 -11.5 52.5t-15.5 78.5t-13.5 83.5t-14.5 114.5t-9 125q-41 -101 -98.5 -283t-61.5 -229z" />
<glyph unicode="B" horiz-adv-x="1130" d="M55 127q-7 18 2 44.5t9 35.5v1327q0 26 60 32q19 2 37 3q37 0 64 -10q125 82 317 131q104 27 176 27q60 0 97 -19q32 -18 65.5 -68.5t47.5 -64.5q16 -16 43.5 -37t45 -39.5t25.5 -44.5t8 -54q0 -58 -33 -129q-49 -105 -181 -223q101 -76 166 -156t75 -145q5 -31 5 -62 q0 -51 -14 -107q-23 -88 -71 -167t-111.5 -154.5t-132.5 -135t-132 -104t-112 -67.5q-43 -20 -66 -20h-5q-62 9 -217.5 93t-167.5 114zM416 256q87 25 180 123.5t150 217.5q50 104 50 179q0 11 -1 21q-52 -2 -185 -54.5t-194 -105.5v-381zM416 1055q132 104 227 213 q81 92 81 125q0 6 -3 10q-5 9 -22 9q-19 0 -51 -10q-64 -20 -135 -60t-97 -74v-213z" />
<glyph unicode="C" horiz-adv-x="1118" d="M31 927q13 143 51.5 277.5t98 237.5t142.5 167.5t177 69.5h9q79 1 224 -81q154 -86 205 -173q14 -24 25 -60t17.5 -67.5t12 -75.5t7.5 -67.5t4 -60.5t2 -39v-15q0 -32 -6 -68q-8 -46 -28 -81t-46 -31q-72 11 -192.5 49t-129.5 68q-9 27 11.5 60t19.5 50q4 26 8 66 q2 25 2 66q-1 26 -1 57q-2 83 -23 117q-79 -58 -133.5 -166t-77.5 -230q-23 -123 -28 -255q-1 -36 -2 -69q0 -92 10 -173q14 -110 39 -188.5t56 -98.5q3 -2 6 -2q26 1 108 85q93 96 120 153q6 13 12.5 41t14.5 46t24 23q4 2 11 2q27 1 91 -25q80 -32 150 -74q68 -41 68 -60 q0 -48 -39 -83q-41 -84 -117 -180.5t-163 -162.5q-70 -53 -118 -53q-12 0 -22 3q-90 28 -203 74q-115 47 -200 145.5t-130 222.5q-44 124 -62 270q-10 83 -11 167q0 61 6 122z" />
<glyph unicode="D" horiz-adv-x="1093" d="M68 74v1474q5 54 61 64q10 2 26 -0.5t40 -7.5t36 -7h4q20 0 70 23q55 26 127 50q51 16 98 16q20 0 39 -3q58 -8 109.5 -33.5t77 -46t88.5 -75.5q49 -43 84.5 -84t58 -85.5t35.5 -80.5t18.5 -89.5t7 -90.5t1.5 -103q0 -138 -47.5 -293.5t-117.5 -283.5t-148 -238 t-142.5 -176t-97.5 -80q-34 -14 -73 -14q-37 0 -79 12q-86 24 -161.5 67.5t-114.5 84.5zM416 381q74 43 139 157t103 250q40 136 62 268q20 117 19 203v23q-3 94 -30 109q-12 7 -33 7q-34 0 -90 -18q-92 -29 -170 -77v-922z" />
<glyph unicode="E" horiz-adv-x="970" d="M68 66v1540q0 14 48 40q46 25 68 25h2q24 -1 99 -31t121 -30q38 0 82.5 18t77 38.5t64 34.5t48.5 9q50 -14 148 -106q105 -98 104 -134q0 -19 -38 -61q-41 -45 -69 -45q-17 0 -26.5 3.5t-13 6t-7.5 0.5q-10 -2 -27 -6t-65.5 -18t-91.5 -30.5t-93.5 -44t-82.5 -58.5v-334 q30 9 97 41t89 34h2q34 0 136 -92q106 -94 106 -131q0 -22 -29 -53t-55 -39q-17 -5 -36 -3.5t-36 -0.5q-32 -5 -126.5 -52t-147.5 -79v-215q61 37 166.5 87t130.5 50q30 0 145 -89q111 -86 111 -112q0 -28 -35 -77q-29 -40 -53 -48q-5 -2 -26.5 9.5t-31.5 5.5q-8 -2 -23 -7 t-60.5 -23.5t-91.5 -42.5t-109.5 -66t-120.5 -91q-16 6 -60 23.5t-68 27.5t-63.5 27t-63 28.5t-48 25.5t-36 25t-11.5 20z" />
<glyph unicode="F" horiz-adv-x="962" d="M25 1606q6 33 38.5 62.5t73.5 33.5h1q20 0 112 -58q94 -60 125 -67l225 92q14 5 42 25t50 22h5q32 0 99 -42q72 -46 130 -104q55 -55 55 -82q0 -30 -31 -76q-27 -40 -67 -44q-15 -1 -37 7.5t-35 8.5q-37 0 -182.5 -61.5t-212.5 -114.5v-374q21 10 60 35t71 41.5t57 17.5 h1q23 0 81 -56q59 -56 107 -123q45 -63 45 -89q0 -36 -38 -73q-34 -33 -61 -40q-14 -4 -37 6.5t-36 3.5q-197 -78 -250 -129v-299q0 -19 22 -44.5t21 -53.5q-2 -54 -30.5 -92t-78.5 -48q-115 53 -198.5 122t-83.5 122v1354q0 33 -23.5 66.5t-19.5 50.5z" />
<glyph unicode="G" horiz-adv-x="1142" d="M30 730q-1 22 -1 43q0 140 23 278q26 159 69.5 292t115.5 223t158 109q14 3 32 3q49 0 123 -21q101 -28 200.5 -83.5t140.5 -115.5q32 -51 47 -113t20.5 -115t14.5 -73q3 -7 8.5 -43t7.5 -41v-6q0 -25 -20 -57q-23 -37 -43 -43q-6 -2 -16 -2q-39 0 -144 31 q-133 41 -160 63q-32 20 -32 79q0 8 1 17t11 25t10 28q0 5 0.5 20.5t0.5 26.5t-1 27t-3 27t-5.5 22t-10 17t-14.5 6h-1q-57 0 -104 -167q-46 -168 -62 -375q-5 -80 -5 -157q0 -123 15 -240q25 -189 94 -225q4 -2 8 -2q19 0 48 48q34 57 63 146.5t36 162.5q-29 22 -80 43.5 t-85 38t-39 35.5q-2 7 -2 16q0 28 22 71q29 56 57 70q36 20 100.5 20.5t86.5 4.5q31 5 112 35q64 24 101 24q10 0 18 -2q51 -10 151 -93q97 -80 97 -108q0 -32 -22 -66q-20 -30 -50 -40q-12 -2 -33 9t-49 1q-4 -15 -12 -46q-16 -62 -24.5 -93t-24.5 -87t-26.5 -86.5 t-28.5 -77.5t-33.5 -74.5t-37 -63t-43.5 -58t-49.5 -44t-58.5 -35.5q-30 -15 -65.5 -15t-54 4.5t-70.5 23.5t-63 23q-28 12 -83.5 28.5t-91.5 33.5q-79 38 -135.5 143.5t-80.5 246.5t-28 303z" />
<glyph unicode="H" horiz-adv-x="1241" d="M61.5 116q0.5 8 3.5 30t3 42v1311q0 30 18 113q1 6 5.5 12t9 10.5t13.5 10.5t13.5 8.5t15.5 8.5t13 7q8 1 37 1q2 0 3 1q28 0 70 -8q44 -8 84 -19.5t70 -33.5q33 -24 33 -53q1 -19 -17 -65q-20 -52 -20 -71v-499q50 11 125 29t121.5 29t58.5 13q0 38 1.5 186.5t1.5 256 t-3 125.5q0 8 -9.5 34t-4.5 43q5 16 17.5 27t32 16.5t36 8t38.5 4t29 2.5q8 1 16 1q43 0 116 -28q88 -34 98 -70q4 -16 -9.5 -46.5t-13.5 -53.5v-565q20 -22 62 -57t66 -60.5t22 -42.5q-3 -28 -48 -70t-67 -42q-26 0 -35 -3v-516q0 -13 4 -27.5t9.5 -28.5t6.5 -19 q5 -18 5 -44q0 -20 -3 -44q-6 -56 -32 -68q-12 -6 -31 -6q-30 0 -78 14q-80 22 -157 64.5t-97 83.5q-4 8 -4 28.5t-2 26.5q-3 15 15 39t18 31q2 4 2 87t-1 195.5t-1 130.5q-39 -5 -153 -31.5t-152 -39.5v-416q0 -15 13 -34.5t15 -29.5q-5 -17 -9 -38t-6 -29t-7 -15.5 t-14 -11.5q-6 -2 -17 -2q-45 -1 -166 41q-150 52 -159 82q-5 26 -4.5 34z" />
<glyph unicode="I" horiz-adv-x="491" d="M51 57q0 9 8.5 19.5t8.5 34.5v1443q0 12 -8 25.5t-7 26.5q1 27 24.5 43t51.5 22q14 3 38 3q45 0 123 -10q122 -14 159 -52q11 -11 12 -26.5t-3.5 -27t-10.5 -26.5t-7 -23q-22 -82 -24 -127v-1257q0 -25 12 -44t12 -32q0 -52 -12.5 -94.5t-36.5 -48.5h-6q-29 0 -141 27 q-128 31 -148 51q-45 36 -45 73z" />
<glyph unicode="J" d="M22 618q0 10 3 21q7 30 31 50.5t55 23.5q11 1 24 1q53 0 143 -19q113 -24 136 -68q12 -16 6 -55t-2 -56q3 -101 29.5 -204t56.5 -103q20 0 34.5 60t23 170t13.5 225t6.5 267t2.5 251v68q0 70 -1 151q-1 121 -1 133q0 15 -8.5 37t-8.5 26q0 27 29.5 55t60.5 31q12 1 26 1 q56 0 159 -18q130 -22 139 -60q7 -26 7 -61q0 -45 -11 -105q0 -18 2 -96t3 -158v-90v-107q-1 -116 -6.5 -224t-15.5 -226t-29 -217.5t-45 -184t-66 -140t-89 -71.5q-28 -9 -56 -11t-57.5 4.5t-54 13.5t-61 19t-62.5 19q-13 3 -41 9.5t-41 10t-34 10t-38 15t-34 19.5 q-48 32 -85 83.5t-57.5 103t-34.5 109.5t-18.5 99.5t-7 75.5t-2.5 35l-7.5 20t-7.5 19.5t-5.5 17.5t-2.5 20z" />
<glyph unicode="K" horiz-adv-x="1204" d="M68 33v1499q0 38 26.5 87t59.5 60q9 3 22 3q46 0 146 -38q128 -48 139 -83q1 -4 1 -11q0 -22 -10 -80q-14 -77 -29 -177q-9 -67 -9 -117q0 -25 2 -46l352 541q28 45 72 45h6q51 -2 157 -71q109 -71 109 -134q0 -19 -73 -111q-74 -94 -199 -261t-215 -320l413 -475 q10 -12 29.5 -18.5t36.5 -9t30.5 -10.5t14.5 -23v-5q0 -31 -31 -107q-34 -83 -84 -156q-47 -68 -81 -68h-5q-38 5 -112.5 79.5t-146.5 164.5t-151.5 181t-121.5 120v-377q0 -13 12 -43t14 -45q1 -14 1 -26q0 -64 -35 -83q-19 -12 -57 -12h-23q-56 4 -113.5 17.5t-102 44 t-44.5 65.5z" />
<glyph unicode="L" horiz-adv-x="1007" d="M39 1632q1 19 23.5 35t48.5 23q5 1 14 1q27 0 89 -11q82 -15 163.5 -51.5t83.5 -80.5q1 -17 -22 -49.5t-23 -48.5v-1133l213 93q10 4 29.5 19t39.5 17h2q18 0 83 -40q69 -42 130 -95q56 -48 56 -68q0 -90 -78 -120q-17 -6 -44 -2.5t-40 -1.5l-303 -129q-16 -6 -31 -34.5 t-29 -33.5q-8 -3 -21 -3q-43 0 -143 27q-132 35 -188 83q-31 26 -31 83q0 16 2 33q5 50 5 52v1376q-4 20 -17 34t-12 25z" />
<glyph unicode="M" horiz-adv-x="1929" d="M61.5 28.5q-1.5 15.5 2 28.5t8 31.5t4.5 32.5v1452q0 25 19.5 56.5t47.5 41.5q4 2 13 2q33 -1 131 -21q124 -26 248.5 -67.5t134.5 -73.5q4 -11 4 -28q0 -16 -4 -37q-3 -20 -2 -35q0 -19 4 -33l276 -743q74 232 149 516.5t111 397t72 122.5q11 3 28 3q40 0 113 -16 q105 -24 133 -26q15 -1 53.5 -3.5t57 -4.5t51 -6t50 -9.5t38 -14t31 -20.5t14.5 -28q3 -13 3 -28q0 -24 -7 -54q-12 -50 -12 -63v-1254q0 -21 25 -61q22 -36 22 -56q0 -12 -6 -36q-2 -10 -7.5 -28t-14.5 -27.5t-21 -12.5q-11 -3 -27 -3q-54 -1 -165 31q-144 40 -164 83 q-8 24 -7 36t6 38t5 43v929q-46 -90 -109 -302t-103 -379l-40 -166q-2 -7 -2 -19q-1 -20 5 -56q8 -57 9 -67q0 -5 -0.5 -21t-1 -22t-1.5 -20t-3 -20l-5.5 -16.5t-8.5 -16t-12.5 -10.5t-16.5 -7q-25 -6 -68 -6q-58 -1 -148 11q-156 20 -222 83q-16 15 -12.5 51t-0.5 60 q-253 788 -321 911v-815q0 -26 18 -78t21 -67q5 -14 6 -52q0 -19 -2 -44q-4 -75 -29 -91q-13 -9 -47 -9q-47 -1 -135 17q-150 30 -178 68q-9 13 -10.5 28.5z" />
<glyph unicode="N" horiz-adv-x="1265" d="M35 105q1 26 8 42q2 5 7.5 14.5t9 15.5t6 15.5t2.5 18.5v1284q0 12 -6.5 36.5t-2.5 39.5q19 67 80 94q9 7 57.5 4t103.5 -10t113 -28.5t87 -51.5q47 -48 96.5 -202.5t110.5 -362t118 -330.5q0 31 1 244t1 376.5t-2 184.5q0 15 -9.5 54.5t-2.5 60.5q12 38 75 51 q51 11 89 11q9 0 16 -1q23 -2 66.5 -10.5t92.5 -29.5t50 -46q1 -17 -2.5 -29.5t-11 -30t-12.5 -38.5v-1352q0 -6 10 -76q2 -13 2 -28q0 -21 -4 -45q-6 -40 -23 -52q-23 -19 -97 -19q-30 0 -69 3q-66 6 -163.5 36t-133.5 68q-15 17 -13.5 50.5t-2.5 56.5q-229 604 -266 665 v-606q0 -16 16 -47t17 -33q6 -21 9 -44.5t-4.5 -52t-29.5 -40.5q-13 -8 -40 -8q-30 0 -78 10q-90 18 -170.5 48.5t-92.5 47.5q-9 16 -8 42z" />
<glyph unicode="O" horiz-adv-x="1339" d="M95 884q9 134 35 263.5t66 233.5t92 177.5t109 96.5q26 6 36.5 5t34.5 -7.5t38 -7.5q17 5 49 15t44.5 13.5t44 10.5t46 5t51.5 -3q123 -15 222.5 -96t160.5 -202t95 -273t36 -308v-21q0 -144 -26 -286q-28 -152 -82.5 -272t-142.5 -199t-197 -92q-32 -4 -62 1.5t-74 20.5 t-65 21q-120 29 -192 61q-94 40 -162 128t-103 200.5t-49 246.5q-9 82 -9 163q0 53 4 105zM466 618q12 -162 62.5 -286t126.5 -139q8 -1 16 -1q65 0 117 106q58 118 80 298q22 181 24 366q0 8 1 16q-1 176 -33 308q-34 138 -90 154q-28 7 -50 -26.5t-34 -79t-33 -90.5 t-47 -56q-18 -7 -41.5 7t-34.5 15q-44 -98 -60 -264q-9 -93 -9 -185q0 -72 5 -143z" />
<glyph unicode="P" horiz-adv-x="1036" d="M41 1573q5 40 24 69t50 29q9 0 81.5 -24t116.5 -25h6q41 0 88 12q50 14 84.5 29t81.5 23q19 4 37 4q25 0 47 -7q47 -13 103.5 -65.5t85.5 -67.5q106 -56 154 -159q43 -91 43 -192q-1 -13 -1 -27q-6 -116 -47.5 -242t-107 -231.5t-143.5 -183t-150 -101.5q-14 -8 -32 -4.5 t-30 7.5t-29 16.5t-28.5 22t-29 24.5t-29.5 24v-348q0 -19 4.5 -39.5t11 -41.5t8.5 -30q1 -7 1 -16q1 -27 -11 -67q-16 -52 -57 -56h-5q-41 0 -159 53q-126 57 -156 102q-8 14 -8.5 35.5t8.5 50.5q15 38 15 68v1266q0 13 -14.5 45t-12.5 47zM416 735q46 15 93 66.5t83 119 t65 145t43 144.5q14 63 14 110v7q-1 50 -20 62q-8 5 -21 5q-35 0 -107 -40q-98 -54 -150 -125v-494z" />
<glyph unicode="Q" horiz-adv-x="1277" d="M93 928q16 184 60.5 337.5t111.5 262.5t141 131q15 4 42.5 -10.5t43.5 -14.5q23 0 51 22.5t47 26.5t40 4q69 0 167 -41q129 -55 235 -147q87 -75 131 -237q43 -157 43 -327v-8q-1 -174 -31.5 -338.5t-82.5 -254.5q36 -31 57 -45q5 -3 27.5 -11.5t40 -19.5t20.5 -27v-7 q0 -28 -25 -82q-29 -62 -77.5 -122.5t-90.5 -78.5q-22 -9 -36.5 -8.5t-40.5 10.5q-15 6 -25 15t-23 24t-28 28q-21 -23 -58.5 -41.5t-70.5 -19.5q-13 -1 -25 -1q-43 0 -73 8q-38 11 -76.5 29.5t-71.5 26.5q-14 3 -42 8.5t-42 9t-35.5 11.5t-40.5 20q-111 66 -178 207.5 t-84 309.5q-9 86 -9 176q0 86 8 174zM441 774v-25q0 -184 57 -354q60 117 127 179t118 67q13 1 23 -6t22.5 -20.5t22.5 -20.5q43 93 49 244q1 31 1 62q0 117 -17 224q-23 135 -63.5 238t-82.5 113q-12 3 -25 0t-16 -9q-2 -4 -1.5 -21t-8.5 -24q-88 -93 -145 -271.5 t-61 -375.5zM504 367q14 -39 22.5 -59.5t25 -55.5t32 -52t30.5 -16q11 1 18 3t11 8.5t5.5 11.5t4 18t4.5 21q-7 13 -16 23.5t-14.5 15t-19.5 14t-21 14.5z" />
<glyph unicode="R" horiz-adv-x="1216" d="M55 1544q1 23 26 43t56 23q4 1 9 1q29 -1 103 -21q80 -22 118 -21h6q31 2 78 24.5t88.5 44.5t103.5 36q30 7 60 7q32 0 63 -8q32 -6 61.5 -22t43 -27t47 -43.5t43.5 -42.5q13 -13 49 -45t49.5 -46.5t35 -42t30 -55t10.5 -61.5q0 -9 1 -17q0 -121 -92 -257 q-98 -144 -315 -336q41 -37 135.5 -132t169.5 -171l74 -76q8 -8 27.5 -15t25.5 -10q41 -18 47 -30q2 -4 2 -11q0 -26 -30 -85q-38 -76 -97 -144q-58 -68 -99 -67h-1q-38 1 -60 17.5t-44 53.5q-3 6 -7.5 19.5t-9.5 23.5t-14 17q-352 329 -432 403v-379q0 -21 16.5 -57 t16.5 -37q9 -30 -15 -55.5t-63 -28.5q-10 -1 -23 -1q-60 0 -164 24q-126 29 -127 63q0 11 5.5 28t5.5 44v1429q0 14 -6.5 25.5t-6.5 17.5zM416 874q46 18 120.5 90t138.5 154q63 82 97 160q18 42 19 70q0 23 -13 34q-7 7 -22 7q-24 0 -67 -20q-69 -32 -140 -81t-133 -100 v-314z" />
<glyph unicode="S" d="M39 416q-6 31 11.5 60.5t41.5 37.5q15 5 45 5q48 0 134 -12q141 -19 159 -40q12 -14 20.5 -80.5t23.5 -128.5t42 -74q10 -4 19 -4q34 0 62 55q32 66 32 151q0 20 -2 41q-11 139 -97 195q-6 4 -12 7q-126 68 -209 126t-145.5 126.5t-88.5 146.5q-21 64 -21 139q0 17 1 35 q6 99 54.5 208t122.5 189t149 97q5 1 11 1q61 0 276 -91q21 -9 61 -23.5t60.5 -23t47.5 -27.5t48 -45q29 -35 43 -97q13 -62 14 -110v-29q0 -41 -2 -93q-2 -74 -2 -93q3 -14 13.5 -42t9.5 -50q-2 -39 -21.5 -68t-54.5 -33q-6 -1 -13 -1q-44 1 -144 33q-116 38 -150 83 q-7 12 -5 56t6 107q3 64 7 122q2 26 2 47q0 29 -2 52q-4 41 -19 40q-43 -2 -79 -47t-52 -113q-17 -70 -16 -145q0 -73 27 -140q28 -69 81 -106q51 -36 114 -75t102.5 -63t84.5 -56t71 -64t49.5 -77.5t33.5 -106t10 -139.5q0 -151 -100.5 -250.5t-278.5 -102.5 q-33 -1 -63 5.5t-67 18t-64 17.5q-13 3 -42 8t-41.5 8.5t-33.5 10.5t-37.5 17.5t-32.5 25.5q-42 38 -67 97.5t-44.5 124t-43.5 99.5q-4 9 -20.5 26t-18.5 32z" />
<glyph unicode="T" horiz-adv-x="1130" d="M-41 1413q16 50 96 72q18 7 52.5 2.5t52.5 -0.5l712 182q13 3 53 21q31 15 54 15q6 0 12 -1q57 -7 78 -45q12 -21 27 -77q14 -56 22 -120q2 -19 3 -35q0 -40 -13 -69q-3 -6 -6.5 -10.5t-9 -7t-9 -4.5t-11.5 -2.5t-11 -0.5h-13h-12q-17 -1 -45.5 13t-46.5 10l-211 -58 v-1077q0 -56 29 -129q3 -8 3 -23q0 -23 -7 -59q-12 -62 -39 -78q-6 -4 -24 -4q-44 0 -157 22q-160 32 -188 68q-13 24 -11 50t13 49q0 1 7.5 15t10 20t6 18.5t3.5 24.5v1013l-146 -37q-11 -2 -34 -17.5t-39 -10.5q-46 13 -130 123q-73 95 -73 136q0 6 2 11z" />
<glyph unicode="U" horiz-adv-x="1167" d="M66 1180q2 234 28 415q3 28 19 50.5t41 31.5q4 1 12 1q36 0 145 -30q133 -37 156 -63q11 -13 11 -33q0 -30 -23 -77q-17 -34 -17 -60v-8q-7 -31 -9 -168v-60q0 -116 5 -259q8 -182 23.5 -355.5t47.5 -291.5q31 -113 72 -113h3q58 6 99 130.5t59 299.5q17 176 24 360 q4 117 4 216q0 57 -1 107q-4 139 -13 179q1 7 1 15q0 28 -12 58q-15 39 -16 44q-2 12 -2 23q0 52 47 81q11 7 36 7q46 0 137 -23q141 -35 163 -60q9 -10 10.5 -23t-2.5 -33t-4 -23q-2 -12 -2 -38q0 -20 1 -46q3 -54 3 -132v-26q0 -24 -1 -50q-1 -76 1 -162q0 -18 1 -37 q0 -99 -7 -207q-8 -128 -18.5 -252t-35.5 -238t-58.5 -202.5t-87 -144t-120.5 -63.5q-12 -1 -24 -1q-22 0 -48 4q-40 7 -67 15.5t-79 27.5t-79 28q-23 7 -85 22t-96 31t-62 47q-59 65 -102 242q-44 178 -62 394q-16 191 -17 395q1 27 1 55z" />
<glyph unicode="V" horiz-adv-x="1208" d="M14 1571q11 73 60 88q2 1 6 1q20 0 86 -16q79 -20 160 -52t92 -56q4 -10 5.5 -22.5t1 -19t-3 -23.5t-3.5 -21q-2 -12 -14.5 -36t-10.5 -40q11 -81 29.5 -205t61.5 -356t69 -285q34 189 122 485.5t124 497.5q3 12 7 50.5t11 54.5q14 29 28 42.5t40 20.5q4 1 10 1 q22 0 74 -14q66 -18 138.5 -54t94.5 -74q-73 -187 -162.5 -520t-145 -586.5t-54.5 -290.5q-3 -23 -3 -32t3 -29.5t4 -32.5v-13q0 -39 -16 -78q-18 -45 -54 -52q-10 -2 -22 -2q-66 0 -216 49q-178 58 -206 100q-13 20 -15 58t-6 51q-129 408 -189.5 679t-90.5 646 q-1 12 -9 40t-6 46z" />
<glyph unicode="W" horiz-adv-x="1759" d="M32 1576q0 18 5 34q11 37 29 62t45 24q54 -2 170 -63.5t125 -98.5q2 -10 2 -24.5t-1 -23.5t-4 -34t-4 -35q-7 -86 -7 -168q0 -69 5 -135q10 -146 54 -440l286 899q2 8 6 25t8 28.5t11 20.5q24 31 61 36h3q28 -1 162 -65q143 -69 142 -98q0 -24 -6 -156q-4 -92 -4 -198 q0 -69 2 -144q4 -192 31 -346q56 283 133.5 552.5t114.5 356.5q9 43 39 69q24 22 55 22q7 0 14 -1q38 -5 93.5 -23t114 -54t71.5 -76q-70 -127 -135 -318.5t-109.5 -376t-77.5 -357t-48.5 -282.5t-14.5 -131q-3 -16 2.5 -41t3.5 -39q-13 -95 -55 -102h-4q-38 1 -204 73 q-176 78 -188 113q-4 13 -5.5 34.5t-0.5 43.5t0 49q-36 111 -70.5 275.5t-45.5 273.5q-16 -43 -47 -119.5t-47 -120.5t-35 -108.5t-27 -128.5q-7 -56 -6 -118v-17q-4 -19 1 -50t1 -50q-17 -91 -58 -103q-13 -4 -35 -4q-33 0 -87 10q-88 16 -176 56t-109 90q-7 19 -5 42v15 q0 23 -3 62q-97 351 -129 629q-27 235 -28 548q0 58 1 119q-1 7 -5.5 25.5t-7 31t-2.5 30.5z" />
<glyph unicode="X" horiz-adv-x="1302" d="M-34 94.5q-1 14.5 2 25t14 25.5t17.5 22.5t20.5 22.5q5 5 31 27.5t35 40.5l354 600l-317 531q-11 17 -45 43q-36 27 -35 46q-1 21 49 71q50 51 115.5 96.5t99.5 50.5q21 3 42.5 -3.5t31.5 -21.5q8 -11 15 -35t12 -34l231 -410l270 393q7 11 11 34.5t12 35.5 q12 15 30.5 24t30 10.5t39.5 4.5h4q38 0 152 -60q120 -62 127 -98q2 -8 2 -15.5t-2 -15t-3.5 -14t-6.5 -14.5t-8 -13.5t-10 -14t-10 -13t-11 -14t-11 -13.5q-13 -16 -45.5 -34t-44.5 -36l-329 -479l331 -577q9 -17 37.5 -35t36.5 -37q12 -25 17 -40t5 -36t-12 -37 q-24 -33 -122.5 -99.5t-131.5 -70.5q-17 -2 -53 15.5t-47 44.5q-5 13 -11 60t-20 71l-227 385l-233 -400q-10 -18 -12.5 -50t-8.5 -48q-13 -31 -19 -43.5t-22 -28.5t-37 -20q-7 -1 -15 -1q-50 1 -160 49q-126 56 -157 104q-8 14 -9 28.5z" />
<glyph unicode="Y" horiz-adv-x="1306" d="M-18 1481q0 9 4 18t8 15.5t14 16t15.5 14t19.5 15l18 13.5q163 123 227 123h7q33 -4 57.5 -38.5t28.5 -60.5q2 -11 3 -54.5t9 -69.5q28 -150 75.5 -276.5t121.5 -274.5q9 21 48 118t55 134t51.5 113t71 139t79.5 130q8 15 15 45.5t14 38.5q35 40 89 40q10 0 21 -1 q50 -6 151.5 -72t104.5 -96q1 -12 1 -23q0 -31 -9 -60q-14 -40 -41 -52q-4 -2 -11.5 -6.5t-12.5 -7t-9 -2.5q-119 -183 -306.5 -629t-196.5 -534q-2 -17 8 -58q8 -34 8 -58v-9q-5 -56 -24 -102t-46 -50q-4 -1 -8 -1q-34 0 -135 31q-114 34 -152 62q-50 36 -64 68 q-5 11 -5 27q0 25 14 59q9 20 24.5 61.5t44 121.5t52.5 145q-91 188 -123 255t-100.5 216.5t-108 252.5t-65.5 195q-4 11 -23.5 31t-19.5 37z" />
<glyph unicode="Z" horiz-adv-x="1314" d="M-2 233q4 13 19 26.5t39.5 31.5t39.5 33l701 991l-334 -62q-17 -5 -61 -25q-41 -20 -60 -20h-2q-38 2 -122 121q-84 118 -83 167q1 34 43 56t74 25q13 1 39 -2.5t41 -1.5l676 98q15 2 41 13.5t45 11.5h15.5h16t13.5 -0.5t15 -2.5t12.5 -4.5t13.5 -7t12 -10.5 q27 -27 76 -157q32 -84 32 -127q0 -24 -10 -35q-17 -20 -96 -70l-666 -963l394 62q7 4 26 18t35 19q13 4 26 4q26 0 48 -16q66 -48 106 -154q31 -83 31 -130q0 -13 -2 -24q-8 -40 -55.5 -66t-81.5 -26q-38 0 -121 21l-576 -76q-28 -3 -65 -20.5t-64 -29.5t-41 -5 q-17 8 -52 48.5t-69.5 92t-56.5 107.5q-15 39 -15 68q0 11 3 21z" />
<glyph unicode="a" d="M25.5 278.5q0.5 14.5 3.5 30.5q16 77 63 150.5t108 131.5t147 116.5t164 101.5t177 90q0 28 -10 52t-23 32q-4 2 -10 2q-31 1 -133 -47q-122 -58 -172 -100q-15 -5 -29 -22.5t-24 -22.5q-26 -15 -49 -15q-8 0 -15 2q-24 6 -97 73.5t-79 90.5q-6 17 2 44t33 42q6 4 20.5 8 t33.5 9t28 8q3 1 74.5 41.5t169.5 79.5t178 43q26 1 55.5 -14t50.5 -34t54 -51t51 -47q11 -10 68.5 -51t84.5 -73.5t26 -71.5v-775q2 -5 7 -16t7 -17.5t4 -17t1 -20.5q-2 -28 -24 -50t-51 -18q-27 4 -76 13.5t-122 34.5t-85 50q-8 18 3 37t11 23q1 6 4 10t5.5 8.5t4 22 t-0.5 49.5q-20 -14 -43 -49.5t-46 -74t-52.5 -76t-74 -61.5t-98.5 -24q-11 0 -22 2t-19.5 4.5t-19.5 9t-17.5 10t-17.5 13t-16 14t-16.5 16.5t-15.5 16.5t-16.5 18.5t-15.5 17q-12 14 -30.5 34t-29 32t-25 29t-22.5 28t-17.5 26t-13.5 27t-7.5 26.5t-3 29zM274 154 q3 -3 8 -3q24 -1 96 73q86 88 173.5 211.5t116.5 193.5q-57 -22 -102.5 -55.5t-69.5 -62.5t-55 -69t-52 -61q-51 -51 -91 -131q-29 -56 -29 -80q0 -11 5 -16z" />
<glyph unicode="b" horiz-adv-x="1019" d="M31 1622q9 49 59 64q11 3 27 3q51 -1 151 -33q130 -42 152 -87q3 -7 3.5 -14t-1.5 -14.5t-3.5 -12.5t-6 -14l-6.5 -13q-21 -48 -25 -76v-335q154 154 252 154q7 0 14 -1q70 -8 153.5 -71t127.5 -152q48 -107 48 -242q0 -44 -4 -90q-20 -190 -89 -370.5t-152 -284.5 q-1 -3 -3.5 -13.5t-3.5 -14t-3 -12t-4.5 -12.5t-5.5 -10.5t-7.5 -11t-9.5 -8.5q-20 -17 -40 -21t-56 -4q-26 -1 -50 4.5t-48 20.5t-37 24t-41 32.5t-35 29.5q2 -16 8.5 -34t8 -24.5t-2.5 -25.5q-17 -46 -53 -49q-6 -1 -13 -1q-49 -1 -157 31q-122 36 -141 68q-2 4 -3 8t-1 8 t1.5 9.5t2.5 9t4 10t4.5 9t5 9.5l4.5 9q11 18 11 86v1376q0 10 -19 37.5t-16 48.5zM387 172q6 -5 14.5 -14.5t16.5 -15t18 -7.5h5q47 0 113 168q70 177 112 394q29 148 28 238q0 43 -6 73q-78 -32 -176 -125t-125 -158v-553z" />
<glyph unicode="c" horiz-adv-x="921" d="M26 446q-2 34 -1 70q1 96 13 196q18 138 55 252t97 190.5t129 80.5q9 1 19 0q94 1 226 -53q146 -60 198 -131q32 -44 40 -99q5 -31 4 -67q0 -27 -2 -56q-5 -58 -5 -78v-6q4 -54 4 -67q-1 -20 -23 -34t-41 -13q-31 1 -65.5 6.5t-73 16.5t-67.5 32.5t-39 50.5q-7 19 16 50 t20 51q4 9 6 54v15q0 39 -8 79q-10 48 -36 50h-3q-49 0 -88 -126q-40 -130 -54 -289q-7 -84 -7 -162q0 -70 6 -134q12 -137 53 -147q4 -1 8 -1q31 0 73 49q48 55 78.5 112t33.5 72q2 2 3.5 35.5t10.5 52.5q18 34 61 34h7q38 -4 130 -46.5t97 -67.5q4 -19 4 -35 q0 -29 -14 -47q-7 -9 -53 -55q0 -1 -15 -32.5t-22 -44.5t-26.5 -46.5t-35 -52t-42.5 -47t-53 -45.5t-61.5 -32.5t-74.5 -21.5q-26 -5 -53 -5q-35 0 -71 9q-62 15 -104 37.5t-110 67.5q-63 43 -100.5 147t-43.5 231z" />
<glyph unicode="d" horiz-adv-x="1081" d="M47 350q-5 39 -5 80q0 64 12 129q20 105 58.5 209t92.5 190.5t116.5 152t124.5 95.5q17 8 33 10t34 -5t31.5 -14t35 -26t34 -31t39.5 -39l11 -11v335q-4 28 -25 76l-6.5 13t-6 14t-3.5 12.5t-1.5 14.5t3.5 14q21 45 151 87q100 33 151 33q16 0 27 -3q51 -16 60 -64 q3 -21 -16 -48.5t-19 -37.5v-1376q0 -69 10 -86q1 -3 5 -10t6 -11t5 -10.5t4.5 -11t2 -10t-0.5 -10.5t-3 -9q-19 -32 -142 -68q-108 -31 -157 -31q-7 0 -13 1q-36 3 -53 49q-4 11 -4 36q0 55 18 181q-19 -15 -46 -61t-49 -89q-22 -42 -54 -73q-26 -26 -52 -26q-5 0 -10 1 q-128 27 -216.5 91t-129.5 148.5t-53 188.5zM356 430q4 -162 136 -178h2q21 0 45 72q25 75 45 184.5t37 219t27 186.5l9 77q-117 -51 -211 -225q-90 -166 -91 -323q1 -6 1 -13z" />
<glyph unicode="e" horiz-adv-x="909" d="M44 518q0 116 28 236q28 122 76 217.5t123.5 157t164.5 63.5h6q62 0 158 -36q101 -38 172 -114q19 -20 38 -118q16 -83 16 -178v-36q-4 -116 -44 -163q-210 -67 -430 -76q-1 -15 -1 -30q0 -87 25 -181q29 -112 60 -113h1q39 0 93 63q54 64 68 105q0 5 1 13t4 29t7 37.5 t11 31t16 16.5h5q34 0 123 -34q96 -36 114 -64q2 -4 2 -10q-1 -24 -33 -88q-40 -80 -114 -173t-144 -132q-13 -7 -37 -7q-31 0 -81 10q-90 18 -182.5 61t-125.5 87q-59 74 -89 188q-31 116 -31 238zM344 641q50 2 83.5 10.5t64.5 34.5q16 12 25 82q8 60 8 116q-1 8 -1 18 q-2 66 -10 69h-2q-22 -1 -58 -49q-38 -52 -70.5 -132t-39.5 -149z" />
<glyph unicode="f" horiz-adv-x="733" d="M-6 1069q-3 9 -3 19q0 23 18 46q25 33 59 33h147q0 149 5 197q30 294 260 309q14 1 28 1q25 0 51 -3q66 -7 135.5 -63t73.5 -84q1 -6 1 -11q0 -27 -19 -59q-23 -38 -48 -37q-14 1 -38.5 21.5t-42.5 23.5q-19 3 -34.5 -1t-25.5 -15.5t-17 -26t-10.5 -36t-5.5 -41t-2 -45.5 v-45.5t1 -44.5t1 -40h66q22 0 87 -74q64 -73 64 -103q0 -41 -31 -73q-21 -23 -43 -23q-7 0 -14 3q-27 10 -129 10v-809q0 -16 17 -42t14 -44q-6 -32 -29.5 -51.5t-56.5 -21.5h-4q-44 0 -159 39q-120 41 -128 75q-1 18 -0.5 23t7.5 16t8 14q18 44 18 78v725h-70 q-36 0 -87 57.5t-64 102.5z" />
<glyph unicode="g" horiz-adv-x="933" d="M8 -111q-1 19 16.5 30.5t45.5 19.5q11 3 26 3q32 0 84 -13q79 -20 111 -52q16 -16 41.5 -53t49 -56t58.5 -22q22 -2 40 4t30.5 23t21.5 32.5t14.5 45.5t8.5 48.5t4.5 54.5t1.5 50.5v49.5v20q-7 -9 -36 -49.5t-49 -57t-44 -16.5q-49 0 -102.5 19.5t-79.5 41.5 q-88 74 -142.5 186.5t-69.5 233.5q-7 57 -7 116q0 64 9 131q16 127 61 232.5t120 185t168 107.5q13 6 30 3t28.5 -7.5t27 -15t26 -19.5t26.5 -22t28 -21q4 11 11.5 34t12 35t16 24t28.5 14q6 1 14 1q44 0 137 -29q110 -34 125 -58q16 -28 16 -52q0 -11 -4 -22 q-2 -5 -19.5 -37t-17.5 -49v-897q0 -164 -57.5 -274.5t-193.5 -163.5q-116 -44 -213 -44q-141 0 -242 93q-6 6 -20.5 19t-18 16.5t-13 12.5t-14.5 15.5t-13.5 17.5t-18.5 25q-5 9 -33 35.5t-29 50.5zM346 543q0 -128 10 -210.5t45 -172.5q69 107 101 194.5t47 210.5 q8 75 12 132.5t4 125t-13.5 109t-39.5 51.5q-3 1 -7 1q-25 0 -59 -64q-40 -72 -70 -181.5t-30 -195.5z" />
<glyph unicode="h" horiz-adv-x="1021" d="M31 84q3 6 20 21.5t17 29.5v1448q0 16 -16 43t-11 45q11 42 63 55q7 2 18 2q42 0 142 -26q125 -32 137 -66q3 -8 4 -14.5t0 -13.5t-1.5 -11t-4 -14t-4.5 -14q-14 -43 -14 -111v-383q54 70 104.5 108t116.5 38q70 0 180 -49t127 -87q14 -33 25 -95.5t17 -147t10 -165 t5 -180.5q2 -101 2 -161v-64v-74q0 -78 -1 -81q13 -33 15 -42.5t-1 -43.5q-6 -39 -13.5 -52.5t-31.5 -25.5q-17 -8 -52 -8q-45 -1 -121 13q-135 24 -161 54q-4 5 -6.5 10t-2.5 12t0.5 12t3.5 14l4 12t5.5 13.5t5.5 12.5q3 7 14.5 19.5t19 28t7.5 38.5q1 202 1 353 q0 455 -13 460q-9 3 -38.5 -24.5t-66.5 -75.5t-72 -103.5t-59 -115t-24 -103.5v-454q19 -19 23.5 -40t-1.5 -46q-12 -66 -65 -88q-9 -4 -27 -4q-42 -1 -133 19q-130 28 -143 46q-12 18 -12 39q0 17 8 37z" />
<glyph unicode="i" horiz-adv-x="485" d="M31 33q-3 4 -3 11q0 18 21 52q8 13 13.5 51t5.5 62v860q-1 5 -14 28.5t-11 45.5q3 21 17.5 35.5t35.5 19.5q11 3 26 3q50 0 148 -32q126 -41 152 -73q10 -14 5.5 -38t-19.5 -36q-11 -10 -19 -33t-8 -43v-823q0 -20 23.5 -50.5t25.5 -45.5q1 -9 1 -18q0 -62 -52 -77 q-13 -4 -33 -4q-52 0 -152 26q-140 36 -163 79zM39 1341q-4 7 -4 23q-1 19 5 49q10 56 32 96q15 26 29 40t34 18q7 1 17 1q50 0 148 -36q117 -44 136 -90q7 -22 2.5 -32.5t-12 -23t-6.5 -18.5q7 -16 7 -41q0 -17 -3 -37q-7 -51 -43 -67q-19 -8 -49 1.5t-67 26.5t-56 21 q-51 11 -73 16t-55 20t-42 33z" />
<glyph unicode="j" horiz-adv-x="522" d="M-297 -170q-3 8 -3 16q0 30 40 54q7 4 28 4q27 0 75 -6q87 -13 130 -35q9 -4 19.5 -19.5t20.5 -30t32.5 -26.5t54.5 -12q29 0 29 254v1040q-1 5 -14 28.5t-11 45.5q3 21 18 35.5t36 19.5q11 3 26 3q51 0 148 -32q125 -41 151 -73q10 -14 5.5 -38t-19.5 -36 q-11 -10 -19 -33t-8 -43v-1003q0 -1 1.5 -31t1.5 -53.5t-5 -63t-15.5 -69.5t-32.5 -62t-54 -51q-28 -19 -90 -19q-14 0 -31 2q-86 5 -156 17t-102 22q-50 15 -144.5 81t-111.5 114zM100 1341q-4 7 -4 23q0 19 6 49q9 56 31 96q30 51 64 58q7 1 17 1q49 0 148 -36 q117 -44 136 -90q7 -22 2.5 -32.5t-12.5 -23t-7 -18.5q7 -16 7 -41q0 -16 -3 -37q-7 -51 -43 -67q-19 -8 -49 1.5t-67 26.5t-56 21q-51 11 -73 16t-55 20t-42 33z" />
<glyph unicode="k" horiz-adv-x="1007" d="M70 41v1520q0 34 20 73t47 47q8 3 20 3q41 0 127 -30q112 -39 124 -69q5 -11 5 -23q0 -18 -12 -38q-20 -32 -20 -54v-710l303 416q23 34 68 38h3q39 0 109 -52q76 -56 76 -110q0 -18 -41 -80q-42 -64 -117.5 -170t-115.5 -167l266 -367q13 -17 37.5 -30.5t42.5 -24.5 q19 -12 18 -31q0 -24 -34 -79q-36 -60 -88 -110q-48 -46 -78 -46h-5q-27 4 -75.5 54.5t-105.5 131t-102 149.5t-89 142q-1 -1 -27.5 -29t-42.5 -43v-241q0 -10 5.5 -36.5t6.5 -39.5t1 -24q0 -51 -29 -68q-16 -11 -50 -11q-10 0 -20 1q-49 4 -99.5 15t-89 37t-38.5 56z" />
<glyph unicode="l" horiz-adv-x="466" d="M51 57q0 9 8.5 19.5t8.5 34.5v1443q0 12 -8 25.5t-7 26.5q1 27 24.5 43t51.5 22q13 3 35 3q40 0 110 -10q108 -14 144 -52q11 -11 12.5 -26.5t-3 -27t-10.5 -27t-7 -22.5q-23 -82 -25 -127v-1257q0 -24 12.5 -43.5t12.5 -32.5q0 -52 -13 -94.5t-37 -48.5h-5 q-25 0 -125 27q-112 31 -134 51q-45 36 -45 73z" />
<glyph unicode="m" horiz-adv-x="1622" d="M31 84q3 6 20 21.5t17 29.5v952q0 16 -16 43.5t-11 45.5q11 42 63 55q7 2 18 2q42 1 142 -25q125 -32 137 -67q3 -8 4 -14.5t0 -14t-1.5 -11t-4 -14.5t-4.5 -14q-14 -43 -14 -110v-21q19 63 50.5 123.5t78 108t92.5 47.5q66 0 174 -50.5t133 -85.5q6 -8 10.5 -18t7.5 -18 t7 -25t5 -24.5t5.5 -30.5t5.5 -31q6 12 23 45t28 53.5t29.5 52.5t34.5 52t35 40t39.5 30t40.5 10q70 0 180 -49t127 -87q14 -33 25 -96t17 -146.5t10 -165t5 -180t1 -161t-0.5 -137.5t-0.5 -82q14 -34 16 -42t-1 -44q-6 -38 -14 -52t-32 -26q-17 -8 -52 -8q-45 -1 -121 13 q-134 24 -160 54q-4 5 -6.5 10t-2.5 12t0.5 12t3.5 14l4 12t5.5 13.5t5.5 12.5q3 7 14.5 19.5t19 28t7.5 38.5q1 202 1 353q0 455 -13 460q-9 3 -37 -26t-62.5 -81.5t-67.5 -114.5t-55 -134.5t-23 -132.5v-402q11 -38 15 -79q-6 -35 -16 -48t-37 -26q-17 -8 -52 -8 q-45 -1 -121 13q-135 24 -161 54q-7 8 -7.5 19.5t2 18.5t10 23t9.5 21q3 7 13.5 20.5t17 30t6.5 39.5q1 202 1 353q0 455 -13 460h-2q-17 0 -77 -85q-64 -90 -122.5 -213.5t-58.5 -194.5v-383q19 -19 23.5 -40t-1.5 -46q-12 -66 -65 -88q-9 -4 -27 -4q-42 -1 -133 19 q-130 28 -143 46q-12 18 -12 39q0 17 8 37z" />
<glyph unicode="n" horiz-adv-x="1021" d="M31 84q3 6 20 21.5t17 29.5v952q0 16 -16 43.5t-11 45.5q11 42 63 55q7 2 18 1q42 0 142 -24q125 -32 137 -67q3 -8 4 -14.5t0 -14t-1.5 -11t-4 -14.5t-4.5 -14q-14 -43 -14 -110v-21q19 63 50.5 123.5t78 108t92.5 47.5q70 0 180 -49t127 -87q14 -33 25 -95.5t17 -147 t10 -165t5 -180.5q2 -101 2 -161v-64v-74q0 -78 -1 -81q13 -33 15 -42.5t-1 -43.5q-6 -39 -13.5 -52.5t-31.5 -25.5q-17 -8 -52 -8q-45 -1 -121 13q-135 24 -161 54q-4 5 -6.5 10t-2.5 12t0.5 12t3.5 14l4 12t5.5 13.5t5.5 12.5q3 7 14.5 19.5t19 28t7.5 38.5q1 202 1 353 q0 455 -13 460h-2q-17 0 -77 -85q-64 -90 -122.5 -213.5t-58.5 -194.5v-383q19 -19 23.5 -40t-1.5 -46q-12 -66 -65 -88q-9 -4 -27 -4q-42 -1 -133 19q-130 28 -143 46q-12 18 -12 39q0 17 8 37z" />
<glyph unicode="o" horiz-adv-x="983" d="M27 548q0 134 27 258q27 126 90.5 232t154.5 158q11 6 25.5 9.5t33 3t34 -1.5t38 -5t34 -6.5t33 -7.5t25.5 -6q14 -3 94.5 -6.5t108.5 -16.5q61 -29 108 -91t73 -143t40 -177q10 -69 10 -139q0 -28 -2 -57q-6 -99 -21.5 -195t-47.5 -178.5t-73 -144.5q-40 -60 -96 -92 q-44 -25 -92 -26q-12 0 -24 2q-34 4 -90.5 17.5t-81.5 17.5q-64 8 -152 31q-77 22 -134 106q-58 84 -86 200q-29 118 -29 258zM346 584q0 -148 36.5 -298t88.5 -161l10 -2q46 0 88 100q57 135 67 337q2 32 2 63q0 189 -60 285q-27 46 -66 63q-8 4 -17 4q-31 0 -61 -50 q-40 -63 -64 -160t-24 -181z" />
<glyph unicode="p" d="M43 -328q-3 21 16 48.5t19 37.5v1233q0 69 -10 86q-1 3 -5 10t-6 11t-5 10.5t-4.5 11t-2 10t0.5 10.5t3 9q19 32 141 67q108 32 157 32q7 0 13 -1q37 -3 54 -49q3 -10 3 -33q0 -54 -18 -184q19 15 46 64.5t49.5 95.5t53.5 80q27 29 53 29q5 0 9 -1q128 -27 216.5 -92 t129.5 -151.5t53 -191.5q5 -40 5 -80q0 -66 -12 -132q-20 -107 -58.5 -212.5t-92.5 -194t-116.5 -154.5t-124.5 -96q-17 -8 -33 -10t-33.5 5t-30.5 13.5t-34.5 25.5t-33.5 30.5t-39 38.5l-13 13v-192q4 -28 25 -76q2 -4 6 -13l6 -13.5t4 -12t1.5 -14.5t-3.5 -14 q-21 -45 -152 -88q-99 -32 -151 -32q-16 0 -27 3q-50 15 -59 63zM399 160q117 52 211 226q91 166 91 322v13q-4 162 -136 178q-24 3 -47 -21.5t-45 -82.5t-38 -143t-26 -212t-10 -280z" />
<glyph unicode="q" horiz-adv-x="1019" d="M28 442q20 191 88.5 371.5t151.5 284.5q1 3 3.5 13.5t3.5 14t3 12t4.5 12.5t5.5 10.5t7.5 11t9.5 8.5q14 12 31 17.5t28 6t37 0.5q26 1 49.5 -4.5t48.5 -20.5t37 -23.5t41 -32.5t35 -29q-2 16 -8.5 34t-8 24.5t2.5 25.5q17 46 53 49q6 1 13 1q49 0 157 -32 q123 -36 142 -68q3 -5 3.5 -11t0 -11t-4 -12.5t-5.5 -12t-7 -13t-6 -11.5q-10 -17 -10 -86v-1229q0 -10 19 -37.5t16 -48.5q-9 -48 -60 -64q-11 -3 -27 -3q-51 0 -151 33q-130 42 -151 87q-3 7 -3.5 14t1.5 14.5t3.5 12.5t6 14l6.5 13q20 45 24 76v188q-155 -155 -252 -155 q-7 0 -14 1q-70 8 -153 71.5t-127 152.5q-49 107 -49 244q0 42 5 87zM311 123q78 32 176 125t125 158v552q-6 5 -14.5 14.5t-16.5 15t-18 7.5h-5q-46 0 -112 -167q-70 -177 -112 -394q-29 -148 -29 -238q0 -43 6 -73z" />
<glyph unicode="r" horiz-adv-x="798" d="M37 63q-3 9 -3 19q0 23 15 55q19 38 19 72v811q-2 12 -13 48.5t-12 61.5q-2 29 15.5 55.5t43.5 33.5q27 7 61 7q49 0 113 -15q110 -26 130 -60q8 -21 4.5 -40t-13.5 -30q-6 -7 -8.5 -15t-4 -18t-3.5 -16v-98q15 24 58.5 107t76 132.5t55.5 53.5q6 1 12 1q45 0 125 -54 q92 -62 103 -103q6 -24 -7.5 -38.5t-35.5 -24t-27 -17.5q-15 -21 -81 -121t-150.5 -229.5t-118.5 -179.5q0 -324 4 -338q0 -11 12 -35.5t13 -40.5v-15q0 -67 -33 -81q-21 -11 -56 -11q-13 0 -28 2q-55 6 -110 20t-100.5 42t-55.5 59z" />
<glyph unicode="s" horiz-adv-x="815" d="M20 289q-4 25 8 46t31 27q11 4 37 4q41 0 118 -9q127 -14 140 -27q9 -11 14.5 -65.5t16.5 -100t33 -45.5q32 0 44 71q5 26 4 54q0 47 -14 99q-22 82 -73 106q-82 39 -129.5 66t-92 62.5t-66 76t-34 95.5t-12.5 130q0 116 61 219.5t146 124.5q4 1 11 1q29 0 97 -16 q84 -18 144 -41q22 -10 64 -22.5t71.5 -27t48.5 -38.5q21 -26 32.5 -70t13.5 -75q2 -25 2 -67v-22q0 -58 -1 -67q2 -10 10 -32t7 -39q-2 -29 -16.5 -50.5t-41.5 -25.5h-8q-32 1 -109 25q-87 28 -112 61q-6 16 -6 55q-1 17 1 38q2 35 2 71.5t-2 74.5q-4 76 -20 76 q-24 0 -49 -56t-38 -126q-8 -46 -8 -90q0 -24 2 -48q7 -68 40 -87q43 -26 106 -59.5t96.5 -52.5t75 -51.5t62 -65.5t35 -86t14.5 -122q0 -113 -74.5 -181.5t-209.5 -69.5q-24 -1 -46.5 3.5t-51 13.5t-48.5 13q-10 2 -31 6t-31 6t-25 7t-27.5 13t-24.5 19q-32 30 -59.5 69 t-57 90t-41.5 69q-3 5 -15.5 18.5t-13.5 24.5z" />
<glyph unicode="t" horiz-adv-x="733" d="M-6 1069q-3 9 -3 19q0 22 18 46q25 32 59 33h147v185q-8 11 -12 19t-7.5 17t-7.5 17q-3 4 -3.5 16.5t1 27t10.5 27.5t25 17q21 5 52 5q53 0 137 -16q132 -26 172 -57q19 -18 10 -50t-33 -48q-2 -1 -8 -4.5t-9 -7t-7 -13t-7 -24.5v-111h66q22 0 87 -74q64 -73 64 -103 q-1 -41 -31 -73q-21 -23 -43 -23q-7 0 -14 3q-27 10 -129 10v-809q0 -16 17 -42t14 -44q-6 -32 -29.5 -51.5t-56.5 -21.5h-4q-45 0 -159 39q-120 41 -128 75q-1 18 -0.5 23t7.5 16t8 14q18 44 18 78v725h-70q-36 0 -87 57.5t-64 102.5z" />
<glyph unicode="u" horiz-adv-x="1021" d="M34 1089.5q-2 9.5 1 43.5q6 38 13.5 51.5t31.5 25.5q17 8 52 8q45 0 121 -14q135 -24 161 -53q4 -5 6.5 -10.5t2 -12t-1 -11.5t-3 -13.5t-4.5 -13l-6 -13.5t-5 -12q-3 -7 -14.5 -19.5t-19 -28t-7.5 -38.5q-1 -175 -1 -313q0 -495 14 -500h2q17 0 77 85q64 90 122.5 213.5 t58.5 194.5v383q-19 19 -24 40t1 46q12 67 66 89q9 4 27 3q42 0 133 -19q130 -28 143 -46q12 -18 12 -39q0 -17 -8 -37q-3 -6 -20 -21.5t-17 -29.5v-952q0 -16 16 -43t11 -45q-11 -42 -64 -56q-7 -2 -17 -2q-42 0 -142 26q-126 32 -138 67q-4 10 -4 19t0.5 13.5t5 17.5 t5.5 17q14 43 14 111v20q-19 -63 -50.5 -123t-78 -107.5t-92.5 -47.5q-70 0 -180.5 48.5t-127.5 86.5q-14 33 -25 96t-17 146.5t-10 165.5t-5 180.5t-1 161t0.5 137.5t0.5 82q-13 33 -15 42.5z" />
<glyph unicode="v" horiz-adv-x="1019" d="M10 1171q7 56 43 68q3 1 8 1q31 0 150 -29q139 -34 151 -60q4 -10 4 -26.5t-4 -39.5q-1 -9 -10 -27.5t-8 -29.5q9 -61 22.5 -154t46 -266.5t52.5 -212.5q23 128 66.5 301.5t79.5 301t38 135.5q1 6 5 35t10 40q9 23 19.5 33t29.5 16q3 1 7 1q31 0 129 -42q111 -46 136 -88 q-80 -204 -177 -600.5t-95 -447.5q-5 -6 -1.5 -34.5t3.5 -35.5q1 -6 1 -13q0 -27 -12 -55q-14 -34 -40 -40q-7 -1 -17 -1q-56 -1 -205 39q-175 46 -196 78q-9 17 -10.5 45.5t-4.5 38.5q-95 296 -141.5 507.5t-69.5 496.5q-1 9 -6.5 30t-3.5 35z" />
<glyph unicode="w" horiz-adv-x="1425" d="M22 1113q0 8 3 34q9 29 22 46.5t33 16.5q44 -2 151 -44.5t113 -69.5q2 -8 2 -18.5t-0.5 -18t-2.5 -24.5t-3 -27q6 -50 14.5 -150.5t20 -200t28.5 -206.5l142 673q9 46 18 56q16 22 45 28h1q20 0 123 -50q107 -52 108 -71q2 -46 30.5 -255.5t59.5 -380.5q120 590 162 684 q6 32 28.5 51.5t53.5 15.5q49 -7 136.5 -48.5t102.5 -86.5q-96 -260 -188 -616.5t-88 -401.5q-2 -12 1.5 -31t2.5 -28q-9 -73 -41 -78h-7q-37 0 -173 34q-150 38 -160 64q-4 9 -5 21.5t0 38.5t1 34q-25 76 -51.5 242.5t-36.5 267.5q-13 -68 -43.5 -189t-51 -211.5 t-20.5 -131.5q-2 -13 0.5 -38t-0.5 -38q-12 -68 -43 -78q-10 -3 -28 -3q-26 1 -66 7q-68 10 -137.5 38.5t-85.5 66.5q-5 15 -4 32.5t-3 57.5q-14 72 -45.5 232t-44.5 229.5t-31.5 199.5t-31.5 267q-1 4 -6 27t-5 31z" />
<glyph unicode="x" horiz-adv-x="1118" d="M-14 41q-7 11 -7 24q0 30 41 68q4 4 23 22t27 31l278 424l-252 394q-6 12 -32 30q-27 19 -27 34q1 16 51 54q52 40 112.5 73.5t86.5 37.5q16 3 32 -2t23 -17q5 -7 10 -25t10 -26l179 -307l196 295q5 8 9 25t10 26q4 6 10 10.5t10 7t13 5t12 3t14.5 2t13.5 1.5h3 q32 0 142 -45q114 -47 120 -72q-1 -12 1.5 -15.5t-2.5 -14.5t-5.5 -13.5t-8 -13t-9.5 -13t-10.5 -13t-10.5 -13.5q-10 -13 -35.5 -27t-32.5 -24l-260 -349l287 -419q12 -21 30.5 -32t24.5 -24q16 -33 16 -57q0 -16 -8 -27q-17 -23 -115.5 -73.5t-126.5 -55.5 q-14 0 -40.5 12.5t-34.5 32.5q-4 10 -8.5 45.5t-14.5 55.5l-190 289l-181 -295q-7 -13 -8.5 -37t-7.5 -37q-8 -21 -13 -32.5t-17 -23t-27 -14.5q-5 -1 -12 -1q-43 -1 -147 37q-120 44 -142 79z" />
<glyph unicode="y" horiz-adv-x="1093" d="M-27 1050q0 17 62 58q64 42 141 72q50 18 79 18q17 0 28 -6q37 -20 47 -70q8 -36 24 -88l181 -497l192 512q4 12 11.5 40t12.5 42t17 29.5t29 21.5q22 6 48 6t57 -6q60 -11 116 -37.5t63 -50.5q4 -13 4 -27q0 -34 -24 -70q-4 -6 -24.5 -29t-26.5 -42l-408 -1176 q-4 -14 -2.5 -36t-1.5 -36q-14 -61 -29 -75q-7 -7 -16 -9q-11 -2 -25 -2q-44 0 -117 24q-96 32 -132 67q-28 26 -28 65q0 22 9 47q4 13 24.5 38t24.5 44l68 234l-332 815q-5 14 -26 31t-27 30q-19 40 -19 63z" />
<glyph unicode="z" horiz-adv-x="1019" d="M-4 162q3 8 14 17.5t29.5 23.5t30.5 26l499 719l-225 -49q-10 -3 -44 -18t-48 -13q-27 0 -85 95q-56 92 -56 130q0 25 31 43q30 16 57 21q10 0 28.5 -3t30.5 -3l506 74q7 2 28 10t37 8q3 0 19 0.5t21 0t15.5 -5t18.5 -13.5q23 -23 71 -119q33 -68 33 -100q0 -13 -6 -21 q-23 -23 -71 -49l-500 -700l270 24q8 4 21.5 13t23.5 12q36 9 56 -6q49 -37 79 -116q24 -64 24 -102q0 -9 -1 -16q-7 -29 -42.5 -48.5t-59.5 -19.5q-14 0 -26 1.5t-32.5 6.5t-33.5 7l-406 -45q-24 -3 -70 -25t-59 -16q-19 10 -64 56q-46 46 -85 106q-31 48 -31 79q0 8 2 15z " />
<glyph unicode="~" d="M109 940q3 11 11 18.5t21.5 11t22.5 5t29 2.5t26 2q32 2 85.5 28t88.5 27q39 3 79.5 -20t81.5 -47t79 -23q19 0 46 14t45 28l17 13q55 28 113 11q29 -8 67 -89.5t29 -119.5q-1 -5 -4 -9t-7.5 -7t-9.5 -5t-12 -3t-12 -2t-14 -1h-13.5h-13.5h-12q-34 0 -91 -32t-104 -33 q-37 -1 -73 24t-71.5 49t-72.5 21q-21 -1 -68.5 -29.5t-78.5 -34.5q-4 -2 -11.5 -6t-11.5 -6t-11 -2t-15 4q-31 18 -58 50.5t-69 107.5q-16 26 -8 53z" />
<glyph unicode="&#xa2;" horiz-adv-x="860" d="M53.5 671.5q-5.5 107.5 9.5 225.5t47 215t83 162t110 69q85 5 209 -46t166 -111q27 -37 34 -83.5t2.5 -103.5t-3.5 -71q4 -47 2 -62q0 -13 -19 -25t-35 -12q-64 2 -128.5 23.5t-79.5 67.5q-6 17 13.5 43t16.5 43q3 7 5.5 46t-6 80t-31.5 42q-43 4 -77 -106.5t-45.5 -246 t-1 -252.5t45.5 -125q28 -5 68.5 42t66.5 94.5t29 60.5q2 3 3 31t9 45q17 31 57 28q32 -2 110.5 -38.5t82.5 -57.5q12 -45 -9 -69q-12 -15 -45 -48q-1 -2 -15 -32t-23 -44.5t-28 -46t-38.5 -51t-46 -42.5t-59.5 -37.5t-70 -20.5q-52 -8 -105.5 4.5t-88.5 31.5t-93 56 q-54 37 -85.5 125.5t-37 196zM252 12q-7 15 1.5 62.5t27.5 81.5q13 23 24.5 34t28.5 15q43 7 110.5 -15.5t83.5 -60.5q7 -19 -3.5 -38.5t-10.5 -22.5q8 -19 4 -68q-6 -40 -37 -57q-13 -5 -26.5 -5.5t-22 1t-26.5 7t-29 7.5q-105 23 -125 59zM298.5 1492q8.5 48 27.5 83 q25 42 55 49q42 7 109 -15t83 -61q8 -19 -3.5 -38t-10.5 -23q9 -18 4 -66q-7 -44 -37 -57q-13 -6 -26 -6.5t-22 1.5t-26.5 7t-29.5 8q-52 11 -82 23.5t-41 36.5q-9 10 -0.5 58z" />
<glyph unicode="&#xa9;" horiz-adv-x="1433" d="M17.5 796.5q-1.5 178.5 41 341.5t141.5 300.5t240 201.5q20 9 44.5 -6t33.5 -12q46 17 92.5 21.5t96 -4t84 -18t91 -28t83.5 -26.5q120 -34 209.5 -122.5t137 -207t64 -260t0 -282.5t-64.5 -273.5t-120.5 -234t-177 -163t-225.5 -61.5q-23 0 -43 2t-43.5 8t-36 9.5 t-44 13.5t-43.5 14q-32 9 -85 34t-87 32q-120 25 -209.5 133.5t-133.5 258.5t-45.5 328.5zM327.5 625q8.5 -207 94.5 -351.5t227 -144.5q151 0 272 144.5t166.5 351.5t38.5 413.5t-113 351t-286 144.5q-134 0 -236 -144.5t-137 -351t-26.5 -413.5zM471.5 802q4.5 97 24 189 t61 155t90.5 66q60 5 147.5 -31t118.5 -79q19 -26 24 -58.5t2 -74t-3 -49.5q0 -7 1.5 -21.5t0.5 -21.5q-1 -10 -14 -18.5t-25 -8.5q-128 6 -147 63q-4 12 10 31t12 31q2 6 3.5 33t-4 56t-21.5 30q-41 3 -68.5 -122.5t-24.5 -255t37 -136.5q28 -6 70 55.5t45 81.5q2 2 3 22.5 t5 30.5q14 24 41 21q23 -2 78 -27t59 -41q8 -32 -6 -49q-5 -6 -10.5 -11.5t-12 -11.5t-10.5 -10q-1 -2 -7 -15l-9 -19.5t-11 -22t-14 -24.5t-16.5 -23.5t-20.5 -24.5t-23.5 -22t-27.5 -19.5t-31 -14.5t-36 -10q-54 -8 -100 9.5t-103 56.5q-46 30 -69 111.5t-18.5 178.5z" />
<glyph unicode="&#xad;" horiz-adv-x="1007" d="M84 840q-3 36 22 67t56 37q7 4 58 0.5t73 -2.5q3 0 89 5.5t178.5 10.5t178.5 3.5t101 -13.5q41 -33 70.5 -138.5t17.5 -147.5q-8 -27 -39.5 -37.5t-65.5 -8.5q-12 1 -59 14t-78 11h-313q-21 -1 -52.5 -22t-54.5 -19q-30 3 -48 21t-36 55.5t-28 52.5q-7 9 -22.5 28.5 t-24 30.5t-16 26t-7.5 26z" />
<glyph unicode="&#xae;" horiz-adv-x="1433" d="M17.5 796.5q-1.5 178.5 41 341.5t141.5 300.5t240 201.5q20 9 44.5 -6t33.5 -12q46 17 92.5 21.5t96 -4t84 -18t91 -28t83.5 -26.5q120 -34 209.5 -122.5t137 -207t64 -260t0 -282.5t-64.5 -273.5t-120.5 -234t-177 -163t-225.5 -61.5q-23 0 -43 2t-43.5 8t-36 9.5 t-44 13.5t-43.5 14q-32 9 -85 34t-87 32q-120 25 -209.5 133.5t-133.5 258.5t-45.5 328.5zM327.5 625q8.5 -207 94.5 -351.5t227 -144.5q151 0 272 144.5t166.5 351.5t38.5 413.5t-113 351t-286 144.5q-134 0 -236 -144.5t-137 -351t-26.5 -413.5zM465 485q0 5 2 12.5 t2 20.5v619q0 5 -2 10t-2 8q0 10 11.5 19.5t25.5 11.5q11 2 50 -9t56 -10t45 16.5t61.5 26.5t69.5 4q15 -3 28 -10t19 -11.5t21 -20t20 -19.5q6 -5 22.5 -20t22 -21.5t15.5 -19t13.5 -25t4.5 -27.5q3 -57 -41 -122t-141 -152l170 -145q4 -3 13.5 -6.5t11.5 -4.5 q17 -9 20 -14q8 -15 -32.5 -77t-67.5 -62q-32 3 -47 32q-2 3 -6 12.5t-9 14.5q-157 125 -194 158v-148q0 -6 14 -41q4 -13 -7 -25t-28 -14q-28 -2 -84.5 11t-56.5 28zM627 854q46 19 117.5 112.5t46.5 116.5q-14 12 -66 -19t-98 -69v-141z" />
<glyph unicode="&#xc0;" horiz-adv-x="1142" d="M41 78q-4 18 11 62t41.5 109t37.5 103q-12 14 -18.5 22.5t-12 26t-2.5 37.5q3 10 28 28t49 31l24 13l211 723q7 27 4.5 56.5t-4.5 40.5t12 30q17 17 114.5 0.5t195.5 -48t120 -55.5q5 -98 35 -311.5t87.5 -473.5t117.5 -378q-4 -24 -5 -50.5t-3.5 -40.5t-10.5 -26 q-31 -16 -136.5 14t-143.5 72q-11 13 -18.5 51t-19 104.5t-30.5 125.5q-62 -8 -182 -45t-156 -61q-49 -140 -65 -175q-3 -10 -6.5 -29t-9.5 -29t-23 -19q-25 -14 -131.5 31.5t-110.5 60.5zM387 1710q14 35 97 61t124 19q10 -2 17 -22.5t13 -48t11 -36.5q10 -18 46 -68 t63 -90.5t24 -47.5q-3 -5 -7 -9.5t-11 -8.5t-12.5 -7.5t-16 -7l-16.5 -5.5t-18.5 -5t-17.5 -4.5t-18.5 -4.5t-17.5 -4q-13 -3 -31.5 -10t-30 -12t-28.5 -7.5t-27 3.5q-11 5 -20.5 32.5t-11.5 47.5q-1 6 -20.5 42t-35.5 71t-12 44q1 4 -25 32t-18 46zM485 545 q32 14 64.5 22.5t69.5 15.5t45 9q0 1 -11 54.5t-16 84t-12.5 95t-10.5 128.5q-32 -77 -78.5 -223.5t-50.5 -185.5z" />
<glyph unicode="&#xc1;" horiz-adv-x="1142" d="M41 78q-4 18 11 62t41.5 109t37.5 103q-12 14 -18.5 22.5t-12 26t-2.5 37.5q3 10 28 28t49 31l24 13l211 723q7 27 4.5 56.5t-4.5 40.5t12 30q17 17 114.5 0.5t195.5 -48t120 -55.5q5 -98 35 -311.5t87.5 -473.5t117.5 -378q-4 -24 -5 -50.5t-3.5 -40.5t-10.5 -26 q-31 -16 -136.5 14t-143.5 72q-11 13 -18.5 51t-19 104.5t-30.5 125.5q-62 -8 -182 -45t-156 -61q-49 -140 -65 -175q-3 -10 -6.5 -29t-9.5 -29t-23 -19q-25 -14 -131.5 31.5t-110.5 60.5zM463 1489q-3 7 14.5 35.5t45 66.5t36.5 56q5 8 14 36t19 48t20 22q42 7 109.5 -12.5 t81.5 -54.5q8 -18 -18 -46t-25 -32q6 -12 -18 -59t-25 -50q-2 -20 -12 -47t-21 -33q-24 -4 -36 -1.5t-39 14t-42 14.5q-9 2 -33.5 7t-33 7.5t-20 10t-17.5 18.5zM485 545q32 14 64.5 22.5t69.5 15.5t45 9q0 1 -11 54.5t-16 84t-12.5 95t-10.5 128.5q-32 -77 -78.5 -223.5 t-50.5 -185.5z" />
<glyph unicode="&#xc2;" horiz-adv-x="1142" d="M41 78q-4 18 11 62t41.5 109t37.5 103q-12 14 -18.5 22.5t-12 26t-2.5 37.5q3 10 28 28t49 31l24 13l211 723q7 27 4.5 56.5t-4.5 40.5t12 30q17 17 114.5 0.5t195.5 -48t120 -55.5q5 -98 35 -311.5t87.5 -473.5t117.5 -378q-4 -24 -5 -50.5t-3.5 -40.5t-10.5 -26 q-31 -16 -136.5 14t-143.5 72q-11 13 -18.5 51t-19 104.5t-30.5 125.5q-62 -8 -182 -45t-156 -61q-49 -140 -65 -175q-3 -10 -6.5 -29t-9.5 -29t-23 -19q-25 -14 -131.5 31.5t-110.5 60.5zM295 1440q-7 18 14.5 51.5t56 82.5t48.5 87q2 4 6 19.5t9 27.5t11 18q16 16 110 38 t118 12q12 -4 15 -13.5t5 -24.5t12 -28q4 -8 35.5 -38.5t73.5 -82t70 -110.5q-15 -29 -74 -55t-84 -17q-17 6 -22.5 14.5t-10 22.5t-16.5 26q-3 4 -11.5 20.5t-16.5 28t-28 28t-49 30.5q-12 -23 -26.5 -45.5t-22.5 -33.5l-8 -11q-4 -6 -11 -35.5t-14 -32.5 q-33 -23 -107.5 -11.5t-82.5 32.5zM485 545q32 14 64.5 22.5t69.5 15.5t45 9q0 1 -11 54.5t-16 84t-12.5 95t-10.5 128.5q-32 -77 -78.5 -223.5t-50.5 -185.5z" />
<glyph unicode="&#xc3;" horiz-adv-x="1142" d="M41 78q-4 18 11 62t41.5 109t37.5 103q-12 14 -18.5 22.5t-12 26t-2.5 37.5q3 10 28 28t49 31l24 13l211 723q7 27 4.5 56.5t-4.5 40.5t12 30q17 17 114.5 0.5t195.5 -48t120 -55.5q5 -98 35 -311.5t87.5 -473.5t117.5 -378q-4 -24 -5 -50.5t-3.5 -40.5t-10.5 -26 q-31 -16 -136.5 14t-143.5 72q-11 13 -18.5 51t-19 104.5t-30.5 125.5q-62 -8 -182 -45t-156 -61q-49 -140 -65 -175q-3 -10 -6.5 -29t-9.5 -29t-23 -19q-25 -14 -131.5 31.5t-110.5 60.5zM100 1622q3 11 11 18.5t22 11t23 5t29 2.5t26 2q32 2 85.5 28t88.5 27 q39 3 79.5 -20t81.5 -47t79 -23q19 0 46 14t45 28l17 13q55 28 113 11q29 -8 67 -89.5t29 -119.5q-1 -5 -4 -9t-7.5 -7t-9.5 -5t-12 -3t-12 -2t-14 -1h-13.5h-13.5h-12q-34 0 -91 -32t-104 -33q-37 -1 -73 24t-71.5 49t-72.5 21q-21 -1 -68.5 -29.5t-78.5 -34.5 q-4 -2 -11.5 -6t-11.5 -6t-11 -2t-15 4q-31 18 -58 50.5t-69 107.5q-17 27 -9 53zM485 545q32 14 64.5 22.5t69.5 15.5t45 9q0 1 -11 54.5t-16 84t-12.5 95t-10.5 128.5q-32 -77 -78.5 -223.5t-50.5 -185.5z" />
<glyph unicode="&#xc4;" horiz-adv-x="1142" d="M41 78q-4 18 11 62t41.5 109t37.5 103q-12 14 -18.5 22.5t-12 26t-2.5 37.5q3 10 28 28t49 31l24 13l211 723q7 27 4.5 56.5t-4.5 40.5t12 30q17 17 114.5 0.5t195.5 -48t120 -55.5q5 -98 35 -311.5t87.5 -473.5t117.5 -378q-4 -24 -5 -50.5t-3.5 -40.5t-10.5 -26 q-31 -16 -136.5 14t-143.5 72q-11 13 -18.5 51t-19 104.5t-30.5 125.5q-62 -8 -182 -45t-156 -61q-49 -140 -65 -175q-3 -10 -6.5 -29t-9.5 -29t-23 -19q-25 -14 -131.5 31.5t-110.5 60.5zM262 1503q-8 15 20.5 86t49.5 105q6 9 16 13t25 2.5t28 -4.5t33 -8t31 -7 q65 -8 72 -43q4 -17 -20.5 -65t-24.5 -77q-2 -5 -0.5 -19t0.5 -20q-7 -46 -27 -55q-24 -9 -109 30.5t-94 61.5zM485 545q32 14 64.5 22.5t69.5 15.5t45 9q0 1 -11 54.5t-16 84t-12.5 95t-10.5 128.5q-32 -77 -78.5 -223.5t-50.5 -185.5zM606 1503q-8 15 20.5 86t49.5 105 q6 9 16 13t25 2.5t28 -4.5t33 -8t31 -7q65 -8 72 -43q4 -17 -20.5 -65t-24.5 -77q-2 -5 -0.5 -19t0.5 -20q-7 -46 -27 -55q-24 -9 -109 30.5t-94 61.5z" />
<glyph unicode="&#xc5;" horiz-adv-x="1142" d="M41 78q-4 18 11 62t41.5 109t37.5 103q-12 14 -18.5 22.5t-12 26t-2.5 37.5q3 10 28 28t49 31l24 13l211 723q7 27 4.5 56.5t-4.5 40.5t12 30q17 17 114.5 0.5t195.5 -48t120 -55.5q5 -98 35 -311.5t87.5 -473.5t117.5 -378q-4 -24 -5 -50.5t-3.5 -40.5t-10.5 -26 q-31 -16 -136.5 14t-143.5 72q-11 13 -18.5 51t-19 104.5t-30.5 125.5q-62 -8 -182 -45t-156 -61q-49 -140 -65 -175q-3 -10 -6.5 -29t-9.5 -29t-23 -19q-25 -14 -131.5 31.5t-110.5 60.5zM412 1574q-3 76 43 136q51 68 133.5 83.5t146.5 -36.5q57 -50 61 -125t-42 -135 q-49 -69 -135 -86t-150 37q-54 50 -57 126zM485 545q32 14 64.5 22.5t69.5 15.5t45 9q0 1 -11 54.5t-16 84t-12.5 95t-10.5 128.5q-32 -77 -78.5 -223.5t-50.5 -185.5zM533.5 1591.5q-6.5 -33.5 17.5 -55.5q40 -35 94 12q27 25 34.5 55t-13.5 54q-23 19 -50 14.5t-49 -24.5 q-27 -22 -33.5 -55.5z" />
<glyph unicode="&#xc7;" horiz-adv-x="1118" d="M31 927q13 143 51.5 277.5t98 237.5t142.5 167.5t177 69.5q79 5 233 -81.5t205 -172.5q14 -24 25 -60t17.5 -67.5t12 -75.5t7.5 -67.5t4 -60.5t2 -39q2 -37 -6 -82.5t-28 -81t-46 -31.5q-72 11 -192.5 49t-129.5 68q-9 27 11.5 60t19.5 50q4 26 8 66t1.5 123t-23.5 117 q-79 -58 -133.5 -166t-77.5 -230t-28 -254.5t8.5 -242.5t38.5 -188.5t56 -98.5q21 -13 114 82.5t120 153.5q6 13 12.5 41t14.5 46t24 23q22 8 102 -23.5t150 -74t68 -60.5q-6 -52 -39 -82q-41 -84 -117 -180.5t-163 -162.5t-140 -50q-6 2 -39.5 -38t-82 -100t-77.5 -89 q-9 -11 -16.5 -25t-13 -20t-15.5 -6q-56 -2 -123.5 33.5t-73.5 76.5q-1 10 2.5 17t10 12t18.5 14.5t21 18.5q28 30 79 76t81.5 73.5t25.5 30.5q-115 47 -200 145.5t-130 223t-62.5 270t-4.5 288.5z" />
<glyph unicode="&#xc8;" horiz-adv-x="872" d="M111 84v1233q0 11 38 31.5t56 19.5q19 -1 79 -25t97 -24q38 0 84 23t81 43t52 14q40 -12 117.5 -85t83.5 -104q3 -15 -29.5 -51.5t-54.5 -36.5q-10 0 -18 2t-10.5 3.5t-5.5 3t-5 -0.5q-8 -2 -22 -5t-52.5 -14t-73 -24t-74.5 -35t-65 -46v-269q23 7 76.5 33.5t71.5 28.5 q27 2 111.5 -73t84.5 -105q0 -18 -23 -43t-44 -31q-14 -4 -29 -3.5t-29 -0.5q-26 -4 -102.5 -42t-116.5 -63v-172q47 29 132.5 69t105.5 40q23 0 115 -70.5t89 -91.5q-6 -28 -29 -60t-42 -38q-4 -1 -20.5 8t-24.5 4q-18 -5 -49.5 -16t-117.5 -58t-159 -110q-14 6 -66.5 27 t-78.5 32t-63 28.5t-53.5 30.5t-16.5 23zM158 1724q14 35 97 61t124 19q10 -2 17 -22.5t13 -47.5t11 -36q10 -18 46 -68.5t63 -91t24 -47.5q-3 -6 -9 -12t-16.5 -10.5t-18 -8t-22.5 -7.5t-22 -6t-25 -6t-22 -5q-15 -3 -42 -14.5t-39 -14t-36 1.5q-11 6 -21 33t-12 47 q-1 6 -20.5 42.5t-35 71.5t-11.5 44q1 4 -25 31.5t-18 45.5z" />
<glyph unicode="&#xc9;" horiz-adv-x="872" d="M111 84v1233q0 11 38 31.5t56 19.5q19 -1 79 -25t97 -24q38 0 84 23t81 43t52 14q40 -12 117.5 -85t83.5 -104q3 -15 -29.5 -51.5t-54.5 -36.5q-10 0 -18 2t-10.5 3.5t-5.5 3t-5 -0.5q-8 -2 -22 -5t-52.5 -14t-73 -24t-74.5 -35t-65 -46v-269q23 7 76.5 33.5t71.5 28.5 q27 2 111.5 -73t84.5 -105q0 -18 -23 -43t-44 -31q-14 -4 -29 -3.5t-29 -0.5q-26 -4 -102.5 -42t-116.5 -63v-172q47 29 132.5 69t105.5 40q23 0 115 -70.5t89 -91.5q-6 -28 -29 -60t-42 -38q-4 -1 -20.5 8t-24.5 4q-18 -5 -49.5 -16t-117.5 -58t-159 -110q-14 6 -66.5 27 t-78.5 32t-63 28.5t-53.5 30.5t-16.5 23zM248 1475q-3 7 14.5 35t45 66t36.5 56q5 8 14 36t19 48.5t20 22.5q41 7 109 -13t82 -55q8 -18 -18 -46t-25 -32q6 -12 -18 -58.5t-25 -49.5q-2 -20 -12 -47t-21 -33q-24 -4 -36 -1.5t-39 14t-42 14.5q-9 2 -33.5 7t-33 7.5t-20 10 t-17.5 18.5z" />
<glyph unicode="&#xca;" horiz-adv-x="872" d="M111 84v1233q0 11 38 31.5t56 19.5q19 -1 79 -25t97 -24q38 0 84 23t81 43t52 14q40 -12 117.5 -85t83.5 -104q3 -15 -29.5 -51.5t-54.5 -36.5q-10 0 -18 2t-10.5 3.5t-5.5 3t-5 -0.5q-8 -2 -22 -5t-52.5 -14t-73 -24t-74.5 -35t-65 -46v-269q23 7 76.5 33.5t71.5 28.5 q27 2 111.5 -73t84.5 -105q0 -18 -23 -43t-44 -31q-14 -4 -29 -3.5t-29 -0.5q-26 -4 -102.5 -42t-116.5 -63v-172q47 29 132.5 69t105.5 40q23 0 115 -70.5t89 -91.5q-6 -28 -29 -60t-42 -38q-4 -1 -20.5 8t-24.5 4q-18 -5 -49.5 -16t-117.5 -58t-159 -110q-14 6 -66.5 27 t-78.5 32t-63 28.5t-53.5 30.5t-16.5 23zM156 1473q-7 18 14 51.5t55.5 82.5t48.5 87q1 3 6 19t10 28t11 18q16 16 109.5 37.5t117.5 11.5q15 -5 18.5 -28t14.5 -37q4 -8 24.5 -29t45 -46t55.5 -68t53 -89q-15 -29 -73.5 -54.5t-83.5 -16.5q-17 6 -22.5 14.5t-10.5 22.5 t-17 26q-3 4 -11.5 20t-16 28t-28 28.5t-48.5 30.5q-12 -23 -26.5 -45.5t-22.5 -33.5l-8 -11q-4 -6 -11 -35.5t-14 -32.5q-33 -23 -107.5 -11.5t-82.5 32.5z" />
<glyph unicode="&#xcb;" horiz-adv-x="872" d="M111 84v1233q0 11 38 31.5t56 19.5q19 -1 79 -25t97 -24q38 0 84 23t81 43t52 14q40 -12 117.5 -85t83.5 -104q3 -15 -29.5 -51.5t-54.5 -36.5q-10 0 -18 2t-10.5 3.5t-5.5 3t-5 -0.5q-8 -2 -22 -5t-52.5 -14t-73 -24t-74.5 -35t-65 -46v-269q23 7 76.5 33.5t71.5 28.5 q27 2 111.5 -73t84.5 -105q0 -18 -23 -43t-44 -31q-14 -4 -29 -3.5t-29 -0.5q-26 -4 -102.5 -42t-116.5 -63v-172q47 29 132.5 69t105.5 40q23 0 115 -70.5t89 -91.5q-6 -28 -29 -60t-42 -38q-4 -1 -20.5 8t-24.5 4q-18 -5 -49.5 -16t-117.5 -58t-159 -110q-14 6 -66.5 27 t-78.5 32t-63 28.5t-53.5 30.5t-16.5 23zM190 1518q-8 15 20.5 85.5t49.5 104.5q6 9 16 13t25 2.5t28 -4.5t33 -8t31 -7q65 -8 72 -43q4 -17 -20.5 -64.5t-24.5 -76.5q-2 -5 -0.5 -19t0.5 -20q-8 -47 -27 -56q-24 -9 -109 31t-94 62zM535 1518q-8 15 20.5 85.5t48.5 104.5 q6 9 16 13t25 2.5t28 -4.5t33 -8t31 -7q65 -8 72 -43q4 -17 -20.5 -64.5t-24.5 -76.5q-2 -5 -0.5 -19t0.5 -20q-8 -47 -27 -56q-24 -9 -108.5 31t-93.5 62z" />
<glyph unicode="&#xcc;" horiz-adv-x="491" d="M57 1739q14 35 97.5 61t124.5 19q10 -2 17 -22.5t12.5 -48t10.5 -36.5q10 -18 46 -68.5t63.5 -91t24.5 -47.5q-3 -6 -9 -12t-16.5 -10.5t-18.5 -8t-22.5 -7.5t-22.5 -6t-25 -6t-22 -5q-15 -3 -41.5 -14.5t-38.5 -14t-36 1.5q-11 6 -21 33t-12 47q-1 6 -20.5 42.5 t-35.5 71.5t-12 44q1 4 -25 32t-18 46zM104 76q0 7 7.5 15t7.5 28v1155q0 10 -7 20.5t-6 20.5q2 37 62 53q33 6 129.5 -5.5t126.5 -43.5q9 -9 10 -20.5t-3 -21t-9 -22t-6 -18.5q-17 -65 -19 -100v-1006q0 -20 9.5 -35.5t9.5 -25.5q0 -43 -9.5 -77t-29.5 -38 q-14 -4 -116.5 20.5t-119.5 40.5q-1 1 -7 6.5t-10 9.5t-9 11.5t-8 15.5t-3 17z" />
<glyph unicode="&#xcd;" horiz-adv-x="491" d="M104 76q0 7 7.5 15t7.5 28v1155q0 10 -7 20.5t-6 20.5q2 37 62 53q33 6 129.5 -5.5t126.5 -43.5q9 -9 10 -20.5t-3 -21t-9 -22t-6 -18.5q-17 -65 -19 -100v-1006q0 -20 9.5 -35.5t9.5 -25.5q0 -43 -9.5 -77t-29.5 -38q-14 -4 -116.5 20.5t-119.5 40.5q-1 1 -7 6.5 t-10 9.5t-9 11.5t-8 15.5t-3 17zM139 1468q-3 7 15 35.5t45.5 66.5t36.5 56q5 8 14 36t19 48.5t20 22.5q41 7 108.5 -13t81.5 -55q8 -18 -18 -46t-25 -32q6 -12 -18 -58.5t-25 -49.5q-2 -20 -12 -47t-21 -33q-10 -6 -27 -3.5t-28 7.5t-29.5 12t-31.5 10q-11 3 -28.5 6 t-26.5 5.5t-20 6.5t-18 10t-12 15z" />
<glyph unicode="&#xce;" horiz-adv-x="618" d="M12 1436q-7 18 14.5 51.5t56 82.5t48.5 87q1 3 6 19t10 28t11 18q16 16 109.5 38t117.5 12q15 -5 18.5 -28.5t14.5 -37.5q4 -8 35.5 -38.5t73 -82t69.5 -110.5q-15 -29 -74 -55t-84 -17q-17 6 -22.5 14.5t-10 22.5t-16.5 26q-3 4 -11.5 20t-16 28t-28 28.5t-48.5 30.5 q-12 -23 -26.5 -45.5t-22.5 -33.5l-9 -11q-4 -6 -10.5 -35.5t-13.5 -32.5q-33 -23 -108 -11.5t-83 32.5zM104 76q0 7 7.5 15t7.5 28v1155q0 10 -7 20.5t-6 20.5q2 37 62 53q33 6 129.5 -5.5t126.5 -43.5q9 -9 10 -20.5t-3 -21t-9 -22t-6 -18.5q-17 -65 -19 -100v-1006 q0 -20 9.5 -35.5t9.5 -25.5q0 -43 -9.5 -77t-29.5 -38q-14 -4 -116.5 20.5t-119.5 40.5q-1 1 -7 6.5t-10 9.5t-9 11.5t-8 15.5t-3 17z" />
<glyph unicode="&#xcf;" horiz-adv-x="700" d="M49 1524q-8 15 20.5 85.5t49.5 104.5q6 9 16 13t25 2.5t28 -4.5t33 -8t31 -7q65 -8 72 -43q4 -17 -20.5 -64.5t-24.5 -76.5q-2 -5 -0.5 -19t0.5 -20q-7 -46 -27 -55q-24 -9 -109 30.5t-94 61.5zM197 76q0 7 7 15t7 28v1155q0 10 -6.5 20.5t-5.5 20.5q2 38 61 53 q33 6 129.5 -5.5t126.5 -43.5q9 -9 10 -20.5t-3 -21t-9 -22t-6 -18.5q-17 -65 -19 -100v-1006q0 -20 9.5 -35.5t9.5 -25.5q0 -43 -9.5 -77t-29.5 -38q-14 -4 -116.5 20.5t-119.5 40.5l-7 6q-6 6 -9.5 10t-9 11.5t-8 15.5t-2.5 17zM393 1524q-8 15 20.5 85.5t49.5 104.5 q6 9 16 13t25 2.5t28 -4.5t33 -8t31 -7q65 -8 72 -43q4 -17 -20.5 -64.5t-24.5 -76.5q-2 -5 -0.5 -19t0.5 -20q-7 -46 -27 -55q-24 -9 -109 30.5t-94 61.5z" />
<glyph unicode="&#xd1;" d="M53.5 116.5q0.5 21.5 7.5 33.5q19 38 19 51v1028q0 10 -4.5 29t-1.5 30q16 56 63 76q29 11 137.5 -6.5t151.5 -63.5q37 -39 76.5 -161.5t88.5 -288.5t95 -264q0 25 1 195t1 301t-2 147q0 13 -7 44.5t-3 47.5q10 30 61 41t84 8q19 -2 53 -8.5t73.5 -24t39.5 -37.5 q1 -14 -1.5 -23t-8.5 -23t-10 -31v-1082q0 -13 8 -61q4 -24 -1.5 -56.5t-19.5 -42.5q-16 -13 -68 -15.5t-63 1.5q-55 6 -132.5 30t-104.5 54q-13 14 -12.5 40t-2.5 46q-182 484 -213 533v-486q0 -14 13 -37t14 -26q5 -18 7.5 -37t-3.5 -42t-24 -32q-33 -20 -161.5 18 t-142.5 60q-8 13 -7.5 34.5zM100 1622q3 11 11 18.5t22 11t23 5t29 2.5t26 2q32 2 85.5 28t88.5 27q39 3 79.5 -20t81.5 -47t79 -23q19 0 46 14t45 28l17 13q55 28 113 11q29 -8 67 -89.5t29 -119.5q-1 -5 -4 -9t-7.5 -7t-9.5 -5t-12 -3t-12 -2t-14 -1h-13.5h-13.5h-12 q-34 0 -91 -32t-104 -33q-37 -1 -73 24t-71.5 49t-72.5 21q-21 -1 -68.5 -29.5t-78.5 -34.5q-4 -2 -11.5 -6t-11.5 -6t-11 -2t-15 4q-31 18 -58 50.5t-69 107.5q-17 27 -9 53z" />
<glyph unicode="&#xd2;" d="M61.5 702q8.5 149 42 276.5t86.5 221.5t113 119q21 5 29 4.5t27 -6t30 -6.5l39 12t36.5 10.5t35.5 8t36.5 4t41.5 -2.5q99 -12 178.5 -77t128.5 -162t76 -218t28.5 -246t-21 -246t-66 -217t-114 -159t-157.5 -73q-26 -3 -50 1.5t-59 17t-51 16.5q-96 23 -156 49 q-99 43 -161.5 150.5t-81.5 240.5t-10.5 282zM258 1724q14 35 97 61t124 19q10 -2 17 -22.5t13 -47.5t11 -36q10 -18 46 -68.5t63 -91t24 -47.5q-3 -6 -9 -12t-16.5 -10.5t-18 -8t-22.5 -7.5t-22 -6t-25 -6t-22 -5q-15 -3 -42 -14.5t-39 -14t-36 1.5q-11 5 -20.5 32.5 t-11.5 47.5q-1 6 -20.5 42.5t-35.5 71.5t-12 44q1 4 -25 31.5t-18 45.5zM360 490.5q10 -128.5 49.5 -228.5t100.5 -112q61 -11 107 83.5t64 238.5t19 292t-26 259t-72 124q-23 5 -40.5 -21.5t-27.5 -63t-26.5 -72.5t-36.5 -44q-14 -6 -32.5 5t-28.5 12q-35 -77 -47.5 -210.5 t-2.5 -262z" />
<glyph unicode="&#xd3;" d="M61.5 702q8.5 149 42 276.5t86.5 221.5t113 119q21 5 29 4.5t27 -6t30 -6.5l39 12t36.5 10.5t35.5 8t36.5 4t41.5 -2.5q99 -12 178.5 -77t128.5 -162t76 -218t28.5 -246t-21 -246t-66 -217t-114 -159t-157.5 -73q-26 -3 -50 1.5t-59 17t-51 16.5q-96 23 -156 49 q-99 43 -161.5 150.5t-81.5 240.5t-10.5 282zM360 490.5q10 -128.5 49.5 -228.5t100.5 -112q61 -11 107 83.5t64 238.5t19 292t-26 259t-72 124q-23 5 -40.5 -21.5t-27.5 -63t-26.5 -72.5t-36.5 -44q-14 -6 -32.5 5t-28.5 12q-35 -77 -47.5 -210.5t-2.5 -262zM463 1456 q-3 7 14.5 35.5t45 66.5t36.5 56q5 8 14 36t19 48t20 22q42 7 109.5 -12.5t81.5 -54.5q8 -18 -18 -46t-25 -32q6 -12 -18 -59.5t-25 -49.5q-2 -20 -12 -47t-21 -33q-24 -4 -36 -1.5t-39 14t-42 14.5q-9 2 -33.5 7t-33 7.5t-20 10t-17.5 18.5z" />
<glyph unicode="&#xd4;" d="M61.5 702q8.5 149 42 276.5t86.5 221.5t113 119q21 5 29 4.5t27 -6t30 -6.5l39 12t36.5 10.5t35.5 8t36.5 4t41.5 -2.5q99 -12 178.5 -77t128.5 -162t76 -218t28.5 -246t-21 -246t-66 -217t-114 -159t-157.5 -73q-26 -3 -50 1.5t-59 17t-51 16.5q-96 23 -156 49 q-99 43 -161.5 150.5t-81.5 240.5t-10.5 282zM229 1399q-7 18 14.5 51.5t56 82.5t48.5 87q1 4 6 20t10 28t11 18q16 16 109.5 37.5t117.5 11.5q15 -5 18.5 -28.5t14.5 -37.5q4 -8 35.5 -38.5t73 -82t69.5 -110.5q-15 -29 -74 -55t-84 -17q-17 6 -22.5 15t-10 23t-16.5 26 q-3 4 -11.5 20t-16 27.5t-27.5 28t-49 30.5q-12 -23 -26.5 -45.5t-23.5 -33.5l-8 -11q-4 -6 -10.5 -35.5t-13.5 -32.5q-33 -23 -108 -11.5t-83 32.5zM360 490.5q10 -128.5 49.5 -228.5t100.5 -112q61 -11 107 83.5t64 238.5t19 292t-26 259t-72 124q-23 5 -40.5 -21.5 t-27.5 -63t-26.5 -72.5t-36.5 -44q-14 -6 -32.5 5t-28.5 12q-35 -77 -47.5 -210.5t-2.5 -262z" />
<glyph unicode="&#xd5;" d="M61.5 702q8.5 149 42 276.5t86.5 221.5t113 119q21 5 29 4.5t27 -6t30 -6.5l39 12t36.5 10.5t35.5 8t36.5 4t41.5 -2.5q99 -12 178.5 -77t128.5 -162t76 -218t28.5 -246t-21 -246t-66 -217t-114 -159t-157.5 -73q-26 -3 -50 1.5t-59 17t-51 16.5q-96 23 -156 49 q-99 43 -161.5 150.5t-81.5 240.5t-10.5 282zM100 1622q3 11 11 18.5t22 11t23 5t29 2.5t26 2q32 2 85.5 28t88.5 27q39 3 79.5 -20t81.5 -47t79 -23q19 0 46 14t45 28l17 13q55 28 113 11q29 -8 67 -89.5t29 -119.5q-1 -5 -4 -9t-7.5 -7t-9.5 -5t-12 -3t-12 -2t-14 -1 h-13.5h-13.5h-12q-34 0 -91 -32t-104 -33q-37 -1 -73 24t-71.5 49t-72.5 21q-21 -1 -68.5 -29.5t-78.5 -34.5q-4 -2 -11.5 -6t-11.5 -6t-11 -2t-15 4q-31 18 -58 50.5t-69 107.5q-17 27 -9 53zM360 490.5q10 -128.5 49.5 -228.5t100.5 -112q61 -11 107 83.5t64 238.5t19 292 t-26 259t-72 124q-23 5 -40.5 -21.5t-27.5 -63t-26.5 -72.5t-36.5 -44q-14 -6 -32.5 5t-28.5 12q-35 -77 -47.5 -210.5t-2.5 -262z" />
<glyph unicode="&#xd6;" d="M61.5 702q8.5 149 42 276.5t86.5 221.5t113 119q21 5 29 4.5t27 -6t30 -6.5l39 12t36.5 10.5t35.5 8t36.5 4t41.5 -2.5q99 -12 178.5 -77t128.5 -162t76 -218t28.5 -246t-21 -246t-66 -217t-114 -159t-157.5 -73q-26 -3 -50 1.5t-59 17t-51 16.5q-96 23 -156 49 q-99 43 -161.5 150.5t-81.5 240.5t-10.5 282zM238 1466q-8 15 20.5 86.5t48.5 104.5q6 9 16 13t25 2.5t28 -4.5t33 -8t31 -7q65 -8 72 -43q4 -17 -20.5 -65t-24.5 -77q-2 -5 -0.5 -18.5t0.5 -19.5q-8 -47 -27 -56q-24 -9 -108.5 30.5t-93.5 61.5zM360 490.5 q10 -128.5 49.5 -228.5t100.5 -112q61 -11 107 83.5t64 238.5t19 292t-26 259t-72 124q-23 5 -40.5 -21.5t-27.5 -63t-26.5 -72.5t-36.5 -44q-14 -6 -32.5 5t-28.5 12q-35 -77 -47.5 -210.5t-2.5 -262zM582 1466q-8 15 20.5 86.5t48.5 104.5q6 9 16 13t25 2.5t28 -4.5t33 -8 t31 -7q65 -8 72 -43q4 -17 -20.5 -65t-24.5 -77q-2 -5 -0.5 -18.5t0.5 -19.5q-8 -47 -27 -56q-24 -9 -108.5 30.5t-93.5 61.5z" />
<glyph unicode="&#xd9;" horiz-adv-x="946" d="M47.5 947.5q2.5 187.5 22.5 332.5q4 51 47 66q19 7 125.5 -23t124.5 -51q21 -26 -9 -88q-17 -33 -14 -56q-5 -20 -6.5 -102t0.5 -194t10.5 -236.5t21.5 -229t35.5 -171.5t51.5 -64q57 6 93 154t46 334t9.5 345t-9.5 201q2 27 -10.5 59t-12.5 33q-9 58 37 84 q25 16 139 -11.5t130 -47.5q7 -8 8 -19.5t-1.5 -26t-2.5 -19.5q0 -17 -1 -79.5t2.5 -153t-1 -201.5t-10 -224.5t-24.5 -222t-46 -194t-73.5 -141t-106.5 -62.5q-26 -3 -57.5 2.5t-54 12.5t-63.5 22t-63 22q-19 6 -68 18t-77 25t-50 37q-47 52 -81.5 194t-49 315t-12 360.5z M244 1696q14 35 97 61t124 19q10 -2 17 -22.5t13 -48t11 -36.5q10 -18 46 -68.5t63 -91t24 -47.5q-3 -6 -9 -12t-16.5 -10.5t-18 -8t-22.5 -7.5t-22 -6t-25 -6t-22 -5q-15 -3 -42 -14.5t-39 -14t-36 1.5q-11 6 -21 33t-12 47q-1 6 -20.5 42.5t-35 71.5t-11.5 44q1 4 -25 32 t-18 46z" />
<glyph unicode="&#xda;" horiz-adv-x="946" d="M47.5 947.5q2.5 187.5 22.5 332.5q4 51 47 66q19 7 125.5 -23t124.5 -51q21 -26 -9 -88q-17 -33 -14 -56q-5 -20 -6.5 -102t0.5 -194t10.5 -236.5t21.5 -229t35.5 -171.5t51.5 -64q57 6 93 154t46 334t9.5 345t-9.5 201q2 27 -10.5 59t-12.5 33q-9 58 37 84 q25 16 139 -11.5t130 -47.5q7 -8 8 -19.5t-1.5 -26t-2.5 -19.5q0 -17 -1 -79.5t2.5 -153t-1 -201.5t-10 -224.5t-24.5 -222t-46 -194t-73.5 -141t-106.5 -62.5q-26 -3 -57.5 2.5t-54 12.5t-63.5 22t-63 22q-19 6 -68 18t-77 25t-50 37q-47 52 -81.5 194t-49 315t-12 360.5z M319 1475q-3 7 15 35t45 66t37 56q5 8 14 36t19 48.5t20 22.5q41 7 108.5 -13t81.5 -55q8 -18 -18 -46t-25 -32q6 -12 -18 -58.5t-25 -49.5q-2 -20 -11.5 -47.5t-20.5 -32.5q-24 -4 -36 -1.5t-39 14t-42 14.5q-11 3 -28.5 6t-26.5 5.5t-20 6.5t-18 10t-12 15z" />
<glyph unicode="&#xdb;" horiz-adv-x="946" d="M47.5 947.5q2.5 187.5 22.5 332.5q4 51 47 66q19 7 125.5 -23t124.5 -51q21 -26 -9 -88q-17 -33 -14 -56q-5 -20 -6.5 -102t0.5 -194t10.5 -236.5t21.5 -229t35.5 -171.5t51.5 -64q57 6 93 154t46 334t9.5 345t-9.5 201q2 27 -10.5 59t-12.5 33q-9 58 37 84 q25 16 139 -11.5t130 -47.5q7 -8 8 -19.5t-1.5 -26t-2.5 -19.5q0 -17 -1 -79.5t2.5 -153t-1 -201.5t-10 -224.5t-24.5 -222t-46 -194t-73.5 -141t-106.5 -62.5q-26 -3 -57.5 2.5t-54 12.5t-63.5 22t-63 22q-19 6 -68 18t-77 25t-50 37q-47 52 -81.5 194t-49 315t-12 360.5z M197 1415q-7 18 14 51.5t55.5 82.5t48.5 87q1 4 6 20t10 28t11 18q16 16 109.5 37.5t117.5 11.5q15 -5 18.5 -28t14.5 -37q4 -8 24.5 -29t45 -46t55.5 -68t53 -89q-15 -29 -73.5 -55t-83.5 -17q-17 6 -22.5 15t-10.5 23t-17 26q-3 4 -11.5 20t-16 27.5t-27.5 28t-49 30.5 q-12 -23 -26.5 -45.5t-22.5 -33.5l-8 -11q-4 -6 -11 -35t-14 -32q-33 -23 -107.5 -12t-82.5 32z" />
<glyph unicode="&#xdc;" horiz-adv-x="946" d="M47.5 947.5q2.5 187.5 22.5 332.5q4 51 47 66q19 7 125.5 -23t124.5 -51q21 -26 -9 -88q-17 -33 -14 -56q-5 -20 -6.5 -102t0.5 -194t10.5 -236.5t21.5 -229t35.5 -171.5t51.5 -64q57 6 93 154t46 334t9.5 345t-9.5 201q2 27 -10.5 59t-12.5 33q-9 58 37 84 q25 16 139 -11.5t130 -47.5q7 -8 8 -19.5t-1.5 -26t-2.5 -19.5q0 -17 -1 -79.5t2.5 -153t-1 -201.5t-10 -224.5t-24.5 -222t-46 -194t-73.5 -141t-106.5 -62.5q-26 -3 -57.5 2.5t-54 12.5t-63.5 22t-63 22q-19 6 -68 18t-77 25t-50 37q-47 52 -81.5 194t-49 315t-12 360.5z M188 1473q-8 15 20.5 85.5t49.5 104.5q6 9 16 13t25 2.5t28 -4.5t33 -8t31 -7q65 -8 72 -43q4 -17 -20.5 -64.5t-24.5 -76.5q-2 -5 -0.5 -19t0.5 -20q-8 -47 -27 -56q-24 -9 -109 31t-94 62zM532 1473q-8 15 20.5 85.5t49.5 104.5q6 9 16 13t25 2.5t28 -4.5t33 -8t31 -7 q65 -8 72 -43q4 -17 -20.5 -64.5t-24.5 -76.5q-2 -5 -0.5 -19t0.5 -20q-8 -47 -27 -56q-24 -9 -109 31t-94 62z" />
<glyph unicode="&#xe0;" d="M25.5 278.5q0.5 14.5 3.5 30.5q16 77 63 150.5t108 131.5t147 116.5t164 101.5t177 90q0 28 -10 52t-23 32q-21 12 -143.5 -45.5t-171.5 -99.5q-15 -5 -29 -22.5t-24 -22.5q-35 -20 -64 -13q-24 6 -97 73.5t-79 90.5q-6 17 2 44t33 42q6 4 20.5 8t33.5 9t28 8 q3 1 74.5 41.5t169.5 79.5t178 43q26 1 55.5 -14t50.5 -34t54 -51t51 -47q11 -10 68.5 -51t84.5 -73.5t27 -71.5v-775q2 -5 6.5 -16t6.5 -17.5t4 -17t1 -20.5q-2 -28 -24 -50t-51 -18q-27 4 -76 13.5t-122 34.5t-85 50q-8 18 3 37t11 23q1 6 4 10t5.5 8.5t4 22t-0.5 49.5 q-20 -14 -43 -49.5t-46 -74t-52.5 -76t-74 -61.5t-98.5 -24q-11 0 -22 2t-19.5 4.5t-19.5 9t-17.5 10t-17.5 13t-16 14t-16.5 16.5t-15.5 16.5t-16.5 18.5t-15.5 17q-12 14 -30.5 34t-29 32t-25 29t-22.5 28t-17.5 26t-13.5 27t-7.5 26.5t-3 29zM274 154q18 -18 103.5 70.5 t173.5 211.5t117 193q-57 -22 -102.5 -55.5t-69.5 -62.5t-55 -69t-52 -61q-51 -51 -91.5 -130.5t-23.5 -96.5zM301 1610q14 35 97 61t124 19q10 -2 17 -22.5t13 -48t11 -36.5q10 -18 46 -68.5t63 -91t24 -47.5q-3 -6 -9 -12t-16.5 -10.5t-18 -8t-22.5 -7.5t-22 -6t-25 -6 t-22 -5q-15 -3 -42 -14.5t-39 -14t-36 1.5q-11 5 -20.5 32.5t-11.5 47.5q-1 6 -20.5 42.5t-35.5 71.5t-12 44q1 4 -25 32t-18 46z" />
<glyph unicode="&#xe1;" d="M25.5 278.5q0.5 14.5 3.5 30.5q16 77 63 150.5t108 131.5t147 116.5t164 101.5t177 90q0 28 -10 52t-23 32q-21 12 -143.5 -45.5t-171.5 -99.5q-15 -5 -29 -22.5t-24 -22.5q-35 -20 -64 -13q-24 6 -97 73.5t-79 90.5q-6 17 2 44t33 42q6 4 20.5 8t33.5 9t28 8 q3 1 74.5 41.5t169.5 79.5t178 43q26 1 55.5 -14t50.5 -34t54 -51t51 -47q11 -10 68.5 -51t84.5 -73.5t27 -71.5v-775q2 -5 6.5 -16t6.5 -17.5t4 -17t1 -20.5q-2 -28 -24 -50t-51 -18q-27 4 -76 13.5t-122 34.5t-85 50q-8 18 3 37t11 23q1 6 4 10t5.5 8.5t4 22t-0.5 49.5 q-20 -14 -43 -49.5t-46 -74t-52.5 -76t-74 -61.5t-98.5 -24q-11 0 -22 2t-19.5 4.5t-19.5 9t-17.5 10t-17.5 13t-16 14t-16.5 16.5t-15.5 16.5t-16.5 18.5t-15.5 17q-12 14 -30.5 34t-29 32t-25 29t-22.5 28t-17.5 26t-13.5 27t-7.5 26.5t-3 29zM274 154q18 -18 103.5 70.5 t173.5 211.5t117 193q-57 -22 -102.5 -55.5t-69.5 -62.5t-55 -69t-52 -61q-51 -51 -91.5 -130.5t-23.5 -96.5zM414 1389q-3 7 14.5 35t45 66t36.5 56q5 8 14 36t19 48.5t20 22.5q41 7 124 -19t97 -61q8 -18 -18 -46t-25 -32q6 -12 -18 -59.5t-25 -49.5q-2 -20 -11.5 -47 t-20.5 -32q-10 -6 -27 -3.5t-28.5 7.5t-30 12t-31.5 10q-4 1 -17.5 4t-18.5 4.5t-17.5 4.5t-18.5 5l-16.5 5.5t-16 7t-12.5 7.5t-11 8.5t-7 9.5z" />
<glyph unicode="&#xe2;" d="M25.5 278.5q0.5 14.5 3.5 30.5q16 77 63 150.5t108 131.5t147 116.5t164 101.5t177 90q0 28 -10 52t-23 32q-21 12 -143.5 -45.5t-171.5 -99.5q-15 -5 -29 -22.5t-24 -22.5q-35 -20 -64 -13q-24 6 -97 73.5t-79 90.5q-6 17 2 44t33 42q6 4 20.5 8t33.5 9t28 8 q3 1 74.5 41.5t169.5 79.5t178 43q26 1 55.5 -14t50.5 -34t54 -51t51 -47q11 -10 68.5 -51t84.5 -73.5t27 -71.5v-775q2 -5 6.5 -16t6.5 -17.5t4 -17t1 -20.5q-2 -28 -24 -50t-51 -18q-27 4 -76 13.5t-122 34.5t-85 50q-8 18 3 37t11 23q1 6 4 10t5.5 8.5t4 22t-0.5 49.5 q-20 -14 -43 -49.5t-46 -74t-52.5 -76t-74 -61.5t-98.5 -24q-11 0 -22 2t-19.5 4.5t-19.5 9t-17.5 10t-17.5 13t-16 14t-16.5 16.5t-15.5 16.5t-16.5 18.5t-15.5 17q-12 14 -30.5 34t-29 32t-25 29t-22.5 28t-17.5 26t-13.5 27t-7.5 26.5t-3 29zM186 1270q-8 21 19.5 63 t70 103.5t60.5 109.5l12 36q11 35 21 46q21 20 138 46.5t146 15.5q15 -6 18.5 -18t6.5 -31t16 -35q5 -10 31 -36l57 -57t70 -84.5t66 -111.5q-20 -35 -93.5 -68t-103.5 -22q-21 8 -28.5 19.5t-13 28.5t-20.5 32q-4 5 -14.5 25.5t-20.5 34.5t-35.5 35t-60.5 38 q-15 -28 -32.5 -56t-27.5 -42l-11 -15q-5 -7 -14 -43.5t-17 -40.5q-42 -28 -135 -14t-105 41zM274 154q18 -18 103.5 70.5t173.5 211.5t117 193q-57 -22 -102.5 -55.5t-69.5 -62.5t-55 -69t-52 -61q-51 -51 -91.5 -130.5t-23.5 -96.5z" />
<glyph unicode="&#xe3;" d="M25.5 278.5q0.5 14.5 3.5 30.5q16 77 63 150.5t108 131.5t147 116.5t164 101.5t177 90q0 28 -10 52t-23 32q-21 12 -143.5 -45.5t-171.5 -99.5q-15 -5 -29 -22.5t-24 -22.5q-35 -20 -64 -13q-24 6 -97 73.5t-79 90.5q-6 17 2 44t33 42q6 4 20.5 8t33.5 9t28 8 q3 1 74.5 41.5t169.5 79.5t178 43q26 1 55.5 -14t50.5 -34t54 -51t51 -47q11 -10 68.5 -51t84.5 -73.5t27 -71.5v-775q2 -5 6.5 -16t6.5 -17.5t4 -17t1 -20.5q-2 -28 -24 -50t-51 -18q-27 4 -76 13.5t-122 34.5t-85 50q-8 18 3 37t11 23q1 6 4 10t5.5 8.5t4 22t-0.5 49.5 q-20 -14 -43 -49.5t-46 -74t-52.5 -76t-74 -61.5t-98.5 -24q-11 0 -22 2t-19.5 4.5t-19.5 9t-17.5 10t-17.5 13t-16 14t-16.5 16.5t-15.5 16.5t-16.5 18.5t-15.5 17q-12 14 -30.5 34t-29 32t-25 29t-22.5 28t-17.5 26t-13.5 27t-7.5 26.5t-3 29zM137 1499q3 11 11 18.5 t22 11t23 5t29 2.5t26 2q32 2 85.5 28t88.5 27q39 3 79.5 -20t81.5 -47t79 -23q19 0 46 14t44 28l18 14q54 28 113 10q29 -8 67 -89.5t29 -119.5q-1 -5 -4 -9t-7.5 -7t-9.5 -5t-12 -3t-12 -2t-14 -1h-13.5h-13.5h-12q-34 0 -91 -32t-104 -33q-37 -1 -73 24t-71.5 49 t-72.5 21q-21 -1 -68.5 -29.5t-78.5 -34.5l-12 -6t-11.5 -6t-11 -2t-15.5 4q-31 18 -58 50.5t-69 107.5q-16 26 -8 53zM274 154q18 -18 103.5 70.5t173.5 211.5t117 193q-57 -22 -102.5 -55.5t-69.5 -62.5t-55 -69t-52 -61q-51 -51 -91.5 -130.5t-23.5 -96.5z" />
<glyph unicode="&#xe4;" d="M25.5 278.5q0.5 14.5 3.5 30.5q16 77 63 150.5t108 131.5t147 116.5t164 101.5t177 90q0 28 -10 52t-23 32q-21 12 -143.5 -45.5t-171.5 -99.5q-15 -5 -29 -22.5t-24 -22.5q-35 -20 -64 -13q-24 6 -97 73.5t-79 90.5q-6 17 2 44t33 42q6 4 20.5 8t33.5 9t28 8 q3 1 74.5 41.5t169.5 79.5t178 43q26 1 55.5 -14t50.5 -34t54 -51t51 -47q11 -10 68.5 -51t84.5 -73.5t27 -71.5v-775q2 -5 6.5 -16t6.5 -17.5t4 -17t1 -20.5q-2 -28 -24 -50t-51 -18q-27 4 -76 13.5t-122 34.5t-85 50q-8 18 3 37t11 23q1 6 4 10t5.5 8.5t4 22t-0.5 49.5 q-20 -14 -43 -49.5t-46 -74t-52.5 -76t-74 -61.5t-98.5 -24q-11 0 -22 2t-19.5 4.5t-19.5 9t-17.5 10t-17.5 13t-16 14t-16.5 16.5t-15.5 16.5t-16.5 18.5t-15.5 17q-12 14 -30.5 34t-29 32t-25 29t-22.5 28t-17.5 26t-13.5 27t-7.5 26.5t-3 29zM225 1386q-8 15 20.5 86 t49.5 105q6 9 16 13t25 2.5t28 -4.5t33 -8t31 -7q65 -8 72 -43q4 -17 -20.5 -64.5t-24.5 -76.5q-2 -5 -0.5 -19t0.5 -20q-8 -47 -27 -56q-24 -9 -109 30.5t-94 61.5zM274 154q18 -18 103.5 70.5t173.5 211.5t117 193q-57 -22 -102.5 -55.5t-69.5 -62.5t-55 -69t-52 -61 q-51 -51 -91.5 -130.5t-23.5 -96.5zM569 1386q-8 15 20.5 86t49.5 105q6 9 16 13t25 2.5t28 -4.5t33 -8t31 -7q65 -8 72 -43q4 -17 -20.5 -64.5t-24.5 -76.5q-2 -5 -0.5 -19t0.5 -20q-8 -47 -27 -56q-24 -9 -109 30.5t-94 61.5z" />
<glyph unicode="&#xe5;" d="M41.5 278.5q0.5 14.5 3.5 30.5q16 77 63.5 150.5t108 131.5t147 116.5t164.5 101.5t177 90q0 28 -10 52t-23 32q-21 12 -144 -46t-172 -99q-15 -5 -29 -22.5t-24 -22.5q-35 -20 -63 -13q-24 6 -97.5 73.5t-79.5 90.5q-6 17 2 44t33 42q6 4 20.5 8t33.5 9t28 8 q3 1 74.5 41.5t169.5 79.5t178 43q26 1 55.5 -14t50.5 -34t54 -51t51 -47q11 -10 68.5 -51t84.5 -73.5t27 -71.5v-775q2 -6 6.5 -16.5t7 -17t4.5 -17t1 -20.5q-2 -28 -24.5 -50t-51.5 -18q-27 4 -76 13.5t-122 34.5t-85 50q-8 18 3.5 37t11.5 23q1 5 4 9.5t5 9t3.5 22 t-0.5 49.5q-20 -14 -43 -49.5t-46 -74t-52 -76t-73.5 -61.5t-98.5 -24q-32 0 -65 18.5t-50 35.5t-51 55l-6.5 6.5t-4.5 5.5q-12 14 -30.5 34t-29 32t-25 29t-22.5 28t-17.5 26t-13.5 27t-7.5 26.5t-3 29zM291 154q18 -18 103 70.5t173 211.5t117 193q-57 -22 -102.5 -55.5 t-69 -62.5t-54.5 -69t-52 -61q-51 -51 -91.5 -130.5t-23.5 -96.5zM339 1473q-4 94 54 169q63 85 166.5 105t183.5 -45q70 -62 75 -155.5t-52 -170.5q-40 -56 -103 -86t-132 -24t-119 51q-69 62 -73 156zM490.5 1495q-8.5 -42 21.5 -70q30 -21 60 -15t59 32q33 30 42 67.5 t-18 67.5q-28 23 -61.5 18t-61.5 -30q-33 -28 -41.5 -70z" />
<glyph unicode="&#xe7;" horiz-adv-x="921" d="M62 684.5q10 146.5 42 266.5t88.5 200t126.5 84q100 6 245.5 -53.5t197.5 -130.5q32 -44 40 -99t2 -123t-5 -84q5 -65 4 -71q-1 -16 -22.5 -29.5t-41.5 -13.5q-31 1 -65.5 6.5t-73 16.5t-67.5 32.5t-39 50.5q-7 19 16 50t20 51q4 9 6 54t-8 93.5t-36 50.5q-51 4 -91 -126 t-54 -289t-1.5 -296t53.5 -147q33 -7 80.5 48t78.5 112t34 72q2 2 3.5 35.5t10.5 52.5q19 37 68 34q38 -4 130 -46.5t97 -67.5q12 -54 -10 -82q-7 -9 -53 -55q0 -1 -15 -32.5t-22 -44.5t-26.5 -46.5t-35 -52t-42.5 -47t-53 -45.5t-61.5 -32.5t-74.5 -21.5 q-11 -2 -47.5 -48.5t-88.5 -118.5t-75 -101q-7 -8 -6.5 -19t-5 -18t-27.5 -12q-17 -4 -61 14.5t-82 48t-39 51.5q-1 24 9 35t26.5 18.5t23.5 18.5q54 65 90 115t25 57q-74 47 -121 158.5t-62 245.5t-5 280.5z" />
<glyph unicode="&#xe8;" horiz-adv-x="909" d="M44.5 513.5q-0.5 119.5 27 241t76 217t124 157t164.5 63.5q63 2 164 -36.5t172 -113.5q19 -20 38 -118t15.5 -213.5t-43.5 -163.5q-210 -67 -430 -76q-5 -100 24 -211.5t60 -112.5q40 -1 94.5 63t67.5 105q0 5 1 13t4 29t7 37.5t11 31t16 16.5q32 3 128 -33.5t114 -64.5 q10 -18 -30.5 -98t-114.5 -173t-144 -132q-28 -15 -117.5 3.5t-182.5 61t-126 86.5q-59 75 -89 188.5t-30.5 233zM240 1610q14 35 97 61t124 19q10 -2 17 -22.5t13 -48t11 -36.5q10 -18 46 -68.5t63 -91t24 -47.5q-3 -6 -9 -12t-16.5 -10.5t-18 -8t-22.5 -7.5t-22 -6t-25 -6 t-22 -5q-15 -3 -42 -14.5t-39 -14t-36 1.5q-11 6 -21 33t-12 47q-1 6 -20.5 42.5t-35 71.5t-11.5 44q1 4 -25 32t-18 46zM344 641q50 2 83.5 10.5t64.5 34.5q16 12 25 81.5t7.5 135t-10.5 68.5q-22 3 -60 -48.5t-70.5 -132t-39.5 -149.5z" />
<glyph unicode="&#xe9;" horiz-adv-x="909" d="M44.5 513.5q-0.5 119.5 27 241t76 217t124 157t164.5 63.5q63 2 164 -36.5t172 -113.5q19 -20 38 -118t15.5 -213.5t-43.5 -163.5q-210 -67 -430 -76q-5 -100 24 -211.5t60 -112.5q40 -1 94.5 63t67.5 105q0 5 1 13t4 29t7 37.5t11 31t16 16.5q32 3 128 -33.5t114 -64.5 q10 -18 -30.5 -98t-114.5 -173t-144 -132q-28 -15 -117.5 3.5t-182.5 61t-126 86.5q-59 75 -89 188.5t-30.5 233zM328 1352q-4 7 20.5 47.5t58 91.5t42.5 68q5 8 14 36t19 48t20 22q41 7 124 -19t97 -61q8 -18 -18 -46t-25 -32q4 -9 -12 -44t-35.5 -71t-20.5 -42 q-2 -20 -11.5 -47.5t-20.5 -32.5q-10 -6 -27 -3.5t-28.5 7.5t-30 12t-31.5 10q-4 1 -17.5 4t-18.5 4.5t-17.5 4.5t-18.5 5l-16.5 5.5t-16 7t-12.5 7.5t-11 8.5t-7 9.5zM344 641q50 2 83.5 10.5t64.5 34.5q16 12 25 81.5t7.5 135t-10.5 68.5q-22 3 -60 -48.5t-70.5 -132 t-39.5 -149.5z" />
<glyph unicode="&#xea;" horiz-adv-x="909" d="M44.5 513.5q-0.5 119.5 27 241t76 217t124 157t164.5 63.5q63 2 164 -36.5t172 -113.5q19 -20 38 -118t15.5 -213.5t-43.5 -163.5q-210 -67 -430 -76q-5 -100 24 -211.5t60 -112.5q40 -1 94.5 63t67.5 105q0 5 1 13t4 29t7 37.5t11 31t16 16.5q32 3 128 -33.5t114 -64.5 q10 -18 -30.5 -98t-114.5 -173t-144 -132q-28 -15 -117.5 3.5t-182.5 61t-126 86.5q-59 75 -89 188.5t-30.5 233zM100 1257q-8 21 19.5 63.5t70.5 104t60 109.5l12 36q11 35 21 46q21 20 138 46t146 15q15 -6 18.5 -18t6.5 -31t16 -35q5 -10 30.5 -35.5l56.5 -56.5t70 -84.5 t66 -111.5q-20 -35 -93 -68.5t-103 -22.5q-21 8 -28.5 19.5t-13 28.5t-20.5 32q-4 5 -14.5 25.5t-20.5 34.5t-35.5 35t-60.5 38q-15 -28 -32.5 -56t-27.5 -42l-11 -14q-5 -7 -14 -43.5t-17 -40.5q-42 -28 -135 -14.5t-105 40.5zM344 641q50 2 83.5 10.5t64.5 34.5 q16 12 25 81.5t7.5 135t-10.5 68.5q-22 3 -60 -48.5t-70.5 -132t-39.5 -149.5z" />
<glyph unicode="&#xeb;" horiz-adv-x="909" d="M44.5 513.5q-0.5 119.5 27 241t76 217t124 157t164.5 63.5q63 2 164 -36.5t172 -113.5q19 -20 38 -118t15.5 -213.5t-43.5 -163.5q-210 -67 -430 -76q-5 -100 24 -211.5t60 -112.5q40 -1 94.5 63t67.5 105q0 5 1 13t4 29t7 37.5t11 31t16 16.5q32 3 128 -33.5t114 -64.5 q10 -18 -30.5 -98t-114.5 -173t-144 -132q-28 -15 -117.5 3.5t-182.5 61t-126 86.5q-59 75 -89 188.5t-30.5 233zM225 1386q-8 15 20.5 86t49.5 105q6 9 16 13t25 2.5t28 -4.5t33 -8t31 -7q65 -8 72 -43q4 -17 -20.5 -64.5t-24.5 -76.5q-2 -5 -0.5 -19t0.5 -20 q-8 -47 -27 -56q-24 -9 -109 30.5t-94 61.5zM344 641q50 2 83.5 10.5t64.5 34.5q16 12 25 81.5t7.5 135t-10.5 68.5q-22 3 -60 -48.5t-70.5 -132t-39.5 -149.5zM569 1386q-8 15 20.5 86t49.5 105q6 9 16 13t25 2.5t28 -4.5t33 -8t31 -7q65 -8 72 -43q4 -17 -20.5 -64.5 t-24.5 -76.5q-2 -5 -0.5 -19t0.5 -20q-8 -47 -27 -56q-24 -9 -109 30.5t-94 61.5z" />
<glyph unicode="&#xec;" horiz-adv-x="485" d="M31 33q-10 17 18 63q8 13 13.5 51t5.5 62v860q-1 5 -14 28.5t-11 45.5q3 21 17.5 35.5t35.5 19.5q49 12 174.5 -29t151.5 -73q10 -14 5.5 -38t-19.5 -36q-11 -10 -19 -33t-8 -43v-823q0 -20 23.5 -50.5t25.5 -45.5q8 -77 -51 -95q-45 -14 -184.5 21.5t-163.5 79.5z M43 1585q14 35 97 61t124 19q10 -2 17 -22.5t13 -47.5t11 -36q10 -18 46 -68.5t63 -91t24 -47.5q-3 -5 -7 -9.5t-11 -8.5t-12.5 -7.5t-16 -7l-16.5 -5.5t-18.5 -5t-17.5 -4.5t-18.5 -4.5t-17.5 -4q-13 -3 -31.5 -10t-30 -12t-28.5 -7.5t-27 3.5q-11 5 -20.5 32.5t-11.5 47.5 q-1 6 -20.5 42t-35.5 71t-12 44q1 4 -25 32t-18 46z" />
<glyph unicode="&#xed;" horiz-adv-x="522" d="M31 33q-10 17 18 63q8 13 13.5 51t5.5 62v860q-1 5 -14 28.5t-11 45.5q3 21 17.5 35.5t35.5 19.5q49 12 174.5 -29t151.5 -73q10 -14 5.5 -38t-19.5 -36q-11 -10 -19 -33t-8 -43v-823q0 -20 23.5 -50.5t25.5 -45.5q8 -77 -51 -95q-45 -14 -184.5 21.5t-163.5 79.5z M106 1327q-3 7 24.5 47.5t63.5 91t46 68.5q5 9 11 36t13 47.5t17 22.5q41 7 124 -18.5t97 -60.5q8 -18 -18 -46t-25 -32q4 -9 -12 -44t-35.5 -71.5t-20.5 -42.5q-2 -20 -12 -47t-21 -33q-24 -4 -36 -1.5t-38.5 14t-41.5 14.5q-5 1 -22 5t-25 6t-22.5 6t-22.5 7.5t-18.5 8 t-16.5 10.5t-9 12z" />
<glyph unicode="&#xee;" horiz-adv-x="811" d="M27 1331q-8 21 19 63.5t70 104t60 109.5l12 36q11 35 21 46q21 20 138.5 46.5t146.5 14.5q15 -6 18.5 -18t6.5 -31t16 -35q5 -10 44.5 -48t91.5 -102t87 -139q-20 -35 -93.5 -68t-103.5 -22q-21 8 -28 19.5t-12.5 28.5t-20.5 32q-4 5 -14.5 25.5t-20.5 34.5t-35.5 35 t-60.5 38q-15 -28 -33 -56t-28 -42l-11 -14q-5 -7 -14 -43.5t-17 -40.5q-42 -28 -134.5 -14.5t-104.5 40.5zM190 45q-9 17 19 64q8 13 13 50.5t5 61.5v860q-3 10 -10.5 22t-11.5 24t-2 28q3 21 17.5 35.5t35.5 19.5q49 12 174.5 -29t151.5 -73q10 -14 5 -38t-20 -36 q-11 -10 -18.5 -33t-7.5 -43v-823q0 -20 23.5 -50.5t25.5 -45.5q8 -76 -51 -94q-45 -14 -185 21t-164 79z" />
<glyph unicode="&#xef;" horiz-adv-x="675" d="M29 1386q-8 15 20.5 86.5t48.5 104.5q6 9 16 13t25 2.5t28 -4.5t33 -8t31 -7q65 -8 72 -43q4 -17 -20.5 -64.5t-24.5 -76.5q-2 -5 -0.5 -19t0.5 -20q-8 -47 -27 -56q-24 -9 -108.5 30.5t-93.5 61.5zM141 45q-9 17 19 64q8 13 13 50.5t5 61.5v860q-3 10 -10.5 22t-11.5 24 t-2 28q3 21 17.5 35.5t35.5 19.5q49 12 174 -29t151 -73q10 -14 5.5 -38t-19.5 -36q-11 -10 -18.5 -33t-7.5 -43v-823q0 -20 23.5 -50.5t25.5 -45.5q8 -75 -52 -94q-45 -14 -184.5 21t-163.5 79zM373 1386q-8 15 20.5 86.5t48.5 104.5q6 9 16 13t25 2.5t28 -4.5t33 -8t31 -7 q65 -8 72 -43q4 -17 -20.5 -64.5t-24.5 -76.5q-2 -5 -0.5 -19t0.5 -20q-8 -47 -27 -56q-24 -9 -108.5 30.5t-93.5 61.5z" />
<glyph unicode="&#xf1;" horiz-adv-x="1021" d="M31 84q3 6 20 21.5t17 29.5v952q0 16 -16 43.5t-11 45.5q11 42 63 55q35 8 160 -23.5t137 -66.5q3 -8 4 -14.5t0 -14t-1.5 -11t-4 -14.5t-4.5 -14q-14 -43 -14 -110v-21q19 63 50.5 123.5t78 108t92.5 47.5q70 0 180 -49t127 -87q14 -33 25 -95.5t17 -147t10 -165 t5 -180.5t1.5 -160.5t0 -138t-0.5 -81.5q13 -33 15 -42.5t-1 -43.5q-6 -39 -13.5 -52.5t-31.5 -25.5q-38 -19 -173 5.5t-161 53.5q-4 5 -6.5 10t-2.5 12t0.5 12t3.5 14l4 12t5.5 13.5t5.5 12.5q3 7 14.5 19.5t19 28t7.5 38.5q6 807 -12 813q-16 5 -79.5 -85t-122 -213.5 t-58.5 -194.5v-383q19 -19 23.5 -40t-1.5 -46q-12 -66 -65 -88q-30 -12 -160 15.5t-143 45.5q-21 32 -4 76zM63 1511q3 11 11 18.5t22 11t23 5t29 2.5t26 2q32 2 85.5 28.5t88.5 27.5q39 3 79.5 -20t81.5 -47t79 -23q19 0 46 14t44 28l18 13q54 28 113 10q29 -8 67 -89.5 t29 -119.5q-2 -6 -6 -11t-11 -7.5t-13.5 -4.5t-17 -2.5t-16.5 -0.5h-18h-16q-34 0 -91 -32.5t-104 -33.5q-37 -1 -73 24t-71.5 49t-72.5 21q-21 -1 -68.5 -29t-78.5 -34q-5 -2 -12 -6.5t-11 -6t-11 -2t-15 3.5q-31 18 -58 50.5t-69 107.5q-17 27 -9 53z" />
<glyph unicode="&#xf2;" horiz-adv-x="983" d="M27.5 543q-0.5 137 26.5 262.5t90.5 232t154.5 158.5q11 6 25.5 9.5t33 3t34 -1.5t38 -5t34 -6.5t33 -7.5t25.5 -6q14 -3 94.5 -6.5t108.5 -16.5q61 -29 108 -91t73 -143t39.5 -177.5t8 -195.5t-21 -195t-47.5 -178.5t-72.5 -144t-96 -93t-116.5 -23.5q-34 4 -90.5 17.5 t-81.5 17.5q-64 8 -152 31q-77 22 -134.5 106.5t-85.5 200t-28.5 252.5zM301 1597q14 35 97 61t124 19q10 -2 17 -22.5t13 -47.5t11 -36q10 -18 46 -68.5t63 -91t24 -47.5q-3 -6 -9 -12t-16.5 -10.5t-18 -8t-22.5 -7.5t-22 -6t-25 -6t-22 -5q-15 -3 -42 -14.5t-39 -14 t-36 1.5q-11 5 -20.5 32.5t-11.5 47.5q-1 6 -20.5 42.5t-35.5 71.5t-12 44q1 4 -25 31.5t-18 45.5zM346 584q0 -148 36.5 -298t88.5 -161q52 -12 98 98q57 135 67 337q11 236 -58 348q-27 46 -66 63t-78.5 -46t-63.5 -160t-24 -181z" />
<glyph unicode="&#xf3;" horiz-adv-x="983" d="M27.5 543q-0.5 137 26.5 262.5t90.5 232t154.5 158.5q11 6 25.5 9.5t33 3t34 -1.5t38 -5t34 -6.5t33 -7.5t25.5 -6q14 -3 94.5 -6.5t108.5 -16.5q61 -29 108 -91t73 -143t39.5 -177.5t8 -195.5t-21 -195t-47.5 -178.5t-72.5 -144t-96 -93t-116.5 -23.5q-34 4 -90.5 17.5 t-81.5 17.5q-64 8 -152 31q-77 22 -134.5 106.5t-85.5 200t-28.5 252.5zM340 1352q-3 7 24 47.5t63 91t46 68.5q5 9 11 36t13 47.5t17 22.5q41 7 124 -19t97 -61q8 -18 -18 -46t-25 -32q4 -9 -11.5 -44t-35 -71t-20.5 -42q-2 -20 -12 -47t-21 -33q-10 -6 -27 -3.5t-28.5 7.5 t-30 12t-31.5 10q-4 1 -17.5 4t-18.5 4.5t-17.5 4.5t-18.5 5l-16.5 5.5t-16 7t-12.5 7.5t-11 8.5t-7 9.5zM346 584q0 -148 36.5 -298t88.5 -161q52 -12 98 98q57 135 67 337q11 236 -58 348q-27 46 -66 63t-78.5 -46t-63.5 -160t-24 -181z" />
<glyph unicode="&#xf4;" horiz-adv-x="983" d="M27.5 543q-0.5 137 26.5 262.5t90.5 232t154.5 158.5q11 6 25.5 9.5t33 3t34 -1.5t38 -5t34 -6.5t33 -7.5t25.5 -6q14 -3 94.5 -6.5t108.5 -16.5q61 -29 108 -91t73 -143t39.5 -177.5t8 -195.5t-21 -195t-47.5 -178.5t-72.5 -144t-96 -93t-116.5 -23.5q-34 4 -90.5 17.5 t-81.5 17.5q-64 8 -152 31q-77 22 -134.5 106.5t-85.5 200t-28.5 252.5zM137 1294q-8 21 19.5 63.5t70.5 104t60 109.5q1 1 11.5 36t20.5 46q21 20 138.5 46.5t146.5 14.5q15 -6 18.5 -18t6.5 -31t16 -35q5 -10 44.5 -48t91.5 -102t87 -139q-20 -35 -93 -68t-103 -22 q-21 8 -28.5 19.5t-13 28.5t-20.5 32q-4 5 -14.5 25.5t-20.5 34.5t-35.5 35t-60.5 38q-15 -28 -32.5 -56t-28.5 -42l-10 -14q-5 -7 -14 -43.5t-17 -40.5q-42 -28 -135 -14.5t-105 40.5zM346 584q0 -148 36.5 -298t88.5 -161q52 -12 98 98q57 135 67 337q11 236 -58 348 q-27 46 -66 63t-78.5 -46t-63.5 -160t-24 -181z" />
<glyph unicode="&#xf5;" horiz-adv-x="983" d="M27.5 543q-0.5 137 26.5 262.5t90.5 232t154.5 158.5q11 6 25.5 9.5t33 3t34 -1.5t38 -5t34 -6.5t33 -7.5t25.5 -6q14 -3 94.5 -6.5t108.5 -16.5q61 -29 108 -91t73 -143t39.5 -177.5t8 -195.5t-21 -195t-47.5 -178.5t-72.5 -144t-96 -93t-116.5 -23.5q-34 4 -90.5 17.5 t-81.5 17.5q-64 8 -152 31q-77 22 -134.5 106.5t-85.5 200t-28.5 252.5zM63 1511q3 11 11 18.5t22 11t23 5t29 2.5t26 2q32 2 85.5 28.5t88.5 27.5q39 3 79.5 -20t81.5 -47t79 -23q19 0 46 14t44 28l18 13q54 28 113 10q29 -8 67 -89.5t29 -119.5q-2 -6 -6 -11t-11 -7.5 t-13.5 -4.5t-17 -2.5t-16.5 -0.5h-18h-16q-34 0 -91 -26.5t-104 -27.5q-36 -1 -72.5 21t-72 43t-72.5 18q-21 -1 -68.5 -29t-78.5 -34q-5 -2 -12 -6.5t-11 -6t-11 -2t-15 3.5q-31 18 -58 50.5t-69 107.5q-17 27 -9 53zM346 584q0 -148 36.5 -298t88.5 -161q52 -12 98 98 q57 135 67 337q11 236 -58 348q-27 46 -66 63t-78.5 -46t-63.5 -160t-24 -181z" />
<glyph unicode="&#xf6;" horiz-adv-x="983" d="M27.5 543q-0.5 137 26.5 262.5t90.5 232t154.5 158.5q11 6 25.5 9.5t33 3t34 -1.5t38 -5t34 -6.5t33 -7.5t25.5 -6q14 -3 94.5 -6.5t108.5 -16.5q61 -29 108 -91t73 -143t39.5 -177.5t8 -195.5t-21 -195t-47.5 -178.5t-72.5 -144t-96 -93t-116.5 -23.5q-34 4 -90.5 17.5 t-81.5 17.5q-64 8 -152 31q-77 22 -134.5 106.5t-85.5 200t-28.5 252.5zM225 1386q-8 15 20.5 86t49.5 105q6 9 16 13t25 2.5t28 -4.5t33 -8t31 -7q65 -8 72 -43q4 -17 -20.5 -64.5t-24.5 -76.5q-2 -5 -0.5 -19t0.5 -20q-8 -47 -27 -56q-24 -9 -109 30.5t-94 61.5zM346 584 q0 -148 36.5 -298t88.5 -161q52 -12 98 98q57 135 67 337q11 236 -58 348q-27 46 -66 63t-78.5 -46t-63.5 -160t-24 -181zM569 1386q-8 15 20.5 86t49.5 105q6 9 16 13t25 2.5t28 -4.5t33 -8t31 -7q65 -8 72 -43q4 -17 -20.5 -64.5t-24.5 -76.5q-2 -5 -0.5 -19t0.5 -20 q-8 -47 -27 -56q-24 -9 -109 30.5t-94 61.5z" />
<glyph unicode="&#xf9;" horiz-adv-x="1021" d="M34 1089.5q-2 9.5 1 43.5q6 38 13.5 51.5t31.5 25.5q38 19 173 -5.5t161 -53.5q4 -5 6.5 -10.5t2 -12t-1 -11.5t-3 -13.5t-4.5 -13l-6 -13.5t-5 -12q-3 -7 -14.5 -19.5t-19 -28t-7.5 -38.5q-5 -807 13 -813q16 -5 79.5 85t122 213.5t58.5 194.5v383q-19 19 -24 40t1 46 q12 67 66 89q30 12 160 -16t143 -46q21 -32 4 -76q-3 -6 -20 -21.5t-17 -29.5v-952q0 -16 16 -43t11 -45q-11 -42 -64 -56q-34 -8 -159.5 24t-137.5 67q-4 10 -4 19t0.5 13.5t5 17.5t5.5 17q14 43 14 111v20q-19 -63 -50.5 -123t-78 -107.5t-92.5 -47.5q-70 0 -180.5 48.5 t-127.5 86.5q-14 33 -25 96t-17 146.5t-10 165.5t-5 180.5t-1 161t0.5 137.5t0.5 82q-13 33 -15 42.5zM301 1597q14 35 97 61t124 19q10 -2 17 -22.5t13 -47.5t11 -36q10 -18 46 -68.5t63 -91t24 -47.5q-3 -6 -9 -12t-16.5 -10.5t-18 -8t-22.5 -7.5t-22 -6t-25 -6t-22 -5 q-15 -3 -42 -14.5t-39 -14t-36 1.5q-11 5 -20.5 32.5t-11.5 47.5q-1 6 -20.5 42.5t-35.5 71.5t-12 44q1 4 -25 31.5t-18 45.5z" />
<glyph unicode="&#xfa;" horiz-adv-x="1021" d="M34 1089.5q-2 9.5 1 43.5q6 38 13.5 51.5t31.5 25.5q38 19 173 -5.5t161 -53.5q4 -5 6.5 -10.5t2 -12t-1 -11.5t-3 -13.5t-4.5 -13l-6 -13.5t-5 -12q-3 -7 -14.5 -19.5t-19 -28t-7.5 -38.5q-5 -807 13 -813q16 -5 79.5 85t122 213.5t58.5 194.5v383q-19 19 -24 40t1 46 q12 67 66 89q30 12 160 -16t143 -46q21 -32 4 -76q-3 -6 -20 -21.5t-17 -29.5v-952q0 -16 16 -43t11 -45q-11 -42 -64 -56q-34 -8 -159.5 24t-137.5 67q-4 10 -4 19t0.5 13.5t5 17.5t5.5 17q14 43 14 111v20q-19 -63 -50.5 -123t-78 -107.5t-92.5 -47.5q-70 0 -180.5 48.5 t-127.5 86.5q-14 33 -25 96t-17 146.5t-10 165.5t-5 180.5t-1 161t0.5 137.5t0.5 82q-13 33 -15 42.5zM315 1364q-3 7 24.5 47.5t63.5 91t46 68.5q5 9 10.5 36t12.5 47.5t17 22.5q41 7 124.5 -19t97.5 -61q8 -18 -18 -45.5t-25 -31.5q4 -9 -12 -44t-35.5 -71.5t-20.5 -42.5 q-2 -20 -12 -47t-21 -33q-24 -4 -36 -1.5t-38.5 14t-41.5 14.5q-5 1 -22 5t-25 6t-22.5 6t-22.5 7.5t-18.5 8t-16.5 10.5t-9 12z" />
<glyph unicode="&#xfb;" horiz-adv-x="1021" d="M34 1089.5q-2 9.5 1 43.5q6 38 13.5 51.5t31.5 25.5q38 19 173 -5.5t161 -53.5q4 -5 6.5 -10.5t2 -12t-1 -11.5t-3 -13.5t-4.5 -13l-6 -13.5t-5 -12q-3 -7 -14.5 -19.5t-19 -28t-7.5 -38.5q-5 -807 13 -813q16 -5 79.5 85t122 213.5t58.5 194.5v383q-19 19 -24 40t1 46 q12 67 66 89q30 12 160 -16t143 -46q21 -32 4 -76q-3 -6 -20 -21.5t-17 -29.5v-952q0 -16 16 -43t11 -45q-11 -42 -64 -56q-34 -8 -159.5 24t-137.5 67q-4 10 -4 19t0.5 13.5t5 17.5t5.5 17q14 43 14 111v20q-19 -63 -50.5 -123t-78 -107.5t-92.5 -47.5q-70 0 -180.5 48.5 t-127.5 86.5q-14 33 -25 96t-17 146.5t-10 165.5t-5 180.5t-1 161t0.5 137.5t0.5 82q-13 33 -15 42.5zM137 1307q-8 21 19.5 63t70 103.5t60.5 109.5q1 1 11.5 36t20.5 46q21 20 138.5 46.5t146.5 14.5q15 -6 18.5 -18t6.5 -31t16 -35q5 -10 30.5 -35.5l56.5 -56.5t70 -84.5 t66 -111.5q-20 -35 -93 -68t-103 -22q-21 8 -28.5 19t-13 28t-20.5 32q-4 5 -14.5 25.5t-20.5 35t-35.5 35.5t-60.5 38q-15 -28 -32.5 -56.5t-28.5 -42.5l-10 -14q-5 -7 -14 -43.5t-17 -40.5q-42 -28 -135 -14t-105 41z" />
<glyph unicode="&#xfc;" d="M34 1089.5q-2 9.5 1 43.5q6 38 13.5 51.5t31.5 25.5q38 19 173 -5.5t161 -53.5q4 -5 6.5 -10.5t2 -12t-1 -11.5t-3 -13.5t-4.5 -13l-6 -13.5t-5 -12q-3 -7 -14.5 -19.5t-19 -28t-7.5 -38.5q-5 -807 13 -813q16 -5 79.5 85t122 213.5t58.5 194.5v383q-19 19 -24 40t1 46 q12 67 66 89q30 12 160 -16t143 -46q21 -32 4 -76q-3 -6 -20 -21.5t-17 -29.5v-952q0 -16 16 -43t11 -45q-11 -42 -64 -56q-34 -8 -159.5 24t-137.5 67q-4 10 -4 19t0.5 13.5t5 17.5t5.5 17q14 43 14 111v20q-19 -63 -50.5 -123t-78 -107.5t-92.5 -47.5q-70 0 -180.5 48.5 t-127.5 86.5q-14 33 -25 96t-17 146.5t-10 165.5t-5 180.5t-1 161t0.5 137.5t0.5 82q-13 33 -15 42.5zM225 1386q-8 15 20.5 86t49.5 105q6 9 16 13t25 2.5t28 -4.5t33 -8t31 -7q65 -8 72 -43q4 -17 -20.5 -64.5t-24.5 -76.5q-2 -5 -0.5 -19t0.5 -20q-8 -47 -27 -56 q-24 -9 -109 30.5t-94 61.5zM569 1386q-8 15 20.5 86t49.5 105q6 9 16 13t25 2.5t28 -4.5t33 -8t31 -7q65 -8 72 -43q4 -17 -20.5 -64.5t-24.5 -76.5q-2 -5 -0.5 -19t0.5 -20q-8 -47 -27 -56q-24 -9 -109 30.5t-94 61.5z" />
<glyph unicode="&#xff;" horiz-adv-x="1093" d="M-27 1049q-2 17 62 59t141.5 71.5t106.5 12.5q37 -20 47 -70q8 -36 24 -88l181 -497l192 512q4 12 11.5 40t12.5 42t17 29.5t29 21.5q44 11 104.5 0t116.5 -37.5t63 -50.5q13 -47 -20 -97q-4 -6 -24.5 -29t-26.5 -42l-408 -1176q-4 -14 -2.5 -36t-1.5 -36 q-14 -61 -29 -75q-7 -7 -16 -9q-46 -10 -142 22t-132 67q-43 41 -19 112q4 13 24.5 38t24.5 44l68 234l-332 815q-5 14 -26 31t-27 30q-13 27 -19 62zM219 1389q-8 15 20.5 85.5t49.5 104.5q6 9 16 13t25 2.5t28 -4.5t33 -8t31 -7q65 -8 72 -43q4 -17 -20.5 -64.5 t-24.5 -76.5q-2 -5 -0.5 -19t0.5 -20q-8 -47 -27 -56q-24 -9 -109 31t-94 62zM563 1389q-8 15 20.5 85.5t49.5 104.5q6 9 16 13t25 2.5t28 -4.5t33 -8t31 -7q65 -8 72 -43q4 -17 -20.5 -64.5t-24.5 -76.5q-2 -5 -0.5 -19t0.5 -20q-8 -47 -27 -56q-24 -9 -109 31t-94 62z" />
<glyph unicode="&#x178;" horiz-adv-x="1146" d="M78 1210q0 13 11 28t20 22t32 24q134 103 187 98q26 -4 45.5 -31t23.5 -48q1 -8 2 -43.5t7 -55.5q23 -120 60.5 -220.5t96.5 -221.5q11 27 39 96.5t43.5 104.5t42 93t55.5 109.5t64 104.5q7 13 12.5 37t11.5 30q32 40 89 31q39 -5 120 -57t84 -76q3 -36 -7.5 -68 t-31.5 -41q-4 -2 -9.5 -5t-9.5 -5t-7 -2q-96 -149 -246.5 -505.5t-157.5 -426.5q-2 -14 6.5 -46t6.5 -54q-3 -42 -18.5 -79.5t-37.5 -41.5q-22 -3 -113 24.5t-122 49.5q-40 29 -51 54.5t6 68.5q7 16 19.5 50t35.5 96t43 116q-186 383 -245 527q-48 119 -74 208q-3 9 -18 25 t-15 30zM262 1503q-8 15 20.5 86t49.5 105q6 9 16 13t25 2.5t28 -4.5t33 -8t31 -7q65 -8 72 -43q4 -17 -20.5 -65t-24.5 -77q-2 -5 -0.5 -19t0.5 -20q-7 -46 -27 -55q-24 -9 -109 30.5t-94 61.5zM606 1503q-8 15 20.5 86t49.5 105q6 9 16 13t25 2.5t28 -4.5t33 -8t31 -7 q65 -8 72 -43q4 -17 -20.5 -65t-24.5 -77q-2 -5 -0.5 -19t0.5 -20q-7 -46 -27 -55q-24 -9 -109 30.5t-94 61.5z" />
<glyph unicode="&#x2000;" horiz-adv-x="910" />
<glyph unicode="&#x2001;" horiz-adv-x="1820" />
<glyph unicode="&#x2002;" horiz-adv-x="910" />
<glyph unicode="&#x2003;" horiz-adv-x="1820" />
<glyph unicode="&#x2004;" horiz-adv-x="606" />
<glyph unicode="&#x2005;" horiz-adv-x="455" />
<glyph unicode="&#x2006;" horiz-adv-x="303" />
<glyph unicode="&#x2007;" horiz-adv-x="303" />
<glyph unicode="&#x2008;" horiz-adv-x="227" />
<glyph unicode="&#x2009;" horiz-adv-x="364" />
<glyph unicode="&#x200a;" horiz-adv-x="101" />
<glyph unicode="&#x2010;" horiz-adv-x="1007" d="M84 840q-3 36 22 67t56 37q7 4 58 0.5t73 -2.5q3 0 89 5.5t178.5 10.5t178.5 3.5t101 -13.5q41 -33 70.5 -138.5t17.5 -147.5q-8 -27 -39.5 -37.5t-65.5 -8.5q-12 1 -59 14t-78 11h-313q-21 -1 -52.5 -22t-54.5 -19q-30 3 -48 21t-36 55.5t-28 52.5q-7 9 -22.5 28.5 t-24 30.5t-16 26t-7.5 26z" />
<glyph unicode="&#x2011;" horiz-adv-x="1007" d="M84 840q-3 36 22 67t56 37q7 4 58 0.5t73 -2.5q3 0 89 5.5t178.5 10.5t178.5 3.5t101 -13.5q41 -33 70.5 -138.5t17.5 -147.5q-8 -27 -39.5 -37.5t-65.5 -8.5q-12 1 -59 14t-78 11h-313q-21 -1 -52.5 -22t-54.5 -19q-30 3 -48 21t-36 55.5t-28 52.5q-7 9 -22.5 28.5 t-24 30.5t-16 26t-7.5 26z" />
<glyph unicode="&#x2012;" horiz-adv-x="1007" d="M84 840q-3 36 22 67t56 37q7 4 58 0.5t73 -2.5q3 0 89 5.5t178.5 10.5t178.5 3.5t101 -13.5q41 -33 70.5 -138.5t17.5 -147.5q-8 -27 -39.5 -37.5t-65.5 -8.5q-12 1 -59 14t-78 11h-313q-21 -1 -52.5 -22t-54.5 -19q-30 3 -48 21t-36 55.5t-28 52.5q-7 9 -22.5 28.5 t-24 30.5t-16 26t-7.5 26z" />
<glyph unicode="&#x2013;" horiz-adv-x="1024" d="M84 840q-3 36 22 67t56 37q7 4 58 0.5t73 -2.5q3 0 89 5.5t178.5 10.5t178.5 3.5t101 -13.5q41 -33 70.5 -138.5t17.5 -147.5q-8 -27 -39.5 -37.5t-65.5 -8.5q-12 1 -59 14t-78 11h-313q-21 -1 -52.5 -22t-54.5 -19q-30 3 -48 21t-36 55.5t-28 52.5q-7 9 -22.5 28.5 t-24 30.5t-16 26t-7.5 26z" />
<glyph unicode="&#x2014;" horiz-adv-x="2048" d="M84 840q-3 36 22 67t56 37q7 4 58 0.5t73 -2.5q2 0 122 3t287.5 6.5t369 6.5t372 4t290.5 -2.5t130 -11.5q41 -33 70.5 -138.5t17.5 -147.5q-8 -27 -39.5 -37.5t-65.5 -8.5q-12 1 -59 14t-78 11h-1337q-21 -1 -52.5 -22t-54.5 -19q-30 3 -48 21t-36 55.5t-28 52.5 q-7 9 -22.5 28.5t-24 30.5t-16 26t-7.5 26z" />
<glyph unicode="&#x2018;" horiz-adv-x="446" d="M17.5 1411.5q8.5 65.5 32 125t61.5 100.5t79 51q30 7 112 -35t95 -68q11 -23 -1.5 -59.5t-43.5 -50.5q-51 -24 -73 -75t-16 -101.5t25.5 -92t43.5 -51.5q23 -9 -1 -41q-25 -33 -57 -37h-14q-113 25 -168 84q-46 49 -64.5 117t-10 133.5z" />
<glyph unicode="&#x2019;" horiz-adv-x="434" d="M12 1585q13 26 95 68t112 35q41 -10 79 -51t61.5 -100.5t32 -125t-10 -133.5t-64.5 -117q-55 -59 -167 -84q-29 -7 -62 27q-30 30 -18 46q3 3 8 5q24 10 43.5 51.5t25.5 92t-16 101.5t-74 75q-31 14 -43.5 50.5t-1.5 59.5z" />
<glyph unicode="&#x201c;" horiz-adv-x="806" d="M17.5 1411.5q8.5 65.5 32 125t61.5 100.5t79 51q30 7 112 -35t95 -68q11 -23 -1.5 -59.5t-43.5 -50.5q-51 -24 -73 -75t-16 -101.5t25.5 -92t43.5 -51.5q23 -9 -1 -41q-25 -33 -57 -37h-14q-113 25 -168 84q-46 49 -64.5 117t-10 133.5zM414 1310.5q-14 88.5 8 166 t66 138t96 73.5q30 7 112 -35t95 -68q11 -23 -2 -59.5t-44 -50.5q-51 -24 -73 -75t-16 -101.5t25.5 -92t43.5 -51.5q23 -9 -1 -41q-25 -33 -57 -37q-7 -2 -14 0q-113 25 -168 84q-57 61 -71 149.5z" />
<glyph unicode="&#x201d;" horiz-adv-x="806" d="M12 1585q13 26 95 68t112 35q41 -10 79 -51t61.5 -100.5t32 -125t-10 -133.5t-64.5 -117q-55 -59 -167 -84q-29 -7 -62 27q-30 30 -18 46q3 3 8 5q24 10 43.5 51.5t25.5 92t-16 101.5t-74 75q-31 14 -43.5 50.5t-1.5 59.5zM406 1585q13 26 94.5 68t111.5 35 q52 -13 96 -73.5t66 -138t8 -166t-71 -149.5q-55 -59 -168 -84q-29 -7 -62 27q-30 30 -18 46q3 3 8 5q24 10 43.5 51.5t25.5 92t-16 101.5t-73 75q-31 14 -43.5 50.5t-1.5 59.5z" />
<glyph unicode="&#x2022;" horiz-adv-x="598" d="M30 817q-1 8 6.5 19t8.5 14q6 23 25 64t31.5 81.5t9.5 81.5q-1 37 37 61.5t83 24.5q44 0 118 -49t133 -108t73 -91q11 -19 1.5 -39.5t-24 -33.5t-32 -34.5t-23.5 -41.5q-7 -16 -12 -47t-12 -47q-18 -35 -28 -52.5t-30 -36t-39 -14.5q-124 26 -315 230q-10 10 -11 18z" />
<glyph unicode="&#x2026;" horiz-adv-x="1351" d="M66 33q-9 19 26 107.5t60 129.5q9 15 30 18.5t38.5 0.5t51 -11.5t47.5 -11.5q82 -13 91 -53q5 -22 -26.5 -80.5t-31.5 -95.5q-2 -7 -0.5 -24.5t0.5 -24.5q-8 -59 -33 -70q-30 -12 -135 38t-118 77zM496 33q-9 19 26 107.5t60 129.5q9 15 30 18.5t39 0.5t51.5 -11.5 t47.5 -11.5q81 -13 90 -53q5 -22 -26.5 -80.5t-31.5 -95.5q-2 -7 -0.5 -24.5t0.5 -24.5q-8 -59 -32 -70q-30 -12 -135.5 38t-118.5 77zM926 33q-9 19 26 107.5t60 129.5q9 15 30 18.5t39 0.5t51.5 -11.5t47.5 -11.5q81 -13 90 -53q5 -22 -26.5 -80.5t-31.5 -95.5 q-2 -7 -0.5 -24.5t0.5 -24.5q-8 -59 -32 -70q-30 -12 -135.5 38t-118.5 77z" />
<glyph unicode="&#x202f;" horiz-adv-x="364" />
<glyph unicode="&#x205f;" horiz-adv-x="455" />
<glyph unicode="&#x2122;" horiz-adv-x="1433" d="M10 1509q8 23 43 31q10 3 24.5 1.5t22.5 0.5l322 82q6 1 23.5 8.5t29.5 5.5q25 0 35 -18q10 -16 18.5 -61t-0.5 -76q-7 -10 -32 -10q-7 0 -20 6t-21 4l-97 -27v-483q0 -30 15 -60q2 -9 -3.5 -36t-17.5 -35q-10 -6 -82 8t-84 31q-12 18 2 45q11 22 11 35v456l-66 -18 q-4 -1 -14.5 -8t-18.5 -5q-21 6 -58.5 55.5t-31.5 67.5zM554.5 889q0.5 6 3.5 19t3 20v653q0 10 9.5 24.5t21.5 18.5q16 6 122 -22.5t113 -49.5q3 -8 0.5 -28.5t1.5 -30.5l123 -334q33 104 67.5 232t50.5 178.5t32 54.5q21 3 36 0.5t44 -9t45 -7.5q7 -1 33 -3t36 -4t27 -5.5 t25 -10.5t10 -16q5 -15 -0.5 -38t-5.5 -28v-563q0 -9 11 -27.5t9 -27.5q-5 -41 -22 -45q-21 -5 -86.5 12.5t-73.5 36.5q-6 2 -2 25t4 28v418q-21 -40 -49 -135t-46 -171l-18 -75q-2 -8 1 -34.5t3 -29.5v-8.5v-8.5v-8.5t-0.5 -8.5t-1.5 -7t-2.5 -6.5t-3.5 -5t-5 -4t-7 -2.5 q-28 -8 -98 1t-101 38q-7 2 -5 23t1 26q-114 355 -145 410v-367q0 -11 7.5 -33.5t8.5 -31.5q5 -8 3.5 -42t-13.5 -42q-15 -8 -83 4t-79 30q-5 11 -4.5 17z" />
<glyph unicode="&#x25fc;" horiz-adv-x="1239" d="M0 0v1239h1239v-1239h-1239z" />
</font>
</defs>
</svg>
