<?xml version="1.0" encoding="utf-8"?>
<!-- Generator: Adobe Illustrator 15.1.0, SVG Export Plug-In . SVG Version: 6.00 Build 0)  -->
<!DOCTYPE svg PUBLIC "-//W3C//DTD SVG 1.1//EN" "http://www.w3.org/Graphics/SVG/1.1/DTD/svg11.dtd">
<svg version="1.1" id="Barley" xmlns="http://www.w3.org/2000/svg" xmlns:xlink="http://www.w3.org/1999/xlink" x="0px" y="0px"
	 width="65px" height="175.5px" viewBox="0 0 65 175.5" enable-background="new 0 0 65 175.5" xml:space="preserve">
<path d="M18.5,123.3L0,111.9v15.3c0,7.399,3.8,14.3,10.2,18.2l13,8v22h5.5v-18.7v-11.9v-3.3C28.7,134.1,24.8,127.2,18.5,123.3z"/>
<path d="M36.3,141.5v3.4V156.8v18.7h5.5v-22l13-8c6.302-3.9,10.2-10.8,10.2-18.2V112l-18.5,11.3C40.2,127.2,36.3,134.1,36.3,141.5z"
	/>
<path d="M18.5,92.9L0,81.5v15.3c0,7.4,3.8,14.3,10.2,18.2l18.5,11.5v-15.3C28.7,103.7,24.8,96.8,18.5,92.9z"/>
<path d="M36.3,111.2v15.3l18.5-11.4C61.102,111.201,65,104.3,65,96.9V81.6L46.5,92.9C40.2,96.8,36.3,103.7,36.3,111.2z"/>
<path d="M18.5,62.9L0.1,51.5v15.3C0.1,74.2,3.9,81.1,10.299,85l18.5,11.4V81.1C28.7,73.7,24.8,66.8,18.5,62.9z"/>
<path d="M46.5,62.9c-6.3,3.9-10.2,10.8-10.2,18.2V96.4L54.8,85C61.102,81.1,65,74.2,65,66.8V51.5L46.5,62.9z"/>
<rect x="8.5" y="10.6" width="5.5" height="43.3"/>
<rect x="51" y="10.6" width="5.5" height="43.3"/>
<rect x="23.2" width="5.5" height="61.7"/>
<rect x="36.3" width="5.5" height="61.7"/>
</svg>
