<?xml version="1.0" encoding="utf-8"?>
<!-- Generator: Adobe Illustrator 15.1.0, SVG Export Plug-In . SVG Version: 6.00 Build 0)  -->
<!DOCTYPE svg PUBLIC "-//W3C//DTD SVG 1.1//EN" "http://www.w3.org/Graphics/SVG/1.1/DTD/svg11.dtd">
<svg version="1.1" id="barrel" xmlns="http://www.w3.org/2000/svg" xmlns:xlink="http://www.w3.org/1999/xlink" x="0px" y="0px"
	 width="124.525px" height="137.551px" viewBox="0 0 124.525 137.551" enable-background="new 0 0 124.525 137.551"
	 xml:space="preserve">
<g>
	<polygon fill="#FFFFFF" points="115.389,16.995 109.076,0 15.693,0 9.38,16.995 	"/>
	<path fill="#FFFFFF" d="M94.076,112.804h23.789c6.793-17.605,10.687-55.272,0.149-88.106H94.05
		C101.385,42.697,101.219,88.864,94.076,112.804z"/>
	<path fill="#FFFFFF" d="M87.889,24.722H65.491v88.082h22.576C94.719,91.198,96.552,48.864,87.889,24.722z"/>
	<path fill="#FFFFFF" d="M36.754,112.804H59.33V24.722H36.88C28.218,48.031,29.385,92.198,36.754,112.804z"/>
	<path fill="#FFFFFF" d="M30.693,24.722H6.577c-9.525,31.642-8.025,64.142,0.15,88.107h23.788
		C22.552,82.197,23.885,49.031,30.693,24.722z"/>
	<polygon fill="#FFFFFF" points="15.567,137.552 109.203,137.552 115.239,120.556 9.531,120.556 	"/>
</g>
</svg>
