<?xml version="1.0" encoding="utf-8"?>
<!-- Generator: Adobe Illustrator 15.1.0, SVG Export Plug-In . SVG Version: 6.00 Build 0)  -->
<!DOCTYPE svg PUBLIC "-//W3C//DTD SVG 1.1//EN" "http://www.w3.org/Graphics/SVG/1.1/DTD/svg11.dtd">
<svg version="1.1" id="beer_icon_glass" xmlns="http://www.w3.org/2000/svg" xmlns:xlink="http://www.w3.org/1999/xlink" x="0px"
	 y="0px" width="73.5px" height="124.9px" viewBox="0 0 73.5 124.9" enable-background="new 0 0 73.5 124.9" xml:space="preserve">
<g id="glass">
	<path id="foam" fill="#E5D6B0" d="M67.7,10c0,2.5,0,15.4,0,15.4h-63c0,0,0-13,0-15.4c0-3.7,9-10,31.5-10S67.7,6.6,67.7,10z"/>
	<path opacity="0.5" enable-background="new    " d="M1,10.2l7,114.7h58.5l7-114.7H1z M59.9,117.9H11.6L5.4,14.2H66L59.9,117.9z"/>
	<path fill="#FFFFFF" d="M0,9.2l7,114.7h58.5l7-114.7H0z M58.9,116.9H13.6L7.4,16.2h9.2l8.9,69.9l-1.7-69.9H65L58.9,116.9z"/>
	<polygon fill="#FFFFFF" points="55.4,67.5 47.3,110.3 52.9,110.3 	"/>
</g>
</svg>
