<?xml version="1.0" encoding="utf-8"?>
<!-- Generator: Adobe Illustrator 15.1.0, SVG Export Plug-In . SVG Version: 6.00 Build 0)  -->
<!DOCTYPE svg PUBLIC "-//W3C//DTD SVG 1.1//EN" "http://www.w3.org/Graphics/SVG/1.1/DTD/svg11.dtd">
<svg version="1.1" id="Bulb" xmlns="http://www.w3.org/2000/svg" xmlns:xlink="http://www.w3.org/1999/xlink" x="0px" y="0px"
	 width="14px" height="20px" viewBox="0 0 14 20" enable-background="new 0 0 14 20" xml:space="preserve">
<g>
	<path d="M4,19c0,0.55,0.45,1,1,1h4c0.55,0,1-0.45,1-1v-1H4V19z M7,0C3.141,0,0,3.14,0,7c0,2.38,1.19,4.471,3,5.74V15
		c0,0.55,0.45,1,1,1h6c0.55,0,1-0.45,1-1v-2.26c1.811-1.27,3-3.36,3-5.74C14,3.14,10.859,0,7,0z M9.85,11.1L9,11.7V14H5v-2.3
		L4.15,11.1C2.8,10.16,2,8.63,2,7c0-2.76,2.24-5,5-5s5,2.24,5,5C12,8.63,11.2,10.16,9.85,11.1z"/>
</g>
</svg>
