<?xml version="1.0" encoding="utf-8"?>
<!-- Generator: Adobe Illustrator 15.1.0, SVG Export Plug-In . SVG Version: 6.00 Build 0)  -->
<!DOCTYPE svg PUBLIC "-//W3C//DTD SVG 1.1//EN" "http://www.w3.org/Graphics/SVG/1.1/DTD/svg11.dtd">
<svg version="1.1" id="event" xmlns="http://www.w3.org/2000/svg" xmlns:xlink="http://www.w3.org/1999/xlink" x="0px" y="0px"
	 width="18px" height="20px" viewBox="0 0 18 20" enable-background="new 0 0 18 20" xml:space="preserve">
<g>
	<path d="M13.529,10.061L12.471,9L7.59,13.88l-2.12-2.12L4.41,12.82L7.59,16L13.529,10.061z M16,2h-1V0h-2v2H5V0H3v2H2
		C0.89,2,0.01,2.9,0.01,4L0,18c0,1.1,0.89,2,2,2h14c1.1,0,2-0.9,2-2V4C18,2.9,17.1,2,16,2z M16,18H2V7h14V18z"/>
</g>
</svg>
