<?xml version="1.0" encoding="utf-8"?>
<!-- Generator: Adobe Illustrator 15.1.0, SVG Export Plug-In . SVG Version: 6.00 Build 0)  -->
<!DOCTYPE svg PUBLIC "-//W3C//DTD SVG 1.1//EN" "http://www.w3.org/Graphics/SVG/1.1/DTD/svg11.dtd">
<svg version="1.1" id="hops" xmlns="http://www.w3.org/2000/svg" xmlns:xlink="http://www.w3.org/1999/xlink" x="0px" y="0px"
	 width="93.883px" height="120.885px" viewBox="0 0 93.883 120.885" enable-background="new 0 0 93.883 120.885"
	 xml:space="preserve">
<g>
	<path d="M39.99,26.306l0.502,0.456c2.215-1.597,4.419-2.604,6.453-2.604c2.034,0,4.239,1.008,6.454,2.604l0.502-0.456
		c2.104-1.912,5.51-4.663,9.127-6.962C58.42,9.155,49.006,0,46.943,0c-2.064,0-11.479,9.155-16.082,19.342
		C34.48,21.643,37.886,24.393,39.99,26.306z"/>
	<path d="M62.852,49.438c-5.137-9.837-13.879-18.21-15.909-18.21c-2.03,0-10.771,8.373-15.908,18.21
		c4.699,2.613,9.011,5.976,11.894,10.222c0.063,0.095,0.118,0.19,0.177,0.284c1.418-0.703,2.726-1.111,3.836-1.111
		c1.112,0,2.42,0.408,3.836,1.111c0.061-0.094,0.113-0.188,0.178-0.282C53.84,55.415,58.151,52.05,62.852,49.438z"/>
	<path d="M46.943,120.885c23.172,0,46.209-14.756,46.94-39.75c-3.242-1.065-14.506-0.897-24.5,5.248l-3.434,2.114l-1.646-3.68
		c-3.965-8.866-14.406-18.133-17.36-18.893c-2.953,0.76-13.396,10.021-17.363,18.891l-1.646,3.679L24.5,86.381
		C14.508,80.233,3.238,80.069,0,81.133C0.732,106.129,23.771,120.885,46.943,120.885z"/>
	<path d="M24.911,78.526c3.015-5.077,7.761-10.648,12.364-14.566c-0.07-0.109-0.119-0.219-0.193-0.328
		c-6.535-9.627-24.41-14.353-30.324-14.353c-0.85,0-1.453,0.098-1.738,0.293c-1.66,1.127-4.187,13.295-2.574,24.087
		c0.713-0.051,1.461-0.075,2.238-0.075C10.514,73.584,17.943,75.032,24.911,78.526z"/>
	<path d="M87.129,49.281c-5.912,0-23.789,4.724-30.324,14.353c-0.072,0.108-0.123,0.219-0.193,0.328
		c4.604,3.918,9.35,9.49,12.363,14.566c6.973-3.493,14.406-4.94,20.238-4.94c0.771,0,1.52,0.024,2.23,0.075
		c1.609-10.792-0.916-22.961-2.574-24.088C88.584,49.379,87.981,49.281,87.129,49.281z"/>
	<path d="M73.956,22.176c-0.074-0.02-0.162-0.028-0.26-0.028c-1.988,0-8.895,3.8-15.041,9.389c4.688,5.05,8.773,11.39,10.465,14.627
		l0.121,0.236c5.563-2.235,11.053-3.519,14.934-3.979C81.772,32.271,75.801,22.652,73.956,22.176z"/>
	<path d="M20.191,22.148c-0.101,0-0.187,0.01-0.26,0.029c-1.847,0.477-7.814,10.094-10.22,20.243
		c3.88,0.462,9.369,1.744,14.933,3.979l0.125-0.235c1.688-3.237,5.774-9.577,10.465-14.628
		C29.086,25.949,22.182,22.148,20.191,22.148z"/>
</g>
</svg>
