<?xml version="1.0" encoding="utf-8"?>
<!-- Generator: Adobe Illustrator 15.1.0, SVG Export Plug-In . SVG Version: 6.00 Build 0)  -->
<!DOCTYPE svg PUBLIC "-//W3C//DTD SVG 1.1//EN" "http://www.w3.org/Graphics/SVG/1.1/DTD/svg11.dtd">
<svg version="1.1" id="keg_half" xmlns="http://www.w3.org/2000/svg" xmlns:xlink="http://www.w3.org/1999/xlink" x="0px" y="0px"
	 width="96.57px" height="141.6px" viewBox="0 0 96.57 141.6" enable-background="new 0 0 96.57 141.6" xml:space="preserve">
<g>
	<path d="M95.165,15.868V0H1.407v15.867c2.477,0,4.483,2.008,4.483,4.484c0,2.476-2.008,4.483-4.483,4.483V45.63h93.758V24.866
		c-2.062-0.154-4.214-2.106-4.214-4.499C90.951,17.976,93.104,16.025,95.165,15.868z M57.955,11.776H38.911V5.621h19.044V11.776z"/>
	<polygon points="1.407,49.85 1.407,75.306 1.407,95.536 95.165,95.536 95.165,75.306 95.165,49.85 96.572,47.681 0,47.681 	"/>
	<path d="M90.681,121.156c0-2.477,2.008-4.483,4.484-4.483v-17.24l1.406-1.849H0l1.406,1.849v17.303
		c2.051,0.157,4.214,2.105,4.214,4.5c0,2.39-2.163,4.344-4.214,4.498v15.869h93.758v-15.961
		C92.688,125.64,90.681,123.632,90.681,121.156z M57.076,135.713H38.032v-6.15h19.044V135.713z"/>
</g>
</svg>
