<?xml version="1.0" encoding="utf-8"?>
<!-- Generator: Adobe Illustrator 15.1.0, SVG Export Plug-In . SVG Version: 6.00 Build 0)  -->
<!DOCTYPE svg PUBLIC "-//W3C//DTD SVG 1.1//EN" "http://www.w3.org/Graphics/SVG/1.1/DTD/svg11.dtd">
<svg version="1.1" id="keg_sixth" xmlns="http://www.w3.org/2000/svg" xmlns:xlink="http://www.w3.org/1999/xlink" x="0px" y="0px"
	 width="56.6px" height="141.6px" viewBox="0 0 56.6 141.6" enable-background="new 0 0 56.6 141.6" xml:space="preserve">
<g>
	<path d="M55.199,15.9V0H1.4V15.9c2.5,0,4.5,2,4.5,4.5s-2,4.5-4.5,4.5v20.8h53.8V24.9C53.1,24.699,51,22.8,51,20.4
		C51,18,53.1,16,55.199,15.9z M38,11.8H19V5.6h19V11.8z"/>
	<polygon points="1.4,49.8 1.4,75.3 1.4,95.5 55.199,95.5 55.199,75.3 55.199,49.8 56.6,47.699 0,47.699 	"/>
	<path d="M50.699,121.1c0-2.5,2-4.5,4.5-4.5V99.4l1.4-1.8H0L1.4,99.4v17.3c2.101,0.2,4.2,2.101,4.2,4.5c0,2.4-2.2,4.301-4.2,4.5
		v15.9h53.8v-16C52.699,125.6,50.699,123.6,50.699,121.1z M37.1,135.699h-19V129.5h19V135.699z"/>
</g>
</svg>
