<?xml version="1.0" encoding="utf-8"?>
<!-- Generator: Adobe Illustrator 15.1.0, SVG Export Plug-In . SVG Version: 6.00 Build 0)  -->
<!DOCTYPE svg PUBLIC "-//W3C//DTD SVG 1.1//EN" "http://www.w3.org/Graphics/SVG/1.1/DTD/svg11.dtd">
<svg version="1.1" id="logo" xmlns="http://www.w3.org/2000/svg" xmlns:xlink="http://www.w3.org/1999/xlink" x="0px" y="0px"
	 width="307.072px" height="409.278px" viewBox="0 0 307.072 409.278" enable-background="new 0 0 307.072 409.278"
	 xml:space="preserve">
<g id="text_1_">
	<g id="ventura">
		<path fill="#FFFFFF" d="M95.227,386.511c-3.126-1.169-2.738,1.269-3.34,3.669c-0.808,3.221-1.928,6.349-2.514,9.625
			c-1.013-2.022-1.139-4.771-1.466-6.978c-0.154-1.037-0.308-2.075-0.44-3.115c-0.092-0.669,0.545-1.185,0.294-1.931
			c-0.598-1.194-4.495-2.307-4.814-0.415c0.049,0.342,0.105,0.685,0.17,1.025c0,4.624,1.141,8.901,2.525,13.275
			c0.277,0.874,0.612,3.664,1.389,4.156c1.184,0.752,3.552,1.681,4.982,1.435c1.271-0.282,0.574-2.031,0.781-2.835
			c0-2.472,1.086-5.275,1.681-7.654c0.758-3.027,1.507-6.1,2.646-9.012C96.859,387.301,96.228,386.886,95.227,386.511
			C94.223,386.136,96.228,386.886,95.227,386.511z"/>
		<path fill="#FFFFFF" d="M107.418,402.04c-2.013-1.548-3.171-0.666-5.266,0.568v-2.563c0.961-0.583,2.153-1.352,3.275-1.562h0.538
			c2.215,0,0.82-2.015,0.072-2.688c-1.708-1.538-1.921-0.815-3.885-0.22v-3.983c1.167-1.1,2.778-1.527,4.301-1.881
			c0.179,0.049,0.367,0.089,0.562,0.122c2.721,0-0.371-4.896-2.44-3.913c-1.497,0.712-2.334,1.222-3.973,0.614
			c-0.402-0.148-2.603-0.725-2.603,0.415v18.371c0,0.813,3.614,1.88,4.153,2.102c1.45-1.262,3.021-2.154,4.856-2.731
			c0.241,0.015,0.468,0.072,0.688,0.171C109.677,404.143,108.304,402.723,107.418,402.04
			C106.498,401.332,108.338,402.748,107.418,402.04z"/>
		<path fill="#FFFFFF" d="M122.104,386.499c-0.973-0.294-1.954-0.44-2.945-0.11c-1.108,0.369-0.513,1.057-0.513,1.906v0.342v1.173
			v4.276v3.813c-1.348-2.869-1.932-6.101-3.081-9.054c-0.76-1.953-5.238-4.55-6.083-1.479c0.002,0.305,0.035,0.606,0.098,0.904
			v15.321c-0.017,0.282-0.114,0.535-0.293,0.758c-0.664,1.674,3.621,2.919,4.545,2.175c1.121-0.563-0.098-1.896-0.098-2.591v-7.232
			c0.813,1.274,1.238,2.928,1.776,4.328c0.416,1.076,1.425,2.734,1.425,3.907v0.439c0,1.344,2.81,1.738,3.716,1.833h0.657
			c1.269,0,1.762-0.396,1.614-1.718c-0.076-0.297-0.117-0.6-0.123-0.906v-16.186C123.013,387.358,123.427,386.9,122.104,386.499
			C121.429,386.295,122.78,386.704,122.104,386.499z"/>
		<path fill="#FFFFFF" d="M136.631,386.284c-0.202-0.356-0.512-0.528-0.929-0.513c-0.418-0.093-1.057,0.274-1.417,0.421
			l-8.504,2.199h-0.244h-0.635c-1.168,0-1.835,0.86-1.215,1.876c0.936,1.534,1.434,2.085,2.974,1.863l1.735-0.44v12.116
			c0,0.76-1.114,1.864,0.024,2.385c0.562,0.257,3.512,1.268,4.032,0.748c1.167-0.643,0.171-2.553,0.171-3.451v-12.877l2.515-0.686
			c0.638-0.141,1.537,0.811,1.981-0.11C137.546,388.926,137.104,387.088,136.631,386.284
			C136.518,386.09,136.746,386.479,136.631,386.284z"/>
		<path fill="#FFFFFF" d="M149.032,386.438c-0.952-0.267-3.317-0.938-3.017,0.953c0.195,0.441,0.3,0.906,0.318,1.393
			c0.553,2.396,0.195,5.274,0.029,7.697c-0.119,1.728,0.045,6.742-1.905,7.646c-1.6,0.741-2.345-13.156-1.864-14.806
			c-0.088-0.613,0.464-1.105,0.464-1.71c0-0.958-2.181-1.271-2.803-1.423c-2.537-0.617-2.075,3.719-2.1,5.292
			c-0.052,3.341,0.111,6.705,0.745,9.992c0.552,2.864,1.436,3.959,4.303,4.711c1.022,0.35,2.125,0.903,3.227,0.903h0.123
			c4.748,0,4.055-11.892,4.055-14.729v-1.956v-1.665C150.608,387.188,150.683,386.901,149.032,386.438
			C148.161,386.193,149.904,386.683,149.032,386.438z"/>
		<path fill="#FFFFFF" d="M165.514,403.018c-2.185-1.093-3.761-3.354-5.547-4.998c1.952-1.737,6.704-6.033,4.182-8.943
			c-2.207-2.059-3.56-3.763-6.708-2.346c-1.262,0.569-1.781,0.742-3.134,0.392c-1.27-0.329-2.231-0.324-2.231,1.075v17.057
			c0,1.769,1.889,2.048,3.616,1.881c0.654-0.038,0.963-0.372,0.929-1.001c-0.207-0.349-0.338-0.724-0.391-1.125v-4.52l5.155,4.813
			c0.179,0.206,0.3,0.441,0.367,0.708c1.411,2.31,4.547-1.502,3.935-2.811C165.653,403.119,165.596,403.059,165.514,403.018
			C165.434,402.978,165.596,403.059,165.514,403.018z M156.23,395.675v-3.739c0.714-0.599,3.246-2.96,4.325-2.321
			C161.853,390.927,157.359,395.253,156.23,395.675C156.23,395.675,156.929,395.413,156.23,395.675z"/>
		<path fill="#FFFFFF" d="M178.539,392.62c-0.341-2.346-0.514-3.976-0.514-4.888c-0.662-0.698-6.573-2.489-6.573-1.1
			c0.067,0.507,0.108,0.982,0,1.49l-3.152,10.776c-0.583,0.233-1.08,0.584-1.489,1.052c0,0.049-0.009,0.13-0.024,0.244
			c0.012,0.427,0.183,0.777,0.513,1.051c-0.307,1.127-1.686,2.907-1.368,4.081c0.189,0.63,3.03,1.707,3.616,1.393
			c0.195-0.114,0.325-0.236,0.392-0.367c0.064-0.26,0.129-0.529,0.195-0.806c0.41-0.822,0.661-1.73,0.978-2.59
			c1.37-0.895,3.428-1.383,5.033-1.589c0.39,1.229,0.269,3.385,1.174,4.351c0.664,0.711,3.07,1.592,4.007,1.123
			c0.341-0.438,0.226-1.216,0.294-1.735C179.74,401.352,179.138,396.729,178.539,392.62
			C178.198,390.274,178.881,394.966,178.539,392.62z M173.702,397.996c-0.424,0.114-0.799,0.236-1.125,0.367
			c0.169-2.015,1.138-4.256,1.906-6.109c0,0.896,0.063,1.799,0.196,2.712c0.179,0.913,0.366,1.816,0.561,2.713
			C174.979,397.728,174.465,397.833,173.702,397.996C173.278,398.11,174.465,397.833,173.702,397.996z"/>
		<path fill="#FFFFFF" d="M187.494,403.164c-2.684-1.066-1.434,1.258-2.098,2.566c-0.563,1.11-3.345,1.131-2.7,2.382
			C184.71,412.019,192.147,405.01,187.494,403.164C186.819,402.896,188.171,403.433,187.494,403.164z"/>
		<path fill="#FFFFFF" d="M206.958,400.134c-1.451-0.726-2.24-1.195-2.736,0.623c-0.46,0.988-1.54,2.293-2.527,2.78
			c-0.929,0.459-1.363-3.164-1.412-3.647c-0.328-3.263-0.163-8.237,2.768-10.397c0.563,0.972,0.313,2.616,0.172,3.642
			c0,0.548-0.518,0.807-0.33,1.404c0.174,0.576,1.949,0.861,2.388,0.981c2.164,0.598,2.462-0.569,2.344-2.65
			c-0.191-3.381-3.195-8.225-7.354-6.542c-3.802,1.539-4.479,7.737-4.272,11.198c0.142,2.349,0.769,4.776,2.135,6.723
			c1.127,1.605,3.248,2.177,5.042,2.74c0.016,0,0.057,0.017,0.12,0.049h0.146c1.99,0,3.996-3.204,4.742-4.74
			C209.382,401.229,207.816,400.563,206.958,400.134C205.834,399.572,208.083,400.696,206.958,400.134z"/>
		<path fill="#FFFFFF" d="M223.062,399.719c-0.895-3.854-1.857-8.007-1.857-11.986c-0.663-0.698-6.573-2.489-6.573-1.1
			c0.067,0.507,0.108,0.982,0,1.49l-3.152,10.776c-0.583,0.233-1.08,0.584-1.489,1.052c0,0.049-0.009,0.13-0.026,0.244
			c0.014,0.427,0.185,0.777,0.515,1.051c-0.307,1.127-1.686,2.907-1.368,4.081c0.189,0.63,3.03,1.707,3.615,1.393
			c0.195-0.114,0.326-0.236,0.392-0.367c0.065-0.26,0.13-0.529,0.195-0.806c0.411-0.822,0.662-1.73,0.979-2.59
			c1.37-0.895,3.428-1.383,5.033-1.589c0.39,1.229,0.268,3.385,1.174,4.351c0.664,0.711,3.069,1.592,4.007,1.123
			c0.341-0.438,0.226-1.216,0.294-1.735C224.195,403.901,223.616,402.105,223.062,399.719S223.616,402.105,223.062,399.719z
			 M216.881,397.996c-0.425,0.114-0.799,0.236-1.125,0.367c0.169-2.015,1.138-4.256,1.905-6.109c0,0.896,0.064,1.799,0.196,2.712
			c0.18,0.913,0.367,1.816,0.562,2.713C218.159,397.728,217.645,397.833,216.881,397.996
			C216.457,398.11,217.645,397.833,216.881,397.996z"/>
	</g>
	<g id="surf-brewery">
		<path fill="#FFFFFF" d="M33.258,79.06c-1.985-1.775-4.341-3.348-7.109-3.225c-3.17,0.139-6.389,1.453-9.42,2.321
			c-3.384,0.753-11.561-4.955-8.554-8.807c0.664-0.922,6.148,5.979,7.177,6.107c2.447,0.245,8.829-3.288,5.911-6.135
			c-0.228-0.243-0.52-0.425-0.867-0.535c-0.483-0.187-0.816-0.338-0.995-0.46c-1.884-1.671-3.572-3.683-5.874-4.808
			c-2.896-1.416-5.516,0.503-8.087,1.766c-1.333,0.656-3.949,1.539-4.747,2.938c-1.469,2.711-0.326,6.455,0.875,9.047
			c2.687,5.793,8.007,7.424,13.896,6.002c2.916-0.703,5.959-2.691,8.869-1.053c0.889,0.501,6.11,5.104,3.423,6.145
			c-2.28,1.149-4.55-3.85-6.797-2.395c-1.377,0.892-7.413,4.918-4.11,6.88c0.676,0.154,1.188,0.224,1.527,0.206
			c1.901,0.239,3.589,1.46,5.42,1.957c2.543,0.692,4.113-0.396,6.099-1.868c1.821-2.021,3.985-2.458,5.266-5.22
			C36.608,84.806,35.805,81.33,33.258,79.06C31.313,77.319,34.936,80.556,33.258,79.06z"/>
		<path fill="#FFFFFF" d="M34.983,41.368c-1.225-1.896-2.314-1.158-4.148-0.317c-1.712,0.775-5.905,2.672-3.176,4.972
			c0.576,0.688,1.568,0.773,2.12,1.609c3.874,2.946,7.003,7.77,9.822,11.672c1.722,2.385,7.702,9.281,5.908,12.522
			c-1.65,2.977-19.163-16.384-20.392-18.98c-0.802-0.827-0.696-2.15-1.41-3.04c-1.327-1.54-8.131,1.616-7.503,3.955
			c0.529,1.979,2.529,4.06,3.744,5.66c1.612,2.121,3.318,4.17,5.092,6.156c3.248,3.639,6.747,7.208,10.738,10.039
			c3.827,2.716,6.143,2.617,10.347,0.546c2.805-1.082,6.846-1.97,7.24-5.521c0.318-2.858-1.149-5.831-2.463-8.263
			C46.659,54.525,39.923,48.546,34.983,41.368C34.454,40.549,34.796,41.097,34.983,41.368z"/>
		<path fill="#FFFFFF" d="M78.417,47.854c-0.835-0.096-1.718-0.1-2.545,0.068c-5.998-1.657-9.837-2.665-11.524-3.016
			c1.477-4.563,5.152-15.942-1.711-18.25c-3.24-1.558-8.47-2.396-11.257,0.269c-1.459,1.394-2.189,3.769-3.87,4.889
			c-1.462,0.969-3.647,0.736-4.978,1.862c-1.543,1.183-0.808,1.706-0.116,2.861l16.046,27.427c0.657,1.13,0.406,1.938,1.943,1.688
			c1.521-0.247,3.097-0.805,4.491-1.456c0.848-0.396,2.271-1.11,2.116-2.26c-0.157-1.164-1.558-1.36-2.097-2.268l-4.256-7.276
			l12.821,2.888c0.609,0.318,1.028,0.582,1.258,0.799c2.242,1.272,3.625-0.199,4-2.291C78.946,52.642,79.709,48.663,78.417,47.854
			C77.923,47.797,78.917,48.166,78.417,47.854z M58.203,38.009c-0.516,3.323-1.208,5.543-2.075,6.641l-3.516-6.008
			c0.881-2.397,1.877-5.762,3.958-7.45C59.102,29.136,58.311,37.302,58.203,38.009C57.687,41.332,58.715,34.684,58.203,38.009z"/>
		<path fill="#FFFFFF" d="M90.795,29.45c-0.804-0.427-2.759-1.727-3.768-1.261c-1.46,0.673-2.025,2.428-3.136,3.478l-3.042-7.758
			c1.098-1.876,2.778-3.44,4.34-4.922c0.657-0.623,1.335-1.293,2.11-1.772c0.756-0.467,1.71-0.037,2.379-0.748
			c3.375-3.594-4.834-6.601-7.229-5.31c-0.763,0.719-1.269,1.295-1.523,1.721l-3.918,3.735c-1.893,0.343-8.42-2.601-7.478,2.248
			c0.1,0.833,1.51,1.234,1.833,2.069l10.988,28.014c0.925,2.365,5.771,2.589,7.808,2.707c1.32-0.873,1.698-2.114,1.138-3.716
			c-0.331-0.828-1.377-0.908-1.691-1.683l-2.426-6.192c0.793-1.832,2.719-3.341,4.122-4.7c0.379-0.512,1.145,0.013,1.611-0.386
			C96.007,32.642,92.803,30.513,90.795,29.45C88.781,28.383,92.814,30.52,90.795,29.45z"/>
		<path fill="#FFFFFF" d="M132.652,21.432c-0.662-1.918-2.793-3.824-6.405-5.708c1.755-2.17,3.629-4.931,3.491-7.859
			c-0.137-2.862-3.128-3.541-4.799-5.446c-3.464-3.708-11.233,1.649-13.986,4.147c-0.605-0.056-3.649-0.014-3.454,1.131
			l4.878,29.098c0.105,0.588-0.33,1.24,0.07,1.787c0.978,1.605,5.224,2.289,6.858,2.704c2.603,0.663,3.817-0.045,5.757-1.891
			C129.558,35.123,134.643,27.973,132.652,21.432C131.991,19.514,132.787,21.874,132.652,21.432z M116.109,12.256
			c0.455-0.849,5.224-5.363,6.194-4.088c1.292,1.473-4.51,7.754-5.412,8.758L116.109,12.256
			C116.509,11.509,116.109,12.256,116.109,12.256z M124.752,28.532c-1.425,3.07-3.065,5.035-4.923,5.903l-1.397-8.354
			c1.73-2.096,5.041-4.346,7.718-4.893C126.64,23.012,126.176,25.459,124.752,28.532C123.327,31.603,126.176,25.459,124.752,28.532z
			"/>
		<path fill="#FFFFFF" d="M162.291,31.155c-0.517-0.271-0.912-0.454-1.187-0.543c-4.354-4.45-7.17-7.25-8.446-8.399
			c3.598-3.226,12.438-11.159,7.694-16.638c-1.996-2.977-6.138-6.328-9.869-5.426c-1.96,0.474-3.789,2.159-5.804,2.282
			c-1.757,0.103-3.516-1.18-5.239-0.896c-1.185,0.154-1.788,0.641-1.817,1.462c0.126,0.31,0.218,0.627,0.278,0.956l0.091,31.775
			c0,1.303-0.626,1.881,0.828,2.436c1.437,0.549,3.085,0.861,4.615,0.998c0.931,0.082,2.521,0.176,2.966-0.891
			c0.452-1.086-0.67-1.96-0.67-3.02l-0.026-8.421l9.632,8.943c0.366,0.574,0.595,1.014,0.687,1.313
			c1.168,2.012,3.039,1.794,4.439,0.234c0.781-0.871,3.606-4.1,2.878-5.49C162.943,31.531,162.593,31.306,162.291,31.155
			C161.774,30.885,162.593,31.306,162.291,31.155z M145.679,17.864l-0.018-6.967c0.786-0.653,9.552-7.273,8.166-2.625
			C152.825,11.625,149.003,16.531,145.679,17.864C145.679,17.864,146.979,17.343,145.679,17.864z"/>
		<path fill="#FFFFFF" d="M184.808,2.162c-1.413-0.775-4.512,1.571-6.319,1.298c-0.87-0.13-6.986-4.024-7.438-1.037l-5.131,33.854
			c-0.197,1.368,6.234,4.464,7.118,4.992c2.901-1.813,6.264-3.183,9.667-3.648c0.065-0.02,0.127-0.023,0.191-0.02
			c0.335,0.187,0.677,0.364,1.023,0.529c0.959-0.199,2.782-1.903,2.189-2.963c-0.869-1.552-2.42-2.96-3.762-4.097
			c-1.968-1.668-5.972,0.527-8.019,1.369l0.713-4.731c3.143-1.269,5.3-1.928,6.475-1.961c0.754,0.052,1.286,0.1,1.587,0.146
			c2.236-0.321,2.393-2.054,1.372-3.552c-0.661-0.972-2.421-3.886-3.832-3.907c-1.768,0.312-3.218,0.657-4.351,1.04l1.111-7.338
			c2.367-1.636,5.644-2.079,8.445-2.263c0.665-0.213,1.124,0.599,2.002,0.08c0.697-0.412,1.944-1.176,1.611-2.141
			C188.796,5.879,186.659,3.103,184.808,2.162C184.5,1.992,185.497,2.512,184.808,2.162z"/>
		<path fill="#FFFFFF" d="M234.304,21.169c0.09-2.843-5.556-7.549-7.639-4.202c-4.651,5.05-8.463,11.331-11.938,17.222
			c1.084-6.291,3.756-11.96,5.818-17.939c0.287-1.069-2.473-3.239-3.064-3.819c-1.054-1.032-2.15-2.472-3.751-1.487
			c-0.519,0.558-0.873,1.015-1.063,1.36l-12.675,16.72c0.979-5.077,1.957-10.249,4.022-15.019c1.02-2.354,2.011-3.385,0.236-5.521
			c-1.541-1.854-3.916-4.977-5.984-2.144c-0.238,0.304-0.464,1.173-0.687,2.61c-3.427,9.222-5.643,18.499-6.352,28.324
			c-0.358,1.286-0.594,2.042-0.702,2.259c-0.227,3.55,8.768,9.671,9.709,3.677c0.096-0.447,0.215-0.795,0.364-1.028
			c0.722-2.225,1.851-4.321,3.385-6.29c1.502-1.787,3.019-3.563,4.55-5.345c-0.981,4.034-1.522,8.157-1.628,12.368
			c-0.55,1.735-0.818,2.639-0.812,2.709c-0.026,1.315,2.345,3.025,3.157,3.771c0.882,0.849,2.431,2.82,3.757,3.021
			c1.749,0.339,1.806-2.575,2.373-3.412c1.257-4.753,5.076-9.51,7.675-13.565C226.296,30.381,229.805,25.208,234.304,21.169
			C234.332,20.277,230.674,24.428,234.304,21.169z"/>
		<path fill="#FFFFFF" d="M243.275,57.167c-0.501-1.247-0.958-3.252-2.472-3.549c-2.111-0.417-4.37-0.53-6.52-0.521l2.435-4.115
			c3.388-0.004,5.63,0.193,6.735,0.599c0.681,0.333,1.151,0.577,1.413,0.733c2.2,0.524,2.992-1,2.605-2.782
			c-0.255-1.173-0.786-4.483-2.093-5.064c-1.755-0.37-3.229-0.586-4.42-0.655l3.776-6.39c2.806-0.634,6.011,0.19,8.679,1.062
			c0.637,0.02,0.854,0.97,1.822,0.822c0.8-0.121,2.25-0.361,2.301-1.38c0.101-2.044-0.833-5.417-2.202-6.98
			c-1.175-1.445-5.199-0.102-6.97-1.617c-1.087-0.93-1.72-2.365-2.877-3.202c-0.47-0.343-2.657-0.702-3.014-0.09l-17.424,29.473
			c-0.701,1.178,4.118,6.481,4.732,7.292c3.358-0.589,7.012-0.62,10.329,0.238c0.065,0.005,0.124,0.023,0.182,0.053
			c0.696,0.434,0.378,1.06,1.401,0.839c0.861-0.186,1.842-0.642,2.427-1.321C244.667,59.966,243.5,57.732,243.275,57.167
			C242.468,55.158,244.077,59.178,243.275,57.167z"/>
		<path fill="#FFFFFF" d="M265.366,75.581c-0.518-6.207-0.902-10.157-1.158-11.857c4.802-0.193,16.735-0.678,16.533-7.923
			c0.286-3.593-0.644-8.761-4.145-10.466c-1.818-0.888-4.285-0.757-5.931-1.939c-1.406-1.045-1.954-3.161-3.463-4.029
			c-1.012-0.635-1.791-0.644-2.334-0.03c-0.099,0.319-0.229,0.623-0.396,0.913l-20.183,24.546c-0.493,0.598-1.517,0.915-1.188,1.821
			c0.494,1.366,1.682,2.637,2.636,3.699c0.701,0.78,2.028,2.287,3.243,1.873c1.229-0.42,0.88-1.987,1.578-2.827l5.349-6.511
			l1.728,13.03c-0.086,0.681-0.19,1.163-0.313,1.451c-0.38,2.292,1.208,3.318,3.274,3.009c1.156-0.174,5.392-0.859,5.716-2.395
			C266.123,77.135,265.816,76.288,265.366,75.581C264.848,69.374,265.52,75.824,265.366,75.581z M261.603,55.927l4.422-5.381
			c1.021-0.002,12.001,0.479,7.971,3.178C271.085,55.675,265.019,57.015,261.603,55.927
			C261.603,55.927,262.942,56.354,261.603,55.927z"/>
		<path fill="#FFFFFF" d="M306.884,78.215c-0.269-1.902-0.73-4.855-3.248-4.855c-0.78,0.268-1.387,0.51-1.835,0.738
			c-2.65,0.377-5.33,0.972-8.03,1.792c-0.462,0.116-2.82,0.899-7.071,2.344c1.868-4.56,3.994-8.334,6.38-11.333
			c0.843-0.969,1.481-1.646,1.916-2.023c2.147-2.627-0.926-3.966-2.973-4.519c-1.305-0.354-3.075-0.983-4.444-0.653
			c-0.896,0.217-0.55,1.251-0.867,1.872c-4.023,6.207-6.753,13.301-9.645,20.078c-3.67,1.374-6.091,2.293-7.264,2.746
			c-1.551,0.445-1.921,1.665-1.771,3.168c0.278,1.805,1.376,5.041,2.788,6.265c2.089,1.69,4.461-2.643,5.873-3.407
			c2.138-1.156,4.545-1.901,6.831-2.694c6.315-2.192,12.894-4.579,19.547-5.511c0.735,0.794,2.227,0.44,2.947-0.102
			C307.393,81.085,307.108,79.778,306.884,78.215C306.634,76.444,307.138,79.987,306.884,78.215z"/>
		<path fill="#FFFFFF" d="M287.796,96.568l-1.454-1.517l-4.019,3.856l0.758,0.793l1.721-1.645l0.475,0.499l-0.775,2.626l0.798,0.837
			l0.729-2.765C287.833,100.904,289.327,98.163,287.796,96.568C287.796,96.568,288.282,97.074,287.796,96.568z M287.419,98.423
			c-0.51,0.369-0.947,0.284-1.312-0.251l-0.683-0.714l1.056-1.011l0.646,0.674c0.247,0.253,0.519,0.597,0.479,0.979
			C287.587,98.213,287.527,98.321,287.419,98.423C287.175,98.657,287.527,98.321,287.419,98.423z"/>
		<path fill="#FFFFFF" d="M289.28,94.983c-4.13-4.318-11.145,1.061-7.794,6.098C285.501,107.116,294.26,100.191,289.28,94.983
			C288.814,94.496,289.744,95.469,289.28,94.983z M289.214,99.828c-2.008,4.559-9.091,1.808-7.04-2.826
			C284.202,92.459,291.213,95.208,289.214,99.828C289.006,100.301,289.418,99.356,289.214,99.828z"/>
	</g>
</g>
<g id="glass">
	<path fill="#8DB6E2" d="M250.177,287.745c-0.225-4.432-0.635-8.854-1.078-13.269c-0.941-9.361-2.079-18.706-3.342-28.03
		c-0.893-4.901-1.955-9.792-3.298-14.59c-0.774-2.769-1.575-5.702-3.031-8.205c-0.968-1.664-2.382-2.104-4.156-2.616
		c-10.271-2.967-21.131-4.373-31.686-5.975l-0.244,0.648c-0.172-1.02-0.497-1.959-1.326-2.782c-3.16-3.133-7.613-5.018-11.696-6.59
		c-6.197-2.389-12.675-4.052-19.179-5.351c-15.771-3.148-32.188-4.256-48.206-2.619c-14.178,1.446-29.816,5.146-40.338,15.423
		c-5.216,5.093-8.558,11.695-9.641,18.901c-0.292,1.941-0.43,3.905-0.438,5.869c-0.005,1.13,0.034,2.26,0.11,3.387
		c0.117,1.729-0.599,2.866-0.978,4.545c-0.841,3.732,0.722,7.567,4.063,9.484l0.828,1.492c0.326,13.799,0.801,27.611,1.737,41.382
		c0.257,3.796,0.544,7.595,1.007,11.371c0.232,1.891,0.295,4.354,1.252,6.063c0.523,0.936,0.433,2.708,0.562,3.764
		c0.232,1.901,0.453,3.803,0.701,5.701c0.58,4.446,1.298,8.881,2.386,13.233c2.104,8.412,5.83,17.985,14.056,22.133
		c3.133,1.578,6.718,1.783,9.995,3.027c7.384,2.8,15.35,2.989,23.163,2.786c9.902-0.26,19.783-1.308,29.604-2.547
		c7.291-0.92,14.564-1.985,21.825-3.133c2.018-0.319,4.033-0.645,6.05-0.978c1.022-0.168,3.84-0.145,4.43-0.995
		c0.566-0.815,1.021-1.707,1.438-2.605c2.981-6.436,4.528-13.633,5.939-20.543c0.855-4.184,1.312-4.55,1.312-4.55
		c12.113-11.187,22.282-15.568,34.208-23.326c3.302-2.147,6.265-4.801,9.176-7.456c1.632-1.488,2.746-4.441,3.563-6.571
		C249.793,292.013,250.293,290.037,250.177,287.745z M237.067,286.778c-0.424,1.691-1.138,2.503-2.623,3.279
		c-3.055,1.596-5.827,3.675-8.914,5.236c-6.271,3.174-13.1,5.065-20.063,5.913c1.217-14.871,1.556-29.816,1.104-44.729
		c-0.118-3.892-0.298-7.779-0.526-11.665l0.009,0.045c3.437-4.492,8.482-10.634,14.594-11.041c3.727-0.249,6.458,2.467,8.186,5.487
		c3.545,6.197,4.522,13.822,5.864,20.723c1.124,5.78,2.156,11.612,2.635,17.486C237.578,280.54,237.813,283.799,237.067,286.778z"/>
	<g id="glass-highlight_1_" opacity="0.25">
		<path fill="#FFFFFF" d="M109.466,293.709l1.036-65.209l-2.826-4.272c-2.36-0.394-4.886-0.757-7.067,0.492
			c-3.665,2.097-4.79,7.19-5.451,10.99c-1.948,11.193-1.493,23.051-1.464,34.367c0.029,11.21,0.248,22.427,0.725,33.628
			c0.423,9.944,0.372,20.29,2.108,30.089c0.314,1.776,0.794,5.556,2.927,6.202c2.417,0.731,4.771,1.984,7.345,2.041
			c6.466,0.146,4.281-10.453,4.115-14.492C110.45,316.267,109.96,304.987,109.466,293.709L109.466,293.709z"/>
		<path fill="#FFFFFF" d="M177.468,224.228l-2.825,4.272l1.036,65.209c-0.312,7.099-0.618,14.198-0.922,21.298
			c-0.218,5.093-0.434,10.184-0.64,15.276c-0.132,3.244-1.504,9.864,2.331,11.445c2.503,1.033,7.557-0.508,9.725-1.966
			c3.173-2.134,2.983-9.499,3.236-12.756c0.745-9.597,1.202-19.259,1.528-28.88c0.553-16.332,0.852-32.731,0.189-49.065
			c-0.284-7.018-0.015-15.734-4.019-21.817C184.779,223.704,181.267,223.594,177.468,224.228
			C177.468,224.228,182.465,223.395,177.468,224.228z"/>
		<path fill="#FFFFFF" d="M149.741,220.99h-7.469c-5.395,0.313-12.83,2.202-14.761,8.022c-0.624,1.879-0.336,3.978-0.285,5.933
			c0.153,5.774,0.241,11.553,0.337,17.328c0.298,17.853,0.541,35.704,0.78,53.558c0.137,10.224,0.271,20.449,0.399,30.674
			c0,0,6.809,14.095,23.969,5.536c1.549-1.449,2.031-4.091,2.441-6.061c0.751-3.614,1.086-7.316,1.34-10.995
			c0.646-9.383,0.61-18.815,0.427-28.216c-0.219-11.215-1.061-22.398-1.055-33.613c0.005-8.725-0.087-17.479-0.876-26.174
			C154.738,234.217,154.375,220.99,149.741,220.99C149.741,220.99,157.209,220.99,149.741,220.99z"/>
		<path fill="#FFFFFF" d="M245.757,246.446c-0.893-4.901-1.955-9.792-3.298-14.59c-0.774-2.769-1.575-5.702-3.031-8.205
			c-0.968-1.664-2.382-2.104-4.156-2.616c-10.271-2.967-21.131-4.373-31.686-5.975l-2.237,5.93l4.703,23.867
			c3.437-4.492,8.482-10.634,14.594-11.041c3.727-0.249,6.458,2.467,8.186,5.487c3.545,6.197,4.522,13.822,5.864,20.723
			c1.124,5.78,2.156,11.612,2.635,17.486c0.247,3.027,0.482,6.286-0.264,9.266c-0.424,1.691-1.138,2.503-2.623,3.279
			c-3.055,1.596-5.827,3.675-8.914,5.236c-6.51,3.294-13.62,5.22-20.86,6.017c-0.331,11.385-2.672,30.269-2.672,30.269
			c11.947-11.02,21.113-15.854,34.208-23.326c3.421-1.952,6.265-4.801,9.176-7.456c1.632-1.488,3.774-3.256,4.592-5.386
			c0.849-2.213,0.32-5.374,0.204-7.666c-0.225-4.432-0.635-8.854-1.078-13.269C248.158,265.115,247.02,255.771,245.757,246.446
			L245.757,246.446z"/>
	</g>
	<g id="glass-details_1_">
		<path fill="#437BC3" d="M251.285,282.323c-1.418-13.449-1.556-27.064-4.559-40.299c-1.305-5.752-2.709-11.604-5.588-16.802
			c-0.998-1.802-2.502-4.537-4.709-5.047c-2.882-0.672-5.754-1.383-8.644-2.023c-5.953-1.319-11.997-2.104-18.019-3.035
			c-0.968-0.15-4.212-1.253-4.563,0.354c-0.558,2.554,6.915,3.092,8.208,3.24c5.932,0.685,11.853,1.411,17.656,2.874
			c5.991,1.51,8.199,6.018,9.86,11.583c2.664,8.927,4.101,18.757,5.15,27.999c0.713,6.27,1.141,12.593,1.492,18.893
			c0.216,3.865,0.488,7.903-0.267,11.731c-0.824,4.175-2.094,8.505-5.438,11.365c-3.844,3.288-9.099,5.467-13.517,7.942
			c-4.243,2.379-8.583,4.6-12.702,7.193c-4.094,2.577-7.303,6.066-10.786,9.388c0.154-1.287,0.326-2.682,0.48-4.321
			c3.648-2.405,7.262-4.87,10.951-7.213c2.873-1.824,5.989-3.844,9.327-4.701c-0.154-1.052,0.073-2.466,0.073-2.466
			s7.249-5.08,9.562-5.231c0,1.866,0.3,2.02,0.3,2.02c6.014-2.905,11.63-8.807,9.857-15.985c-0.834,4.267-2.507,6.406-6.073,8.872
			c-3.698,2.556-7.912,4.021-11.768,6.278c-3.183,1.864-6.368,4.193-9.828,5.506c-3.668,1.391-8.056,1.535-11.911,2.236
			c0.075-2.148,0.215-4.722,0.387-7.498c5.909-1.386,11.691-3.283,17.167-5.913c5.129-2.462,12.796-6.124,14.465-12.154
			c0.902-5.009,0.268-10.506,0.017-15.572c-0.309-6.239-0.506-12.579-1.456-18.762c-1.143-7.433-1.965-16.378-9.855-19.521
			c-3.507-1.396-7.403-1.943-10.936-0.397c-3.331,1.456-6.708,3.961-8.855,6.926c-0.202-1.499-0.415-3.044-0.631-4.591
			c5.388-1.695,9.493-4.763,15.458-4.436c7.134,0.392,12.221,3.389,14.218,10.439c1.684,5.943,1.905,12.284,2.734,18.381
			c0.447,3.282,0.398,6.814,1.455,9.979c0.866,2.593,1.732,4.59,1.012,7.376l-1.951,0.67v6.204l0.522,0.371
			c1.055-1.229,1.766-3.188,2.491-4.607c1.609-3.146,0.912-5.816,0.75-9.184c-0.288-5.997-1.236-11.979-2.054-17.928
			c-0.466-3.378-1.14-6.728-1.837-10.062c-0.643-3.074-1.088-6.126-3.202-8.59c-4.073-4.744-10.798-5.091-16.621-5.138
			c0,0-0.068-0.896,0.08-1.94c-4.458,0.309-11.345,3.579-13.584,4.695c-1.047-7.442-1.84-14.924-2.97-22.354
			c-0.43-2.832-0.823-5.746-1.676-8.487c-0.819-2.637-2.464-7.397-5.155-8.744c0.916,14.976,4.528,29.82,6.47,44.695
			c1.746,13.376,1.617,26.443,0.936,39.87c-0.556,10.946-0.859,21.871-1.227,32.823c-0.23,6.942-0.556,13.886-1.742,20.741
			c-0.922,5.323-1.904,11.502-6.08,15.346c-4.744,4.363-12.163,5.233-18.236,6.523c-6.5,1.379-13.023,2.666-19.563,3.835
			c2.203,1.065,5.517,0.49,7.839,0.29c4.073-0.353,8.124-0.969,12.155-1.635c6.927-1.145,13.662-2.64,20.238-5.155
			c-0.279,3.483-1.489,6.895-4.585,8.789c-3.37,2.063-7.81,2.565-11.662,3.281c-10.611,1.972-21.392,3.492-32.166,4.178
			c-11.871,0.756-23.961,0.4-35.765-1.079c-5.223-0.654-10.392-1.552-14.917-4.414c-1.547-0.979-6.427-4.186-5.903-6.608
			c6.56-0.227,12.876,2.026,19.363,2.743c6.015,0.665,12.247,1.324,18.17-0.278c-9.376-1.458-18.929-2.279-28.226-4.156
			c-3.878-0.782-9.826-1.643-12.119-5.33c-1.395-2.241-1.555-5.031-2.01-7.571c-0.572-3.194-1.189-6.38-1.799-9.567
			c-3.895-20.353-4.718-40.758-5.935-61.396l-3.835-0.111c0.584,10.157,0.773,20.36,1.545,30.501
			c1.104,14.477,3.24,29.038,5.953,43.298c0.42,2.207,0.839,4.42,1.356,6.607c0.604,2.556,2.361,4.768,3.948,6.797
			c3.101,3.968,6.008,7.514,10.834,9.15c8.928,3.03,18.861,4.053,28.195,4.751c17.894,1.341,37.085,0.856,54.557-3.733
			c3.32-0.871,6.676-1.668,9.963-2.653c3.605-1.081,5.027-4.872,6.656-8.01c3.682-7.101,5.325-15.129,6.255-23.039
			c8.079-9.187,20.58-14.524,30.842-20.825c5.056-3.105,9.586-6.62,12.834-11.675C251.262,293.964,251.864,287.97,251.285,282.323
			C250.804,277.769,251.752,286.873,251.285,282.323z M210.974,317.869c0,0-3.403,0.852-5.334,1.301
			c0.05-0.979,0.09-2.037,0.114-3.185l5.073-0.66L210.974,317.869L210.974,317.869z M215.096,235.993
			c4.096-1.635,10.301-0.6,12.977,3.158c4.914,6.903,6.009,16.826,6.966,25.012c0.627,5.354,0.672,10.729,0.246,16.103
			c-0.312,3.911-0.991,8.105-3.789,11.071c-3.224,3.417-8.532,5.046-12.971,6.133c-4.009,0.982-7.994,2.032-12.003,3.021
			c0.654-9.793,1.101-19.554,1.401-29.362c0.285-9.328,0.507-18.488-0.687-27.763C207.257,243.335,211.761,237.325,215.096,235.993z
			"/>
		<path fill="#437BC3" d="M93.854,322.521c0.412,4.658,0.782,9.44,1.93,13.987c0.409,1.625,1.012,3.407,2.516,4.334
			c0.45,0.278,3.443,1.011,2.465-0.133c-2.029-1.099-2.454-4.171-2.752-6.199c-0.531-3.613-0.625-7.288-0.851-10.928
			c-0.327-5.26-0.659-10.517-0.972-15.776c-0.795-13.354-1.614-26.721-1.292-40.104c0.193-8.039,0.633-16.084,1.251-24.102
			c0.258-3.354,0.552-6.715,1.061-10.043c0.298-1.948,0.501-4.668,1.776-6.288c1.578-2.004,5.048-3.214,6.988-0.994
			c1.706,1.951,2.16,4.528,2.13,7.015c-0.024,2.048-0.025,4.096-0.033,6.144c-0.062,15.539-0.104,31.08-0.09,46.62
			c0.005,5.35,0.176,10.633,0.562,15.976c0.53,7.352,0.463,15.289,2.111,22.506c0.174-19.969-0.071-39.944-0.12-59.914
			c-0.028-11.245,0.629-22.637,0.06-33.865c-0.11-2.158,0.165-4.724-1.12-6.598c-1.8-2.625-5.521-2.979-8.229-1.877
			c-6.547,2.646-7.32,9.638-7.919,15.771c-1.041,10.645-1.989,21.473-2.064,32.169c0.156,6.77,0.302,13.54,0.424,20.309
			C91.88,301.267,92.908,311.834,93.854,322.521C94.473,329.531,93.234,315.519,93.854,322.521z"/>
		<path fill="#437BC3" d="M125.8,235.283c0.455,20.224,0.6,40.445,0.875,60.671c0.11,8.087,0.185,16.169,0.208,24.257
			c0.014,5.013-0.091,10.087,0.342,15.086c0.57,6.6,5.402,10.632,12.006,10.138c0.75-0.057,1.556-0.178,2.221-0.555l-0.063-0.251
			c-3.838-0.863-8.695-2.96-10.179-6.873c-1.203-3.172-1.202-6.893-0.847-10.23l-0.64-30.983
			c-0.214-13.833-0.409-27.667-0.566-41.501c-0.079-6.945-0.204-13.897-0.141-20.844c0.038-4.112,0.836-7.549,4.412-9.889
			c1.887-1.236,3.716-1.633,5.976-1.811c2.839-0.223,6.802-0.738,9.546,0.169c3.138,1.036,4.077,5.496,4.344,8.372l0.445,34.525
			c0.209,12.326,0.406,24.652,0.584,36.979c0.113,7.883,0.227,15.767,0.287,23.65c0.048,6,0.997,13.682-4.548,17.548
			c8.109-0.443,6.844-10.894,6.844-10.894l0.122-28.324l-0.76-48.403c-0.134-7.631-0.267-15.263-0.352-22.896
			c-0.053-4.76-0.088-9.46-3.92-12.911c-2.434-2.19-7.648-1.437-10.679-1.25c-3.899,0-8.993,0.286-12.165,2.839
			C125.453,224.881,125.71,231.045,125.8,235.283C125.93,241.045,125.678,229.518,125.8,235.283z"/>
		<path fill="#437BC3" d="M187.44,222.47c-3.77-1.809-10.11-0.621-12.31,3.122c-2.465,4.193-1.726,10.051-1.614,14.691
			c0.219,9.126,0.98,18.228,1.36,27.347c0.439,10.57,0.123,21.225-0.217,31.795c-0.323,10.053-1.813,20.508-0.822,30.546
			c1.274-10.896,2.441-21.835,3.131-32.785c0.7-11.132,0.473-22.35,0.407-33.498c-0.057-9.691-0.257-19.395-0.169-29.084
			c0.023-2.571,0.204-5.81,2.1-7.78c1.689-1.755,5.134-1.948,7.002-0.367c1.793,1.517,2.353,4.362,2.768,6.554
			c0.643,3.389,0.901,6.854,1.194,10.286c1.39,16.245,2.598,32.703,1.845,49.014c-0.383,8.283-1.074,16.596-1.86,24.852
			c-0.419,4.389-1.134,8.757-1.911,13.094c-0.769,4.288-1.846,8.306-4.776,11.649c3.094-1.652,5.744-4.039,6.71-7.488
			c1.471-5.25,2.417-10.695,3.125-16.096c1.725-13.162,2.27-26.59,2.188-39.854c-0.069-11.169-0.643-22.289-1.53-33.419
			c-0.329-4.138-0.685-8.273-1.056-12.408C192.666,228.875,191.144,224.237,187.44,222.47
			C185.567,221.571,189.309,223.362,187.44,222.47z"/>
		<path fill="#437BC3" d="M131.701,364.463c3.738,0.245,7.059-0.072,7.059-0.072l0.336-0.882c-1.197-0.042-8.562-0.122-8.074-2.229
			c0.195-1.084,1.488-1.051,2.63-1.283c2.049-0.408,3.542-0.853,5.274-1.992c-17.525,1.757-39.133-2.068-43.128-3.423
			c-0.863,2.067,4.395,3.175,5.616,3.743c-0.088,0.642-1.446,1.038-2.813,1.596c5.024,2.396,17.101,4.146,18.801,3.03
			c-3.476-0.713-4.5-1.354-4.5-1.354c0.316-1.969,9.089-0.861,10.605-0.811c1.253,0.042,5.025-0.141,4.987,1.731
			c-0.008,0.415-0.637,1.078-0.152,1.427C129.16,364.533,130.772,364.406,131.701,364.463
			C135.439,364.708,127.956,364.23,131.701,364.463z"/>
		<path fill="#437BC3" d="M160.981,362.8c3.484,0,7.026-0.583,10.442-1.222c1.409-0.262,2.841-0.532,4.205-0.984
			c2.364-0.785,0.513-1.28,1.2-2.759c2.419-0.258,7.96-1.396,9.535-1.345c0.446,0.777-0.505,2.689-0.505,2.689
			c3.616-0.217,10.445-3.194,9.127-7.754c-2.636-0.299-4.919,0.809-7.325,1.65c-2.707,0.948-5.594,1.272-8.418,1.684
			c-5.305,0.771-10.668,1.73-16.02,2.097c-0.549,1.435,6.317,1.02,7.28,0.979v1.243C170.503,360.319,164.505,361.817,160.981,362.8
			C165.065,362.8,164.505,361.817,160.981,362.8z"/>
		<path fill="#437BC3" d="M95.184,338.669c-0.94-2.366-1.54-6.044-1.658-7.055l-0.884-2.604c-0.007,0.041-0.012,0.076-0.015,0.114
			c-0.431,3.716-1.62,13.645,6.828,14.878C97.265,341.988,96.143,341.041,95.184,338.669
			C94.244,336.303,96.143,341.041,95.184,338.669z"/>
		<path fill="#437BC3" d="M107.334,343.709c-1.458,1.218,0.843,1.732,1.735,1.76c1.899,0.061,4.094-0.598,5.231-2.222
			c1.199-1.713,2.263-7.443-0.149-8.728C114.922,343.646,110.003,343.766,107.334,343.709
			C107.334,343.709,110.003,343.766,107.334,343.709z"/>
		<path fill="#437BC3" d="M144.855,349.158c6.962-0.424,18.465-4.65,13.688-13.924c-0.057,3.635-2.422,8.142-5.642,9.963
			c-2.319,1.312-5.242,1.36-7.831,1.438c-4.174,0.125-8.954,0.577-12.915-1.018c-2.252-0.906-3.517-2.595-4.848-4.519
			c-0.98,2.86,1.705,6.068,4.227,6.938C135.687,349.474,140.531,349.421,144.855,349.158
			C150.665,348.806,139.041,349.513,144.855,349.158z"/>
		<path fill="#437BC3" d="M176.143,347.024c8.117,0.712,14.224-3.022,13.986-8.947c-1.206,1.835-2.202,3.697-4.072,4.971
			c-2.881,1.964-7.272,2.174-10.587,1.391c-3.521-0.832-4.354-3.457-4.178-6.805c0.077-1.461-0.506-2.511-1.311-0.801
			C169.446,339.676,168.028,346.314,176.143,347.024C184.26,347.736,168.028,346.314,176.143,347.024z"/>
		<path fill="#437BC3" d="M111.222,272.249c0,8.941,0.467,31.623,2.404,35.309c1.753-2.633,0.761-7.563,0.691-10.514
			c-0.091-3.855-0.112-7.711-0.152-11.565c-0.089-8.507-0.272-16.997-0.708-25.492c-0.182-3.555-0.299-7.146-0.746-10.68
			c-0.275-2.173-0.786-0.743-0.938,0.609C110.944,257.281,111.222,264.85,111.222,272.249
			C111.222,281.19,111.222,263.304,111.222,272.249z"/>
		<path fill="#437BC3" d="M157.043,279.161c0,7.192,1.944,27.477,2.397,34.117c1.253-10.475,0.601-21.353,0.223-31.869
			c-0.354-9.848,0.591-20.087-1.788-29.72C156.954,253.996,157.043,271.972,157.043,279.161
			C157.043,286.354,157.043,271.972,157.043,279.161z"/>
		<path fill="#437BC3" d="M171.423,296.223c2.524-5.972,2.149-13.446,2.122-19.798c-0.014-3.157-0.061-6.318-0.196-9.475
			c-0.081-1.879,0.199-4.774-0.717-6.503c0,0.369-1.111-0.739-1.111-0.739C172.578,271.813,171.423,284.098,171.423,296.223
			C173.178,292.07,171.423,293.359,171.423,296.223z"/>
		<path fill="#437BC3" d="M95.557,224.771c0.644-1.467,4.628-2.298,4.236-3.78c-1.927,0.258-4.358,0.902-5.532,2.581
			c-1.881,2.717-2.196,6.758-2.114,9.956C93.155,230.529,94.267,227.653,95.557,224.771
			C96.285,223.112,94.815,226.429,95.557,224.771z"/>
		<path fill="#437BC3" d="M112.793,230.58c1.568-4.139,1.138-11.784-5.25-10.046l0.175,0.177
			C110.399,221.544,112.24,225.229,112.793,230.58C113.807,227.904,112.24,225.229,112.793,230.58z"/>
		<path fill="#437BC3" d="M124.777,226.156c0.452-2.472,1.523-4.189,3.592-5.633c1.002-0.699,3.829-0.938,3.691-2.483
			c-2.849-0.304-7.108,1.546-8.195,4.402c-1.159,3.047-1.059,6.984-0.652,10.165C124.327,230.765,124.417,228.185,124.777,226.156
			C125.148,224.121,124.417,228.185,124.777,226.156z"/>
		<path fill="#437BC3" d="M150.502,218.229c3.606,1.488,5.44,3.476,5.954,7.307c0.49,3.653,0.578,7.363,0.869,11.037
			c0.983-1.082,1.162-2.82,1.303-4.207c0.307-3.025,0.71-6.445-0.12-9.423c-0.698-2.504-1.881-4.017-4.411-4.895
			c-1.064-0.37-2.229-0.583-3.358-0.589C149.766,217.455,149.437,217.787,150.502,218.229
			C152.525,219.063,147.826,217.12,150.502,218.229z"/>
		<path fill="#437BC3" d="M172.531,227.257c0.372-3.191,2.886-3.904,4.428-6.36c-7.762-0.446-7.193,10.461-5.166,15.213
			C172.531,232.054,172.259,229.657,172.531,227.257C172.81,224.863,172.259,229.657,172.531,227.257z"/>
		<path fill="#437BC3" d="M189.221,220.897c-1.286-0.275-1.383,0.183-1.383,0.183c2.584,1.571,5.705,6.365,5.991,11.158
			C195.121,228.563,193.562,221.837,189.221,220.897C187.935,220.622,190.505,221.175,189.221,220.897z"/>
		<path fill="#437BC3" d="M188.847,204.858c1.675,2.508,0.853,5.284,3.376,7.379c1.012,0.84,0.837-0.588,0.797-1.266
			c-0.086-1.478-0.14-2.958-0.224-4.433c-0.213-3.757-4.182-5.155-7.263-6.222c-2.752-0.954-5.897-0.57-8.575,0.486
			C180.459,201.075,187.747,203.2,188.847,204.858C189.956,206.517,187.747,203.2,188.847,204.858z"/>
	</g>
</g>
<g id="wave">
	<path id="wave-bg_1_" fill="#437BC3" d="M217.881,111.471c-22.105,3.602-50.402,20.566-23.143,68.96
		c27.258,48.393-59.778,10.824-72.965,12.162c-13.187,1.335-106.104-94.353,82.984-90.146
		C219.274,104.063,217.881,111.471,217.881,111.471"/>
	<g id="medium_3_">
		<path fill="#3B6FA8" d="M117.64,169.118c-0.538-1.602-1.107-3.192-1.676-4.784c-0.762-2.804-1.489-5.564-2.097-8.406
			c-0.247-1.789-0.444-3.578-0.478-5.382c-0.11-1.834,0.085-3.676,0.276-5.511c0.171-0.906,0.342-1.815,0.514-2.72
			c0.278-1.102,0.572-2.235,0.951-3.307l0.253-0.637c0.164-0.427,0.325-0.85,0.487-1.272c0.842-2.457,2.251-4.735,3.484-7.008
			c2.577-4.058,5.258-8.084,7.715-12.215c-1.875,1.761-3.628,3.642-5.379,5.523c-1.507,1.756-2.968,3.523-4.364,5.366
			c-0.956,1.421-2.049,2.873-2.913,4.563c-1.034,1.837-1.96,3.752-2.61,5.761c-0.446,0.695-0.891,1.418-1.269,2.219
			c-1.028,1.965-1.84,4.047-2.326,6.216c-0.13,0.764-0.26,1.528-0.391,2.293c-0.116,1.554-0.228,3.119-0.058,4.653
			c0.027,0.385,0.054,0.767,0.079,1.146c0.13,1.101,0.381,2.214,0.61,3.299c0.659,2.261,1.419,4.422,2.335,6.593
			c0.605,1.181,1.214,2.36,1.843,3.531c0.77,1.269,1.58,2.52,2.427,3.738c-0.499-1.392-1.048-2.769-1.617-4.133
			c-0.417-1.23-0.854-2.452-1.294-3.674c-0.603-2.146-1.171-4.267-1.655-6.442c-0.209-1.365-0.378-2.731-0.432-4.111
			c-0.108-1.398,0.005-2.8,0.116-4.196c0.009-0.059,0.019-0.118,0.029-0.177c0.011,0.211,0.011,0.424,0.032,0.634
			c0.026,0.502,0.052,1.002,0.078,1.5c0.146,1.438,0.46,2.896,0.746,4.312c0.844,2.951,1.815,5.764,3.027,8.586
			c0.8,1.534,1.602,3.066,2.435,4.583c1.021,1.646,2.1,3.268,3.231,4.839C119.104,172.685,118.385,170.894,117.64,169.118
			C117.262,167.993,118.098,170.208,117.64,169.118z"/>
		<path fill="#3B6FA8" d="M103.857,178.899c-0.591-1.754-1.211-3.498-1.838-5.241c-0.835-3.069-1.632-6.096-2.297-9.209
			c-0.268-1.959-0.484-3.919-0.524-5.896c-0.119-2.008,0.095-4.024,0.304-6.035c0.187-0.994,0.374-1.99,0.561-2.981
			c0.307-1.207,0.63-2.447,1.042-3.622l0.277-0.697c0.18-0.467,0.357-0.931,0.534-1.394c0.921-2.69,2.467-5.185,3.816-7.676
			c2.822-4.446,5.761-8.855,8.452-13.384c-2.056,1.93-3.975,3.99-5.893,6.054c-1.647,1.924-3.252,3.855-4.78,5.878
			c-1.048,1.556-2.246,3.146-3.191,4.996c-1.593,2.836-2.89,5.847-3.693,9.007c-0.218,1.101-0.438,2.204-0.658,3.309
			c-0.222,2.238-0.439,4.492-0.229,6.69c0.028,0.552,0.057,1.101,0.084,1.646c0.165,1.574,0.504,3.17,0.817,4.722
			c0.921,3.233,1.997,6.314,3.316,9.407c0.875,1.682,1.756,3.358,2.668,5.02c1.12,1.803,2.301,3.58,3.54,5.302
			C105.46,182.809,104.673,180.845,103.857,178.899C103.442,177.668,104.358,180.094,103.857,178.899z"/>
		<path fill="#3B6FA8" d="M136.543,123.295c2.232-2.782,4.537-5.521,6.667-8.383c0,0-0.164,0.124-0.454,0.349
			c1.268-1.188,1.973-1.899,1.973-1.899s-0.012,0.006-0.016,0.009c0.84-0.701,1.679-1.404,2.493-2.135
			c-2.315,1.122-4.552,2.391-6.783,3.67c-1.963,1.222-3.884,2.473-5.767,3.816c-1.335,1.07-2.813,2.129-4.142,3.483
			c-2.161,2.035-4.11,4.308-5.671,6.841c-0.366,0.669-0.732,1.343-1.099,2.016c-0.431,0.675-0.867,1.353-1.258,2.065
			c-0.483,1.002-0.969,2.008-1.455,3.014c-0.79,2.11-1.58,4.233-1.983,6.439c-0.123,0.545-0.243,1.087-0.364,1.625
			c-0.279,1.592-0.402,3.242-0.544,4.851c-0.051,3.426,0.063,6.771,0.394,10.183c0.317,1.908,0.639,3.814,0.994,5.716
			c0.498,2.1,1.057,4.192,1.68,6.259c-0.087-2.153-0.253-4.308-0.448-6.452c-0.047-1.892-0.13-3.782-0.209-5.672
			c0.057-2.174,0.002-4.354,0.2-6.52c0.294,1.649,0.596,3.295,0.927,4.938c0.13,0.507,0.261,0.976,0.387,1.42
			c0.383,2.011,1.047,3.993,1.656,5.947c0.697,1.762,1.399,3.521,2.135,5.27c0.927,1.908,1.919,3.796,2.973,5.637
			c-0.496-2.049-1.077-4.082-1.688-6.1c-0.405-1.807-0.838-3.605-1.286-5.403c-0.512-3.14-0.995-6.233-1.333-9.398
			c-0.068-1.974-0.082-3.948,0.087-5.916c0.088-2.011,0.508-3.995,0.925-5.974c0.288-0.971,0.576-1.939,0.865-2.906
			c0.428-1.169,0.88-2.369,1.411-3.496l0.348-0.663c0.226-0.447,0.451-0.891,0.674-1.331c1.196-2.583,2.989-4.905,4.589-7.243
			C134.544,125.934,135.524,124.523,136.543,123.295C138.551,120.794,135.524,124.523,136.543,123.295z"/>
		<path fill="#3B6FA8" d="M171.582,117.039c1.182-1.315,2.471-2.479,3.649-3.626c3.672-3.101,7.435-6.144,11.009-9.357
			c-2.314,1.122-4.548,2.394-6.781,3.669c-1.961,1.225-3.885,2.475-5.768,3.816c-1.336,1.071-2.813,2.13-4.141,3.484
			c-2.16,2.038-4.111,4.307-5.672,6.842c-0.491,0.896-0.983,1.801-1.476,2.702c-0.388,0.913-0.774,1.83-1.119,2.756
			c1.367-5.005,3.73-9.619,5.27-14.563c0.129-0.483,0.198-0.742,0.198-0.742c-1.412,2.645-3.015,5.147-4.567,7.71
			c0.398-1.039,0.822-2.068,1.343-3.054c0.26-0.55,0.54-1.051,0.818-1.515c0.438-0.818,0.976-1.635,1.545-2.365
			c0.461-0.643,0.853-1.13,1.132-1.453c0.271-0.335,0.416-0.515,0.416-0.515c-0.694,0.484-1.396,0.956-2.025,1.527
			c-0.313,0.259-0.648,0.56-0.991,0.911c-0.355,0.341-0.726,0.724-1.087,1.163c-1.355,1.513-2.385,3.237-3.375,5.001
			c-3.799,7.761-4.782,16.541-4.729,25.094c0.045,7.266,0.59,14.61,1.766,21.785c0.758-5.478,0.865-11.05,1.086-16.567
			c0.244,1.456,0.475,2.913,0.753,4.362c1.877,8.059,4.15,15.94,7.371,23.576c-1.122-7.562-2.806-15.052-4.115-22.582
			c0.165,0.524,0.261,0.813,0.261,0.813c-0.074-1.923-0.226-3.848-0.405-5.763c-0.036-1.69-0.104-3.378-0.173-5.067
			c0.109-2.903,0.237-5.756,0.51-8.65c0.221-1.316,0.43-2.672,0.764-3.966c0.129-0.436,0.257-0.874,0.386-1.313
			c0.442-1.781,1.178-3.481,1.908-5.177c0.434-0.814,0.868-1.632,1.301-2.443c0.597-0.968,1.218-1.957,1.896-2.871l0.432-0.533
			c0.282-0.356,0.564-0.713,0.845-1.066C170.349,118.333,170.974,117.684,171.582,117.039
			C172.763,115.724,170.974,117.684,171.582,117.039z"/>
		<path fill="#3B6FA8" d="M199.819,103.183c-1.591,0.507-3.161,1.072-4.733,1.638c-2.146,0.862-4.257,1.757-6.346,2.749
			c-1.504,0.819-3.142,1.604-4.687,2.705c-2.485,1.628-4.799,3.522-6.781,5.743c-0.641,0.799-1.283,1.603-1.926,2.404
			c-1.121,1.719-2.246,3.452-3.001,5.323c-0.21,0.459-0.418,0.913-0.624,1.368c-0.531,1.344-0.926,2.781-1.326,4.169
			c-0.61,3.008-1.044,5.952-1.27,9.016c0.003,1.73,0.008,3.459,0.049,5.19c0.148,1.931,0.356,3.866,0.638,5.782
			c0.261-1.907,0.45-3.827,0.608-5.745c0.262-1.671,0.489-3.345,0.717-5.02c0.618-2.839,1.24-5.626,2.015-8.428
			c0.448-1.257,0.89-2.558,1.446-3.771c0.203-0.407,0.406-0.814,0.61-1.226c0.748-1.675,1.77-3.222,2.784-4.763
			c0.57-0.726,1.141-1.454,1.709-2.177c0.756-0.85,1.541-1.717,2.369-2.497l0.517-0.447c0.343-0.304,0.681-0.604,1.021-0.903
			c1.876-1.795,4.179-3.164,6.319-4.614c4.157-2.412,8.395-4.748,12.478-7.285C202.405,102.396,201.454,102.66,199.819,103.183
			C199.002,103.443,201.454,102.66,199.819,103.183z"/>
		<path fill="#3B6FA8" d="M149.035,128.405c0.177-1.135,0.401-2.193,0.645-3.208c1.541-1.998,3.452-3.698,5.255-5.451
			c3.672-3.103,7.434-6.146,11.01-9.357c-2.314,1.122-4.551,2.391-6.782,3.669c-0.284,0.177-0.596,0.37-0.894,0.558
			c0.277-0.25,0.549-0.493,0.789-0.71c0.766-0.62,1.529-1.24,2.273-1.886c0,0-0.174,0.081-0.482,0.229
			c0.154-0.147,0.24-0.232,0.24-0.232s-0.688,0.365-1.881,1.044c-1.662,0.845-3.295,1.741-4.925,2.644
			c-0.267,0.161-0.561,0.338-0.839,0.507c0.049-0.084,0.078-0.132,0.078-0.132s-0.091,0.083-0.258,0.239
			c-1.698,1.021-3.345,2.095-4.977,3.218c-1.388,1.071-2.923,2.136-4.305,3.494c-2.238,2.031-4.269,4.302-5.903,6.854
			c-0.511,0.9-1.024,1.805-1.537,2.708c-0.838,1.891-1.677,3.797-2.114,5.772c-0.132,0.489-0.262,0.975-0.393,1.457
			c-0.301,1.415-0.446,2.9-0.606,4.338c-0.09,3.071,0,6.042,0.317,9.101c0.315,1.701,0.631,3.402,0.981,5.099
			c0.498,1.875,1.06,3.743,1.688,5.58c-0.073-1.924-0.225-3.849-0.407-5.765c-0.033-1.689-0.099-3.378-0.167-5.066
			c0.016-0.409,0.04-0.82,0.047-1.23c0.092,0.764,0.191,1.525,0.296,2.287c0.371,1.69,0.744,3.379,1.15,5.062
			c0.554,1.855,1.17,3.702,1.849,5.516c-0.146-1.918-0.372-3.837-0.624-5.744c-0.101-1.687-0.228-3.371-0.365-5.056
			c0-2.905,0.021-5.762,0.18-8.664c0.234-1.789,0.509-3.568,0.95-5.319c0.073-0.35,0.166-0.695,0.259-1.041
			c-0.15,1.182-0.327,2.36-0.452,3.546c-0.076,3.067,0.018,6.042,0.327,9.098c0.304,1.704,0.613,3.405,0.957,5.101
			c0.483,1.876,1.028,3.745,1.638,5.582c-0.074-1.923-0.225-3.847-0.406-5.763c-0.036-1.69-0.098-3.379-0.172-5.067
			c0.107-2.903,0.237-5.755,0.509-8.65c0.298-1.778,0.639-3.548,1.151-5.276c0.281-1.133,0.685-2.229,1.126-3.315
			c-2.342,9.938-2.269,20.124-0.273,30.1c0.327,1.266,0.645,2.532,1.011,3.785c1.784,5.205,3.979,10.11,7.415,14.452
			c-0.497-2.212-1.154-4.39-1.688-6.594c-0.706-2.908-1.254-5.845-1.8-8.786c-0.1-0.798-0.234-1.602-0.353-2.424
			c-0.174-0.964-0.284-1.963-0.395-2.972c0.83,3.604,1.719,7.213,2.824,10.744c-0.024-6.503-0.919-13.002-1.562-19.465
			C148.639,144.926,147.712,136.486,149.035,128.405C149.212,127.271,148.791,129.898,149.035,128.405z"/>
		<path fill="#3B6FA8" d="M142.649,191.876c-0.813-1.02-1.631-2.032-2.455-3.042c-2.352-2.658-4.487-5.532-6.969-8.072
			c1.386,3.422,3.529,6.576,5.935,9.364c2.257,2.617,4.642,5.229,7.466,7.25C145.427,195.46,144.051,193.646,142.649,191.876
			C142.26,191.387,143.424,192.854,142.649,191.876z"/>
	</g>
	<g id="lightest_1_">
		<path fill="#8DB6E2" d="M167.938,131.814c0.632-2.628,1.246-5.257,1.719-7.919c-5.674,10.315-9.089,22.219-5.894,33.867
			C164.325,148.809,165.771,140.494,167.938,131.814C168.156,130.908,167.713,132.717,167.938,131.814z"/>
		<path fill="#8DB6E2" d="M201.499,102.447l-18.717,3.919c-4.285,9.874-10.387,20.375-12.494,30.99
			c0.341-3.609,0.739-7.219,0.968-10.839c-4.712,13.931-6.501,30.446-2.13,44.693c-0.26-7.758-0.073-15.472,0.335-23.222
			c0.113,6.557,1.261,13.119,3.332,19.343c0.122-4.489,0.004-8.983,0.165-13.472c0.525,5.972,2.074,11.743,4.143,17.351
			c-1.076-14.078-2.341-27.488,2.313-41.165c8.456-11.045,23.153-19.577,26.163-23.243L201.499,102.447L201.499,102.447z"/>
	</g>
	<g id="darkest_1_">
		<path fill="#2D527E" d="M164.292,104.622c-1.291,1.19-2.354,4.266-3.126,8.121c-4.628-9.127-7.939,5.863-8.372,8.729
			c-0.998,6.598-1.704,14.091-0.146,20.662c0-5.022,1.971-9.797,7.166-17.205c-0.155,4.425,0.057,8.581,0.707,11.322
			c0.001-7.427,4.744-13.985,8.958-19.698C171.704,113.539,168.615,100.644,164.292,104.622
			C163.001,105.813,168.125,101.094,164.292,104.622z"/>
		<path fill="#2D527E" d="M149.425,117.654c-3.268-3.248-7.079,0.982-7.973,4.089c-0.027-0.218-0.8-9.275-2.853-8.502
			c-1.566,1.971-2.501,4.224-2.806,6.76c-1.523-2.199-3.657-2.215-4.967,0.02c-2.743-6.578-7.618-12.457-11.265-5.293
			c-0.608-1.186-1.34-0.925-2.212,1.853c-2.669-5.345-7.062-9.321-7.9-0.778c-2.885-5.104-8.249,0.791-10.091,3.729
			c-1.503-1.379-2.311,5.477-2.387,6.004c-0.452,2.07-0.639,4.312-0.618,6.66c-0.074,1.546-0.104,3.166-0.096,4.846
			c-3.844-2.523-15.899-2.483-19.276,2.192l-0.227,1.493c-1.264,16.162-6.508,49.024,20.73,39.704c0,0-0.715-19.894-0.604-32.181
			c0.825,7.977,2.488,16.816,5.191,26.064c-0.815-5.842-1.212-13.489-1.03-20.135c4.029,10.899,9.942,21.237,14.856,27.256
			c-8.412-18.437-9.413-29.266-5.94-42.733c0.627,6.12,1.595,11.596,2.818,14.378c0.027-3.781,0.953-6.406,2.084-8.883
			c0.343,7.64,1.375,16.059,3.31,24.91c-0.676-9.741,0.127-24.341,2.273-31.03c0.344,4.037,0.889,7.578,1.668,12.423
			c1.028-5.017,2.763-12.61,5.478-16.75c-0.622,6.254-0.575,12.898,0.339,16.75c0-4.911,1.88-9.581,6.822-16.714
			c0.256,5.856,1.302,12.396,3.382,19.294c-0.83-8.66,0.569-22.625,3.942-24.788c-0.028-0.388-0.096-1.35-0.207-2.603
			c3.104,3.676,3.23,4.26,1.591,8.662c1.182-1.905,2.297-3.671,3.285-5.306c1.744,1.603,1.248,3.099,0.949,6.129
			C150.411,126.298,152.727,119.895,149.425,117.654C149.179,117.411,152.727,119.895,149.425,117.654z"/>
		<path fill="#2D527E" d="M165.949,154.393c2.439-20.758,6.466-30.699,15.189-44.091c0,0,11.702-26.204-0.146-16.295
			C169.144,103.915,164.888,139.71,165.949,154.393z"/>
	</g>
	<g id="white_3_">
		<path fill="#FFFFFF" d="M206.795,107.121C208.361,106.414,206.012,107.474,206.795,107.121L206.795,107.121z"/>
		<path fill="#FFFFFF" d="M209.274,106.044c0,0-0.913,0.37-2.479,1.077c-18.212,8.188-35.424,21.314-28.968,43.07
			c-0.612-9.511,0.687-19.13,7.224-26.451c-6.036,9.617-5.848,22.004-2.799,32.596C181.208,132.453,189.748,119.629,209.274,106.044
			z"/>
	</g>
</g>
<g id="bubbles">
	<g id="l1_1_">
		<g id="medium_2_">
			<path fill="#3B6FA8" d="M179.703,202.414c-1.334,0-2.541,0.536-3.427,1.399c-2.538-3.103-7.678-1.923-8.573,2
				c-3.716-2.824-9.013,0.859-7.669,5.32c1.418,4.707,8.395,4.477,9.49-0.325c1.922,1.459,4.658,1.301,6.389-0.385
				c2.258,2.762,6.738,2.22,8.248-1.022C185.653,206.198,183.231,202.414,179.703,202.414
				C178.369,202.414,182.417,202.414,179.703,202.414z"/>
			<path fill="#3B6FA8" d="M149.094,213.343c-0.214,0-0.417,0.044-0.606,0.114c1.681-3.591-1.964-7.515-5.675-6.087
				c-1.917-4.253-8.326-3.675-9.432,0.87c-1.91-0.796-4.133,0.264-4.74,2.236c-1.296-0.258-2.636,0.248-3.457,1.28
				c-1.374-4.591-7.652-5.577-10.374-1.627c-2.236-1.408-5.22-0.632-6.515,1.653c-2.905-0.93-5.845,1.621-5.297,4.642
				c0.622,3.427,5.115,4.518,7.266,1.797c1.712,0.857,3.771,0.578,5.194-0.712c2.835,2.882,7.828,1.97,9.47-1.719
				c1.561,2.563,5.513,2.074,6.397-0.8c1.477,0.295,2.993-0.406,3.748-1.705c1.561,1.284,3.713,1.502,5.498,0.562
				c1.416,2.377,4.678,2.912,6.776,1.104c-0.117,1.299,1.22,2.295,2.435,1.781C151.507,216.004,150.969,213.343,149.094,213.343
				C148.88,213.343,150.069,213.343,149.094,213.343z"/>
			<path fill="#3B6FA8" d="M113.785,181.365c0,7.446-5.975,14.032-13.562,14.032c-7.587,0-13.562-6.586-13.562-14.032
				c0-7.445,5.974-14.033,13.562-14.033C107.811,167.332,113.785,173.92,113.785,181.365"/>
			<path fill="#3B6FA8" d="M112.258,142.082c0,1.762-0.829,4.747-3.07,4.747c-2.241,0-3.07-2.985-3.07-4.747
				c0-1.761,0.829-4.748,3.07-4.748C111.429,137.334,112.258,140.321,112.258,142.082"/>
		</g>
	</g>
	<g id="l2_1_">
		<path fill="#8DB6E2" d="M71.736,141.404c2.556,0,4.688-1.81,5.189-4.215c6.497,9.128,21.111,1.143,16.945-9.243
			c-3.983-9.931-19.225-6.554-18.724,4.103c-2.689-2.264-6.927-1.24-8.294,1.99C65.399,137.478,68.01,141.404,71.736,141.404
			C74.292,141.404,68.81,141.404,71.736,141.404z"/>
		<path fill="#8DB6E2" d="M95.621,113.99c4.201,0,4.201-6.516,0-6.516C91.42,107.475,91.421,113.99,95.621,113.99
			C97.42,113.99,93.823,113.99,95.621,113.99z"/>
		<path fill="#8DB6E2" d="M97.25,103.177c2.1,0,2.1-3.257,0-3.257C95.149,99.92,95.149,103.177,97.25,103.177
			C98.149,103.177,96.351,103.177,97.25,103.177z"/>
		<path fill="#8DB6E2" d="M81.774,119.688c3.503,0,3.503-5.431,0-5.431C78.274,114.257,78.274,119.688,81.774,119.688
			C83.273,119.688,80.275,119.688,81.774,119.688z"/>
		<path fill="#8DB6E2" d="M112.258,92.964c1.326,0,1.326-2.055,0-2.055C110.934,90.909,110.934,92.964,112.258,92.964
			C112.825,92.964,111.691,92.964,112.258,92.964z"/>
		<path fill="#8DB6E2" d="M131.698,74.082c1.929,0,1.93-2.99,0-2.99C129.77,71.092,129.77,74.082,131.698,74.082
			C132.524,74.082,130.873,74.082,131.698,74.082z"/>
		<path fill="#8DB6E2" d="M154.198,79.779c2.979,0,2.979-4.615,0-4.615C151.223,75.164,151.223,79.779,154.198,79.779
			C155.473,79.779,152.923,79.779,154.198,79.779z"/>
		<path fill="#8DB6E2" d="M248.166,105.469c5.901,0,8.792-7.519,4.412-11.476c-4.719-4.262-12.328,0.316-10.799,6.479
			c-1.237-0.446-2.559-0.61-3.866-0.473c1.091-7.342-5.406-13.784-12.737-12.645c-1.786-7.335-10.362-11.032-16.924-7.265
			c-4.692-7.765-16.231-7.89-21.099-0.241c-3.888-1.549-8.25-1.7-12.24-0.443c-0.771-0.861-1.796-1.488-2.957-1.77
			c0.859-2.821,3.213-4.405,6.031-4.915c-5.249,0.811-11.622,2.796-12.87,8.693c-0.258,0.764-0.344,1.55-0.271,2.35
			c-0.042,1.017-0.169,2.163,0.247,3.126c-0.849,1.303-1.547,2.714-2.041,4.219c-3.288-2.008-7.35-2.503-11.02-1.329
			c-0.069-0.065-0.146-0.123-0.216-0.188c0.96-6.716-7.967-10.41-12.003-4.899c-3.948-0.126-7.846,0.996-11.105,3.24
			c0.922-4.528,3.007-7.808,7.225-8.474c-5.084,0.613-10.088,2.684-12.612,7.386c-1.68,3.129-3.103,8.611-2.164,12.135
			c-0.029,0.122-0.068,0.239-0.095,0.361c-12.219-6.596-23.426,11.096-12.295,19.358c2.329-2.324,4.891-4.857,8.309-5.323
			c2.706-0.367,6.692,0.445,7.226,3.598c0.375-0.436,0.723-0.896,1.032-1.387c2.178,2.454,4.996,4.323,8.192,5.354
			c2.154-4.724,6.46-8.112,11.724-8.43c2.351-0.14,6.245,0.06,6.695,3.105c0.438,2.972-0.343,5.809-2.421,8.004
			c6.394,1.417,12.798-3.163,13.481-9.688c1.773-1.074,3.273-2.542,4.382-4.291c10.599,10.759,29.5,4.189,31.169-10.768
			c2.23-0.164,4.298-0.908,6.045-2.095c0.351,0.49,0.749,0.939,1.17,1.368c-1.616,7.281,7.241,12.645,12.926,7.74
			c2.725,2.965,6.893,4.235,10.81,3.296c-0.492,6.017,4.402,12.021,10.771,10.949c6.639-1.117,9.625-9.031,6.841-14.757
			C247.458,105.434,247.807,105.469,248.166,105.469C251.802,105.469,247.807,105.469,248.166,105.469z"/>
		<path fill="#8DB6E2" d="M256.416,104.883c-8.496,0-8.496,13.174,0,13.174C264.909,118.057,264.909,104.883,256.416,104.883
			C252.777,104.883,260.053,104.883,256.416,104.883z"/>
		<path fill="#8DB6E2" d="M142.272,196.634c-2.232,0-4.229,0.983-5.598,2.535c-2.762-4.623-9.556-4.31-11.93,0.502
			c-5.364-6.299-15.889-1.27-14.418,6.834c1.449,7.978,12.83,9.093,15.81,1.544c2.697,2.65,7.09,2.535,9.657-0.241
			c2.909,5.073,10.51,4.865,13.146-0.334C151.414,202.591,147.736,196.634,142.272,196.634
			C140.041,196.634,146.397,196.634,142.272,196.634z"/>
		<path fill="#8DB6E2" d="M104.835,201.296c-0.651-5.199-5.478-9.056-10.695-8.529c-2.032-7.923-11.464-11.756-18.433-7.417
			c-0.1-3.952-4.581-7.053-7.875-3.995c-0.443-0.846-0.997-1.626-1.645-2.316c0.653-0.373,1.234-0.852,1.744-1.397
			c3.891,2.879,9.534,1.864,12.193-2.159c2.73-4.13,1.262-9.89-3.099-12.228c0.119-2.258-0.943-4.442-2.802-5.739
			c0.205-0.36,0.375-0.742,0.506-1.142c3.318,0.738,6.265-2.519,5.19-5.748c-1.092-3.282-5.492-4.065-7.669-1.381
			c-6.519-4.349-13.516,5.355-7.309,10.141c-1.152,1.811-1.33,4.074-0.499,6.048c-5.728-1.538-10.946,4.185-8.88,9.749
			c-1.023,0.469-1.888,1.219-2.495,2.156c-9.528,5.991-3.508,21.156,7.52,19.028c0.042,1.368,0.447,2.644,1.123,3.735
			c-6.297,1.589-9.627,8.785-6.734,14.617c-2.956,2.747-3.701,7.262-1.753,10.806c-8.265,4.723-5.482,17.714,4.009,18.593
			c-2.739,4.09-0.317,10.025,4.642,10.703c-3.943,7.868,9.949,11.726,10.705,3.033c6.038-0.416,8.712-8.123,4.188-12.188
			c7.974-5.541-0.913-17.784-8.642-11.896c-0.083-1.993-0.75-3.834-1.833-5.357c2.932-2.153,4.266-5.934,3.34-9.448
			c1.146-0.702,2.144-1.619,2.94-2.695c6.27,2.772,13.65-1.482,14.39-8.29c1.563,2.332,4.099,3.948,7.026,4.282
			c2.694,3.761,8.226,4.355,11.645,1.23C109.279,210.157,108.88,204.131,104.835,201.296
			C104.229,196.461,106.856,202.712,104.835,201.296z M64.936,241.499c0.151-0.14,0.3-0.281,0.442-0.433
			c0.045,0.226,0.085,0.454,0.15,0.672C65.336,241.648,65.137,241.571,64.936,241.499C65.087,241.359,65.137,241.571,64.936,241.499
			z"/>
		<path fill="#8DB6E2" d="M198.926,199.947c-2.077,0-3.94,0.896-5.241,2.313c-2.606-6.704-12.687-5.867-14.13,1.186
			c-1.484,7.256,7.909,11.949,12.804,6.352c2.145,5.137,9.36,5.839,12.467,1.241C207.958,206.4,204.513,199.947,198.926,199.947
			C196.849,199.947,202.857,199.947,198.926,199.947z"/>
		<path fill="#8DB6E2" d="M58.75,159.639c3.35,0,3.35-5.196,0-5.196C55.398,154.442,55.399,159.639,58.75,159.639
			C60.184,159.639,57.314,159.639,58.75,159.639z"/>
		<path fill="#8DB6E2" d="M77.352,262.36c-6.303,0-6.303,9.774,0,9.774S83.655,262.36,77.352,262.36
			C74.654,262.36,80.051,262.36,77.352,262.36z"/>
	</g>
	<g id="l3_1_">
		<g id="white_2_">
			<path fill="#FFFFFF" d="M183.72,93.769c-3.288,1.058-4.526,5.175-2.389,7.882c-2.782-1.04-5.968,0.235-7.275,2.891
				c-0.837-4.31-7.125-4.492-8.23-0.263c-1.188,4.548,5.137,7.29,7.653,3.319c0.307,3.689,4.077,6.209,7.604,5.074
				c3.899-1.257,5.313-6.237,2.644-9.354c3.229,1.046,6.623-1.471,6.558-4.864C190.221,95.138,186.874,92.75,183.72,93.769
				C181.082,94.618,186.362,92.916,183.72,93.769z"/>
			<path fill="#FFFFFF" d="M233.419,101.268c-6.158-6.157-15.707,3.394-9.549,9.551
				C230.029,116.975,239.579,107.426,233.419,101.268C230.782,98.632,236.057,103.906,233.419,101.268z"/>
			<path fill="#FFFFFF" d="M179.435,88.769c0,2.84-4.404,2.841-4.404,0S179.435,85.928,179.435,88.769"/>
		</g>
		<g>
			<path fill="#A6CCED" d="M212.396,203.674c0.408-2.869-1.287-5.598-3.92-6.723c3.318-5.378-2.721-11.882-8.322-9.021
				c-0.134-1.382-0.78-2.61-1.744-3.505c1.959-4.57-4.143-9.193-7.274-4.646c-4.35-5.007-12.618-0.048-10.275,6.138
				c-1.563,0.798-2.777,2.173-3.365,3.847c-3.118-5.484-11.731-3.333-11.915,2.959c-3.378-2.794-8.625-0.199-8.403,4.211
				c-3.45-1.202-6.567,2.74-4.605,5.819c1.938,3.039,6.728,1.951,7.204-1.597c0.671,0.377,1.38,0.61,2.152,0.666
				c-0.331,3.953,3.13,7.304,7.081,6.846c4.528-0.527,7.077-5.727,4.709-9.634c1.914-0.551,3.453-1.973,4.171-3.81
				c3.167,6.034,12.548,3.995,12.936-2.791c1.54,1.491,3.854,1.956,5.848,1.172c0,2.353,1.336,4.557,3.417,5.649
				c-3.372,4.822,1.354,10.72,6.746,9.863c0.412,3.938,5.221,5.855,8.216,3.251C218.242,209.593,216.589,204.199,212.396,203.674
				C212.437,203.387,214.856,203.982,212.396,203.674z"/>
			<path fill="#A6CCED" d="M141.153,107.095c7.464-1.742,4.764-13.319-2.701-11.576C130.988,97.26,133.689,108.839,141.153,107.095
				C144.351,106.349,137.958,107.842,141.153,107.095z"/>
			<path fill="#A6CCED" d="M118.827,112.974c0.462-0.462,0.838-0.976,1.138-1.52c1.859-0.073,3.512-1.255,4.171-2.991
				c2.737,2.712,7.524,0.476,7.198-3.364c-0.362-4.255-6.321-5.256-8.069-1.372c-1.357-1.538-3.582-2.008-5.452-1.135
				c-4.676-3.142-11.085,0.759-10.473,6.347C107.945,114.462,114.902,116.898,118.827,112.974
				C119.289,112.512,116.19,115.61,118.827,112.974z"/>
			<path fill="#A6CCED" d="M86.64,128.974c0,4.777,7.647,3.755,6.386-0.855c2.415-0.212,4.387-1.962,4.896-4.28
				c8.135,2.968,14.947-7.312,9.096-13.652c-5.517-5.979-15.74-1.066-14.553,6.964c-4.52,0.067-7.052,5.506-4.169,9.004
				C87.312,126.714,86.64,127.76,86.64,128.974C86.64,130.774,86.64,127.76,86.64,128.974z"/>
			<path fill="#A6CCED" d="M156.459,96.604c2.275-4.439-4.609-7.969-6.886-3.528C147.297,97.518,154.184,101.047,156.459,96.604
				C157.434,94.703,155.485,98.507,156.459,96.604z"/>
			<path fill="#A6CCED" d="M71.628,220.588c-2.2,0-4.091,1.303-4.957,3.176c-1.745-1.246-4.166-0.981-5.611,0.587
				c-1.257-1.237-3.073-1.667-4.755-1.165c1.171-4.121-4.059-7.199-7.102-4.215c-3.013,2.956-0.159,8.154,3.957,7.193
				c-0.257,0.719-0.331,1.414-0.243,2.167c-2.026,0.313-3.709,1.659-4.483,3.49c-3.809-1.358-7.658,2.281-6.489,6.163
				c1.22,4.051,6.799,4.788,9.049,1.22c4.544,2.513,9.975-1.989,8.367-6.923c0.897-0.335,1.664-0.924,2.216-1.688
				c1.878,1.468,4.634,1.092,6.051-0.832c2.654,2.857,7.513,2.004,9.032-1.586C78.16,224.633,75.468,220.588,71.628,220.588
				C69.428,220.588,74.644,220.588,71.628,220.588z"/>
			<path fill="#A6CCED" d="M128.742,206.271c-0.149,0-0.291,0.027-0.437,0.043c0.483-1.471-0.222-3.079-1.635-3.713
				c2.085-1.949,1.407-5.479-1.234-6.525c1.354-6-7.647-8.551-9.632-2.732c-3.785-4.905-11.592-4.273-14.532,1.182
				c-5.084-1.298-10.234,2.472-10.515,7.719c-2.892-2.85-7.904-1.845-9.477,1.896c-5.222-3.895-12.901-0.424-13.454,6.038
				c-0.555,6.498,6.477,11.241,12.292,8.227c4.173,2.905,9.678-1.634,7.657-6.275c2.123-0.411,3.836-1.971,4.464-4.007
				c0.3,0.233,0.636,0.42,0.991,0.57c0.944,0.938,2.108,1.652,3.409,2.063c1.048,2.625,4.247,3.719,6.685,2.282
				c4.944,7.177,16.121-0.475,11.106-7.676c0.246-0.201,0.479-0.418,0.701-0.646c2.155,2.24,5.99,1.381,7.009-1.539
				c0.278,0.149,0.57,0.276,0.884,0.357c-0.933,1.22-0.802,2.973,0.32,4.036c-4.192,0.85-1.369,7.387,2.131,4.833
				c1.597,2.371,5.226,2.249,6.666-0.21C133.651,209.616,131.723,206.271,128.742,206.271
				C128.592,206.271,130.916,206.271,128.742,206.271z"/>
			<path fill="#A6CCED" d="M146.87,204.039c-3.427-1.757-6.151,3.561-2.723,5.316C147.574,211.111,150.297,205.798,146.87,204.039
				C145.403,203.287,148.337,204.793,146.87,204.039z"/>
			<path fill="#A6CCED" d="M145.57,195.717c3.154-6.155-8.098-8.876-8.053-1.957c-2.686-0.874-5.524,1.157-5.524,3.998
				c0,3.322,3.843,5.377,6.604,3.484c1.452-0.416,2.429-1.785,2.344-3.299C142.767,198.302,144.68,197.453,145.57,195.717
				C146.647,193.615,144.68,197.453,145.57,195.717z"/>
			<path fill="#A6CCED" d="M46.831,212.449c4.433,4.782,10.753-3.82,4.957-6.642c1.708-4.663-4.438-8.377-7.769-4.684
				c-4.67-1.364-9.325,2.74-8.555,7.545C36.312,213.955,42.977,216.188,46.831,212.449
				C47.157,212.802,44.811,214.408,46.831,212.449z"/>
			<path fill="#A6CCED" d="M47.563,221.489c2.275-4.44-4.611-7.972-6.885-3.529C38.399,222.4,45.288,225.93,47.563,221.489
				C48.537,219.587,46.589,223.39,47.563,221.489z"/>
		</g>
		<g>
			<path fill="#3B6FA8" d="M72.416,223.351c5.253,0,5.253-8.147,0-8.147S67.162,223.351,72.416,223.351
				C74.665,223.351,70.167,223.351,72.416,223.351z"/>
			<path fill="#3B6FA8" d="M83.057,213.868c-6.644,0-6.644,10.301,0,10.301C89.698,224.169,89.698,213.868,83.057,213.868
				C80.211,213.868,85.899,213.868,83.057,213.868z"/>
			<path fill="#3B6FA8" d="M68.271,201.895c-1.063-3.294-4.414-5.207-7.728-4.551c2.589-7.107-10.324-7.214-7.949-0.088
				c-2.542,1.18-3.449,4.382-1.926,6.718c-4.699,1.42-3.27,8.69,1.666,8.142c0.657,5.079,8.568,1.692,5.378-2.284
				c0.167-0.048,0.326-0.113,0.485-0.183C63.439,213.009,70.167,207.777,68.271,201.895
				C67.209,198.601,69.415,205.443,68.271,201.895z"/>
			<path fill="#3B6FA8" d="M72.406,235.586c0-3.852-5.973-3.852-5.973,0S72.406,239.438,72.406,235.586
				C72.406,233.937,72.406,237.235,72.406,235.586z"/>
			<path fill="#3B6FA8" d="M49.877,237.215c-1.871,0-3.473,1.117-4.198,2.717c-2.7,0-4.645,2.768-3.698,5.308
				c1.055,2.835,4.9,3.42,6.769,1.052C55.257,247.929,56.566,237.215,49.877,237.215C48.007,237.215,52.426,237.215,49.877,237.215z
				"/>
			<path fill="#3B6FA8" d="M77.22,270.364c-3.503,0-3.502,5.431,0,5.431C80.721,275.795,80.722,270.364,77.22,270.364
				C75.72,270.364,78.719,270.364,77.22,270.364z"/>
			<path fill="#3B6FA8" d="M77.22,265.206c0-5.952-9.231-5.952-9.231,0C67.989,271.159,77.22,271.159,77.22,265.206
				C77.22,262.657,77.22,267.756,77.22,265.206z"/>
		</g>
		<g>
			<path fill="#A6CCED" d="M69.792,254.921c0.023-3.432-3.951-5.494-6.737-3.511c-2.939,2.091-1.998,6.787,1.494,7.623
				c-0.81,4.556,4.724,7.716,8.228,4.668C76.103,260.808,74.178,255.193,69.792,254.921
				C69.802,253.359,72.419,255.084,69.792,254.921z"/>
			<path fill="#A6CCED" d="M74.568,229.206c-0.018-0.009-0.037-0.014-0.054-0.021c1.828-4.989-5.17-8.582-8.155-4.184
				c-4.81-2.6-10.652,1.713-9.798,7.044c0.948,5.912,8.925,7.694,12.271,2.699C72.006,241.55,81.207,232.606,74.568,229.206
				C74.55,229.197,76.643,230.268,74.568,229.206z"/>
			<path fill="#A6CCED" d="M63.452,246.543c4.44,2.275,7.971-4.609,3.529-6.886C62.541,237.382,59.011,244.27,63.452,246.543
				C65.354,247.518,61.55,245.569,63.452,246.543z"/>
		</g>
		<g>
			<path fill="#3B6FA8" d="M99.761,218.212c-3.064,0-3.064,4.749,0,4.749C102.825,222.961,102.824,218.212,99.761,218.212
				C98.448,218.212,101.073,218.212,99.761,218.212z"/>
			<path fill="#3B6FA8" d="M52.862,246.988c-3.503,0-3.503,5.431,0,5.431C56.364,252.419,56.364,246.988,52.862,246.988
				C51.363,246.988,54.362,246.988,52.862,246.988z"/>
			<path fill="#3B6FA8" d="M116.184,214.408c-4.988,0-4.99,7.738,0,7.738S121.173,214.408,116.184,214.408
				C114.048,214.408,118.322,214.408,116.184,214.408z"/>
			<path fill="#3B6FA8" d="M92.715,215.967c-2.73,0-2.73,4.233,0,4.233C95.446,220.2,95.446,215.967,92.715,215.967
				C91.546,215.967,93.884,215.967,92.715,215.967z"/>
			<path fill="#3B6FA8" d="M68.398,263.307c-5.077,0-5.077,7.871,0,7.871C73.475,271.178,73.475,263.307,68.398,263.307
				C66.225,263.307,70.572,263.307,68.398,263.307z"/>
			<path fill="#3B6FA8" d="M84.9,220.72c2.604-7.148-10.372-7.169-7.949-0.087c-2.543,1.179-3.447,4.38-1.926,6.716
				c-4.699,1.421-3.268,8.693,1.667,8.145c0.118,0.906,0.648,1.737,1.487,2.228c-1.112,0.785-1.729,2.063-1.649,3.423
				c-5.984,0.045-5.15,9.514,0.778,8.443c0.169,0.917,0.6,1.738,1.21,2.395c-6.248-2.249-10.751,6.484-5.312,10.279
				c5.699,3.975,12.404-4.094,7.41-8.968c6.286,1.957,8.767-8.122,2.295-9.313c2.357-1.895,1.698-5.658-1.079-6.724
				c1.096-1.079,1.208-2.842,0.239-4.05c0.167-0.048,0.326-0.114,0.485-0.183c3.902,2.501,9.242,0.275,10.241-4.228
				C93.831,224.13,89.59,219.791,84.9,220.72C85.211,219.868,88.214,220.064,84.9,220.72z"/>
			<path fill="#3B6FA8" d="M261.741,123.605c6.692-4.6,2.247-12.657-1.524-17.579c2.686,3.667,2.456,7.471-1.059,10.416
				c1.627-2.873-0.348-6.531-3.633-6.768c2.271-7.725-0.395-12.499-1.857-13.998c0.057,3.245-2.447,6.998-5.308,10.006
				c-0.59-0.349-1.26-0.571-1.978-0.63c-0.737-1.644-2.112-2.936-3.8-3.563c-0.206-4.563,1.689-8.27,6.458-9.132
				c-2.771,0.427-5.605,1.099-8.072,2.479c-2.258-4.093-7.052-5.788-11.391-6.582c5.674,1.219,6.646,6.811,6.256,11.805
				c-1.842,0.911-2.797,3.001-2.274,4.982c-1.685-0.061-3.236,0.953-3.835,2.542c-1.565-0.316-3.22,0.084-4.467,1.083
				c-0.449-0.485-0.995-0.877-1.616-1.13c2.865-3.599,0.206-9.058-4.379-9.058c-0.058-3.213-0.547-6.469-2.386-9.184
				c-2.962-4.372-8.397-6.21-13.357-7.117c6.752,1.45,8.084,7.999,7.679,14.004c-0.181-0.069-0.366-0.129-0.561-0.173
				c-0.296-3.83-3.156-9.088-9.889-8.704c4.362,0.106,5.107,2.95,4.434,6.798c-1.924-1.444-4.581-1.5-6.576-0.157
				c-1.89-4.91-7.759-6.517-12.44-7.241c6.654,1.206,7.011,7.525,5.973,13.054c-1.444-0.344-2.972-0.106-4.238,0.673
				c-1.45-1.887-3.622-3.784-6.207-5.886c3.691,3.317,2.62,5.135-1.974,12.149c-1.821,0.211-3.405,1.189-4.427,2.603
				c-0.925-0.895-2.238-1.217-3.476-0.866c-0.422-2.334-3.049-3.663-5.173-2.575c-0.407-3.615-1.997-5.687-4.171-8.003
				c1.433,1.75,1.541,3.52,1.038,8.843c-2.349-0.38-4.272,1.957-3.497,4.187c-1.898-0.084-3.625,1.205-4.033,3.081
				c-0.85-0.788-1.962-1.144-3.105-1.016c0.481-1.471-0.223-3.08-1.636-3.714c3.246-3.031-0.497-8.398-4.456-6.362
				c-1.043-6.362-7.229-8.81-12.941-9.758c3.711,0.723,5.938,3.343,6.376,7.045c-1.774-0.967-3.964-1.522-6.643-1.369
				c4.711,0.114,6.135,2.716,5.959,6.475c-2.735-0.905-5.667,0.984-6.019,3.834c-1.235,0-2.435,0.319-3.496,0.955
				c-0.712-3.662-3.627-7.956-9.736-7.606c5.068,0.123,5.259,3.936,4.008,8.731c-0.226,0.063-0.448,0.139-0.659,0.233
				c-0.019-4.222-5.778-5.751-7.888-2.078c-2.132-2.599-6.141-2.832-8.562-0.5c-2.592-5.427-8.709-7.67-14.254-8.687
				c4.794,1.03,7.198,4.83,7.65,9.502c-6.484-2.498-11.021-0.768-12.602,0.364c4.536,0.614,9.299,6.411,11.742,10.76
				c-0.113,0.613-0.234,1.225-0.358,1.84c-3.497-2.522-8.035,1.642-5.881,5.336c-1.514,0.871-2.57,2.444-2.722,4.277
				c-1.554-0.447-3.212,0.008-4.313,1.204c-2.45-2.415-6.678-1.467-7.879,1.747c-2.852-0.931-6.025,0.517-7.191,3.277
				c-5.24-1.87-9.139,5.242-4.749,8.663c-5.223,3.074,1.297,10.581,5.064,5.806c3.682,0.933,6.9-2.91,5.316-6.373
				c2.803-0.119,5.089-2.212,5.51-4.928c0.552,0.064,1.05,0.057,1.596-0.064c1.105,3.534,6.445,2.603,6.342-1.067
				c1.54-0.325,2.768-1.476,3.208-2.972c5.494,2.885,10.766-4.585,6.272-8.813c0.755-0.796,1.137-1.83,1.112-2.921
				c0.456-0.148,0.947-0.325,1.455-0.532c-0.745,8.634,13.813,5.751,9.645-2.021c0.744-1.387,0.828-3.025,0.199-4.471
				c2.123-0.41,3.836-1.969,4.464-4.005c1.167,0.911,2.705,1.148,4.09,0.621c-0.234,3.66,3.811,6.17,6.994,4.293
				c3.458,5.021,11.558,3.028,12.267-3.03c1.125,0.874,2.576,1.117,3.923,0.661c0.749,1.366,2.191,2.232,3.75,2.232
				c-2.319,2.551,0.805,6.49,3.815,4.808c1.506,1.14,3.701,0.656,4.604-0.998c2.045,0.473,4.136-0.845,4.574-2.9
				c4.271,5.255,10.37-4.612,3.768-6.089c0.482-0.721,0.962-1.578,1.35-2.53c0.929,0.788,2.145,1.051,3.317,0.713
				c0.433,2.334,3.046,3.613,5.157,2.535c2.218,6.56,12.198,5.068,12.411-1.846c0.085,0.018,0.176,0.016,0.262,0.027
				c2.204,6.669,12.358,1.242,7.966-4.293c0.402-0.454,0.736-0.969,0.976-1.536c1.394,0.124,2.73-0.31,3.78-1.249
				c1.317,2.906,4.967,4.06,7.708,2.431c-0.447,3.537,2.731,6.577,6.25,5.947c-0.652,4.365,5.82,5.813,7.102,1.603
				c1.075,0.259,2.176,0.115,3.157-0.401c1.581,2.558,5.019,3.332,7.544,1.704c0.465,0.629,1.136,1.09,1.917,1.285
				c1.918,1.762,4.599,2.22,6.911,1.359c1.75,2.63,5.445,3.279,7.984,1.388c0.471,1.677,1.855,2.963,3.595,3.272
				C251.309,132.648,264.266,131.09,261.741,123.605C261.848,123.532,261.911,124.106,261.741,123.605z"/>
			<path fill="#3B6FA8" d="M78.516,156.337c0-3.5-5.431-3.501-5.431,0C73.085,159.84,78.516,159.839,78.516,156.337
				C78.516,154.838,78.516,157.837,78.516,156.337z"/>
			<path fill="#3B6FA8" d="M100.236,142.22c0-3.851-5.973-3.851-5.973,0C94.263,146.072,100.236,146.072,100.236,142.22
				C100.236,140.57,100.236,143.87,100.236,142.22z"/>
			<path fill="#3B6FA8" d="M126.706,127.221c0-3.063-4.75-3.063-4.75,0C121.955,130.285,126.706,130.285,126.706,127.221
				C126.706,125.909,126.706,128.534,126.706,127.221z"/>
			<path fill="#3B6FA8" d="M140.753,121.859c-4.988,0-4.989,7.738,0,7.738C145.743,129.598,145.743,121.859,140.753,121.859
				C138.617,121.859,142.89,121.859,140.753,121.859z"/>
			<path fill="#3B6FA8" d="M162.133,127.479c0-4.026-6.244-4.026-6.244,0C155.889,131.506,162.133,131.505,162.133,127.479
				C162.133,125.754,162.133,129.203,162.133,127.479z"/>
			<path fill="#3B6FA8" d="M119.401,124.718c0-2.729-4.233-2.729-4.233,0C115.168,127.448,119.401,127.448,119.401,124.718
				C119.401,123.55,119.401,125.887,119.401,124.718z"/>
			<path fill="#3B6FA8" d="M242.261,124.718c-3.602,0-3.602,5.585,0,5.585C245.864,130.303,245.864,124.718,242.261,124.718
				C240.719,124.718,243.804,124.718,242.261,124.718z"/>
			<path fill="#3B6FA8" d="M177.533,203.587c-2.725-1.397-4.895,2.83-2.167,4.228C178.094,209.211,180.26,204.982,177.533,203.587
				C176.366,202.988,178.701,204.184,177.533,203.587z"/>
			<path fill="#3B6FA8" d="M193.51,208.42c-4.441-2.274-7.97,4.611-3.528,6.887C194.421,217.584,197.951,210.694,193.51,208.42
				C191.609,207.445,195.413,209.394,193.51,208.42z"/>
			<path fill="#3B6FA8" d="M172.287,198.376c-2.43-1.245-4.36,2.52-1.931,3.768C172.784,203.387,174.715,199.622,172.287,198.376
				C171.247,197.843,173.327,198.909,172.287,198.376z"/>
			<path fill="#3B6FA8" d="M209.321,194.688c-1.859-0.953-4.11-0.271-5.165,1.497c-0.942-0.335-1.938-0.318-2.832,0.01
				c-0.158-4.375-5.964-6.07-8.435-2.434c-1.87-0.985-4.141-1.011-6.045-0.101c-0.78-1.374-2.223-2.265-3.806-2.347
				c0.878-1.732,0.439-3.773-0.93-5.025c1.119-4.998-5.243-8.361-8.746-4.632c-2.021-0.784-4.265-0.363-5.86,0.978
				c-4.264-8.693-17.88-3.992-15.825,5.504c-2.627,0.693-3.865,3.816-2.399,6.117c1.648,2.585,5.589,2.416,7.025-0.283
				c1.182,0.563,2.43,0.834,3.66,0.828c2.391,4.492,9.355,2.958,9.678-2.095c2.077,0.604,4.313-0.002,5.801-1.528
				c0.622,1.343,1.883,2.256,3.354,2.419c-1.873,3.153,0.578,7.231,4.269,7.012c0.785,6.032,8.897,7.971,12.297,2.897
				c1.32,2.828,5.275,3.263,7.168,0.766c0.231,0.013,0.463,0.008,0.691-0.018c0.117,0.907,0.648,1.74,1.489,2.229
				c-1.113,0.786-1.729,2.062-1.651,3.424c-3.704,0.024-5.613,4.607-3.025,7.245c2.804,2.858,7.822,0.443,7.279-3.559
				c4.108-0.361,4.842-6.129,1.048-7.574c1.094-1.084,1.211-2.84,0.239-4.051C211.976,201.006,212.429,196.282,209.321,194.688
				C207.461,193.735,211.255,195.681,209.321,194.688z"/>
			<path fill="#3B6FA8" d="M99.788,170.231c2.634-4.237-3.938-8.323-6.571-4.084C90.583,170.386,97.154,174.469,99.788,170.231
				C100.916,168.417,98.66,172.046,99.788,170.231z"/>
			<path fill="#3B6FA8" d="M127.21,185.474c-5.641-3.507-11.079,5.244-5.436,8.749C127.416,197.729,132.854,188.978,127.21,185.474
				C124.796,183.972,129.627,186.975,127.21,185.474z"/>
			<path fill="#3B6FA8" d="M117.521,185.96c0-0.958-0.232-1.86-0.634-2.661c3.27-1.722-1.283-6.131-2.889-2.764
				c-5.375-2.401-10.661,4.001-7.3,8.82C109.951,194.018,117.521,191.648,117.521,185.96
				C117.521,185.002,117.521,189.242,117.521,185.96z"/>
			<path fill="#3B6FA8" d="M92.729,179.291c-0.154-0.097-0.318-0.16-0.478-0.234c0.72-2.082-0.319-4.377-2.328-5.242
				c1.837-5.488-8.336-3.516-4.633,0.883c-0.055,0.055-0.108,0.11-0.16,0.17c-0.231-0.032-0.461-0.048-0.692-0.041
				c-0.042-0.915-0.502-1.786-1.299-2.343c1.173-0.692,1.894-1.912,1.926-3.277c3.694,0.28,5.976-4.129,3.613-6.973
				c-2.56-3.078-7.759-1.085-7.549,2.949c-4.116,0.019-5.339,5.718-1.668,7.462c-1.178,0.985-1.439,2.73-0.572,4.017
				c-0.333,0.066-0.655,0.174-0.962,0.323c-3.162-2.475-7.972-0.979-9.169,2.849c-1.257,4.021,2.216,8.118,6.396,7.523
				c0.767,3.803,5.513,5.321,8.335,2.663c2.235,0.902,4.81-0.056,5.872-2.254C94.29,188.762,97.012,181.952,92.729,179.291
				C92.575,179.194,94.906,180.644,92.729,179.291z"/>
			<path fill="#3B6FA8" d="M68.833,177.438c3.602-2.163,0.244-7.748-3.357-5.584C61.875,174.02,65.231,179.602,68.833,177.438
				C70.375,176.511,67.29,178.364,68.833,177.438z"/>
			<path fill="#3B6FA8" d="M264.46,134.352c-3.148,0-3.148,4.882,0,4.882C267.61,139.233,267.61,134.352,264.46,134.352
				C263.113,134.352,265.809,134.352,264.46,134.352z"/>
		</g>
		<g>
			<path fill="#A6CCED" d="M70.196,197.673c4.75-1.528,2.375-8.893-2.374-7.364C63.074,191.842,65.447,199.205,70.196,197.673
				C72.229,197.019,68.162,198.328,70.196,197.673z"/>
			<path fill="#A6CCED" d="M57.882,214.041c-4.519-2.315-8.108,4.69-3.591,7.006C58.809,223.363,62.401,216.357,57.882,214.041
				C55.947,213.05,59.816,215.033,57.882,214.041z"/>
			<path fill="#A6CCED" d="M66.847,184.869c3.924-0.624,5.417-5.657,2.481-8.322c-3.097-2.811-8.179-0.432-8.033,3.742
				c-0.856,0.278-1.562,0.804-2.069,1.469c-3.157-2.647-7.763,0.913-6.097,4.616c-1.371-0.01-2.58,0.9-2.944,2.222
				c-4.901-0.484-5.85,6.966-1.007,7.773c2.951,5.946,11.548-0.981,6.327-5.109c0.558-0.727,0.783-1.689,0.535-2.633
				c1.346,0.232,2.684-0.237,3.587-1.253C62.11,189.825,66.421,188.323,66.847,184.869
				C67.439,184.774,66.649,186.468,66.847,184.869z"/>
			<path fill="#A6CCED" d="M75.98,213.913c-0.007,0.003-0.014,0.007-0.021,0.011c-1.597-2.799-5.846-2.504-7.061,0.463
				c-1.201,2.932,1.535,6.068,4.605,5.29c1.526,3.212,6.277,3.09,7.625-0.204C82.451,216.25,79.292,212.846,75.98,213.913
				C75.973,213.916,78.176,213.206,75.98,213.913z"/>
			<path fill="#A6CCED" d="M93.496,180.688c-4.432-2.115-9.034,3.033-6.397,7.21c-1.647,1.178-2.574,3.175-2.418,5.192
				c-5.38-1.67-9.892,4.745-6.506,9.247c3.509,4.667,11.19,1.722,10.664-4.104c5.495,1.636,9.829-5.181,6.025-9.467
				C97.288,186.353,96.592,182.165,93.496,180.688C90.993,179.492,96,181.883,93.496,180.688z"/>
			<path fill="#A6CCED" d="M111.417,186.264c-3.026-3.968-9.176,0.728-6.15,4.693C108.294,194.923,114.446,190.228,111.417,186.264
				C110.121,184.563,112.714,187.961,111.417,186.264z"/>
			<path fill="#A6CCED" d="M130.612,190.824c-1.266-0.648-2.657-0.79-3.944-0.499c-2.523-9.653-17.415-3.403-12.341,5.147
				c-7.571-0.068-3.344,12.143,2.57,7.522c2.505,2.562,6.946,1.345,7.79-2.139C131.309,205.309,137.702,194.458,130.612,190.824
				C129.346,190.176,133.481,192.294,130.612,190.824z"/>
			<path fill="#A6CCED" d="M161.517,199.767c-1.777,0-3.282,1.121-3.875,2.69c-1.048-1.078-2.495-1.759-4.104-1.813
				c2.859-4.51-2.121-10.121-6.943-7.857c-4.932,2.316-3.576,9.908,1.846,10.383c-2.231,3.143-0.866,7.682,2.725,9.074
				c3.575,1.387,7.63-1.025,8.121-4.826C165.245,211.217,168.535,199.767,161.517,199.767
				C159.74,199.767,163.811,199.767,161.517,199.767z"/>
		</g>
	</g>
</g>
</svg>
