<?xml version="1.0" encoding="utf-8"?>
<!-- Generator: Adobe Illustrator 15.1.0, SVG Export Plug-In . SVG Version: 6.00 Build 0)  -->
<!DOCTYPE svg PUBLIC "-//W3C//DTD SVG 1.1//EN" "http://www.w3.org/Graphics/SVG/1.1/DTD/svg11.dtd">
<svg version="1.1" id="logo" xmlns="http://www.w3.org/2000/svg" xmlns:xlink="http://www.w3.org/1999/xlink" x="0px" y="0px"
	 width="68.725px" height="88.809px" viewBox="0 0 68.725 88.809" enable-background="new 0 0 68.725 88.809" xml:space="preserve">
<path fill="#437BC3" d="M64.131,63.264c-0.006-0.059-0.012-0.117-0.018-0.176c0-0.008-0.006-0.064-0.021-0.214
	c-0.39-3.694-0.454-7.429-1.166-11.084c-0.515-2.646-1.066-6.892-4.113-7.617c-0.827-0.196-7.914-1.959-8.397-1.242
	c-0.106-0.016-3.967-1.655-7.349-2.979c1.581,0.149,3.165,0.073,4.434-0.607c2.934-1.574,0.319-5.725-0.698-7.636
	c-2.28-4.285-4.359-10.09-1.493-14.612c1.903-3.002,5.451-4.525,8.84-5.077c0.228-3.181-5.558-2.726-7.35-2.727
	c-0.884,0-1.77,0.012-2.654,0.028c0.027-0.076,0.054-0.161,0.082-0.242c0.833-0.811,1.779-1.591,2.875-2.322
	c-0.745-0.016-1.541,0.002-2.355,0.035c0-0.389-0.108-0.646-0.4-0.638c-0.568,0.018-1.075,0.31-1.53,0.753
	c-7.636,0.602-16.983,2.886-20.64,4.964c-0.064,0.241-0.118,0.477-0.175,0.713C22,12.592,21.999,12.6,21.997,12.606
	c-0.043,0.181-0.086,0.36-0.125,0.538c-0.027,0.014-0.054,0.028-0.082,0.043c-0.874-1.282-2.389,0.383-2.92,1.23
	c-0.292-0.268-0.496,0.51-0.608,1.125c-1.162,1.083-1.93,2.303-2.368,3.597c-1.419-0.058-3.056,0.273-3.685,1.144l-0.067,0.444
	c-0.376,4.811-1.937,14.592,6.171,11.817c0,0-0.04-1.096-0.082-2.632c0.412,0.598,0.869,1.217,1.366,1.831
	c0.387,0.718,0.811,1.419,1.3,2.1c-0.119-0.335-0.228-0.66-0.333-0.983c1.226,1.329,2.632,2.511,4.177,3.137
	c1.294,0.523,3.008,0.428,4.391,0.775c1.196,0.301,2.387,0.621,3.578,0.94c-3.297-0.173-6.617-0.009-9.848,0.604
	c-4.246,0.804-8.809,2.671-10.877,6.735c-0.914,1.795-0.116,13.408-0.304,13.455c0.462,8.035,0.775,16.058,2.636,23.933
	c0.913,3.865,5.188,5.205,8.55,5.714c4.078,0.618,8.293,0.789,12.408,0.554c2.122-0.122,4.239-0.374,6.321-0.807
	c1.53-0.318,3.995-0.554,5.288-1.483c3.228-2.316,1.723-7.705,4.377-10.065c0.02-0.018,0.042-0.033,0.062-0.051
	c1.581-1.021,3.143-2.069,4.688-3.144c2.613-1.5,5.194-2.938,6.712-5.168c0.7-0.733,0.969-1.366,1.037-2.231
	c0.268-0.954,0.392-2.02,0.289-3.261c0.023,0.222,0.044,0.417,0.056,0.521C64.114,63.1,64.121,63.182,64.131,63.264z M58.629,64.986
	c-0.321,0.541-0.783,0.971-1.326,1.326c-0.33,0.159-0.637,0.301-0.877,0.422c-0.342,0.173-0.696,0.32-1.049,0.468
	c-1.571,0.52-3.324,0.763-4.609,1.079c0.235-3.523,0.395-7.054,0.467-10.584c0.031-1.528,0.029-3.058-0.075-4.583
	c-0.031-0.455,0.037-2.087-0.145-1.87c0.846-1.006,1.798-1.818,2.747-2.241c0.986-0.315,2.052-0.218,3.02,0.591
	c0.425,0.355,0.759,0.815,1.037,1.328c0.086,0.191,0.172,0.382,0.251,0.601c0.44,1.218,0.696,2.501,0.926,3.784
	c0.064,0.5,0.12,0.984,0.172,1.417C59.465,59.189,59.975,62.725,58.629,64.986z"/>
<path fill="#91B8E2" d="M67.418,11.372c-0.173-0.567-0.353-0.539-0.661-0.964c-0.341-0.251-0.733-0.35-1.152-0.35
	c0.068-1.245-0.315-2.104-0.641-2.545c-0.261-0.643-0.871-1.109-1.566-1.178c-0.726,0.141-1.626,0.313-2.377,0.732
	c-0.502-0.91-1.426-1.422-2.399-1.721c-0.677-0.444-1.499-0.631-2.301-0.507c-0.185-0.757-0.635-1.429-1.256-1.897
	c-1.086-0.816-2.596-0.945-3.782-0.265c-0.915-1.516-2.851-2.132-4.496-1.518c-0.733,0.275-1.363,0.784-1.784,1.446
	c-1.153-0.46-2.459-0.505-3.643-0.133c-0.23-0.256-0.535-0.442-0.881-0.526c0.251-0.823,0.979-1.315,1.796-1.463
	c-1.545,0.238-3.461,0.838-3.831,2.588c-0.129,0.38-0.18,1.23-0.008,1.63c-0.252,0.388-0.46,0.808-0.607,1.256
	c-0.979-0.598-2.188-0.745-3.28-0.396c-0.021-0.02-0.043-0.036-0.063-0.056c0.285-1.999-2.372-3.099-3.573-1.458
	c-1.175-0.037-2.335,0.297-3.306,0.965c0.274-1.349,0.896-2.324,2.15-2.522c-1.489,0.18-3.011,0.814-3.754,2.198
	c-0.69,1.285-0.39,2.436-0.672,3.72c-2.101-1.134-4.099,0.145-4.774,1.9c-0.505-0.529-1.152-0.907-1.85-1.179
	c0.056-0.474-0.636-0.828-0.883-0.288c-0.289-0.064-0.578-0.129-0.867-0.193c0.292,0.062,0.568,0.166,0.828,0.313
	c-0.075,0.395,0.313,0.713,0.67,0.543c0.326,0.372,0.548,0.836,0.674,1.355c-0.259,0.024-0.515,0.09-0.755,0.189
	c-0.585-0.512-2.359,0.155-2.891,0.536c0.49,0.066,0.99,0.338,1.463,0.718c0.013,0.024,0.029,0.048,0.046,0.071
	c-0.173,0.393-0.245,0.844-0.173,1.334c-0.625,0.01-1.176,0.388-1.439,0.947c-0.407,0.867-0.374,0.394-1.295,0.555
	c-1.433,0.251-2.49,1.458-2.421,2.934c-1.031-0.869-2.718-0.039-2.582,1.337c0.116,1.173-0.106,0.509-0.444,1.558
	c-0.189,0.59,0,1.209,0.49,1.591c-0.377,0.222-0.547,0.521-0.574,0.827c-0.499,0.474-0.772,1.21-0.583,1.889
	c0.115,0.383,0.334,0.694,0.656,0.936c-0.341,0.535-0.395,1.216-0.148,1.8c-0.998-0.268-2.05,0.23-2.527,1.135
	c-0.188,0.359-0.271,0.742-0.249,1.147c0.066,1.032-0.096,0.468-0.609,1.262c-1.29,0.811-1.62,2.187-1.29,3.387
	c-1.065,0.284-1.152,2.063,0.132,2.277c0.151,0.305,0.353,0.494,0.574,0.596c-0.161,0.182-0.271,0.401-0.319,0.635
	c-0.523-0.358-1.271-0.391-1.79,0.186c-4.175-1.22-2.247,6.362,0.837,3.37c0.565,0.61,1.233,0.488,1.677,0.084
	c0.074,0.256,0.223,0.419,0.405,0.504c-0.295,0.241-0.479,0.623-0.479,1.003c-1.638-0.061-1.629,2.5-0.03,2.522
	c-0.583,0.441-0.821,1.006-1.096,1.653c-1.552-0.554-2.722,1.604-1.409,2.578c-1.566,0.938,0.4,3.126,1.503,1.729
	c0.846,0.213,1.396-0.275,1.583-0.894c0.282,0.129,0.597,0.215,0.941,0.247c-0.783,1.17-0.146,2.844,1.216,3.151
	c-0.004,0.119,0.01,0.239,0.038,0.355c-0.371,1.187,0.718,1.769,1.487,2.356c-1.573,0.909,0.496,3.276,1.516,1.706
	c0.16,0.033,0.324,0.04,0.486,0.022c0.117,0.239,0.3,0.444,0.546,0.578c-0.906,1.518,2.177,1.595,1.339,0.032
	c1.075-0.514,1.001-2.294-0.134-2.689c1.021-0.556,1.33-1.938,0.466-2.782c1.834,0.571,2.571-2.425,0.684-2.771
	c0.394-0.316,0.527-0.854,0.352-1.322c-0.126-0.322-0.351-0.549-0.673-0.679c0.331-0.384,0.354-0.786,0.071-1.206
	c0.936-0.269,1.668,0.645,2.661-0.347c1.089-1.087,0.502-2.978-0.969-3.346c0.164-0.511,0.215-2.101,0.006-2.581
	c0.271-0.053,0.517-0.171,0.728-0.333c1.054,0.607,2.495,1.66,3.802,1.204c-0.315,1.925,2.027,1.108,2.822,1.085
	c0.075,0.792,0.913,1.28,1.639,0.903c0.296-0.17,0.479-0.421,0.547-0.755c0.651-0.027,1.253-0.413,1.521-1.015
	c0.465,0.763,1.642,0.617,1.904-0.238c0.439,0.088,0.891-0.121,1.116-0.507c0.459,0.378,1.109,0.444,1.636,0.167
	c0.417,0.699,1.4,0.86,2.018,0.328c-0.175,1.933,2.136-1.111,0.339-0.444c0.142-0.302,0.153-0.609,0.077-0.889
	c0.954,1.171,2.942,0.599,3.138-0.909c0.094,0.06,0.185,0.104,0.274,0.14c-0.808,1.872,2.327,2.823,2.772,0.869
	c0.908,0.689,1.533-0.159,2.367,0.26c0.359,0.172,0.729,0.2,1.109,0.085c0.836-0.261,1.1,0.188,2.005,0.07
	c0.036,1.247,1.768,1.366,2.182,0.269c0.325,0.188,0.694,0.288,1.067,0.294c-0.027,0.723,0.595,1.332,1.319,1.279
	c1.008-0.073,1.188-1.198,1.786-1.646c1.262,0.73,2.676-0.624,2.06-1.909c-0.443-0.925-0.908-0.51-1.176-1.526
	c-0.157-0.597-0.236-1.645-0.872-1.972l0,0c0.143,0.073,0.29,0.148,0,0c0.237-1.408-1.293-2.747-2.73-2.013
	c-0.04-0.411-0.232-0.776-0.52-1.043c0.584-1.36-1.232-2.736-2.165-1.383c-0.888-1.021-2.583-0.657-3.065,0.581
	c-0.894-0.922-1.882-0.134-2.838-0.139c-0.921-0.006-0.809,0.728-1.42-0.058c-0.299-0.385-0.71-0.668-1.179-0.804
	c-1.792-0.518-3.646,1.044-3.242,2.907c-0.572,0.15-0.922,0.688-0.897,1.234c-0.285,0.008-0.54,0.086-0.767,0.236
	c-0.108-0.703-0.906-1.078-1.555-1.001c-0.416,0.05-0.774,0.295-0.918,0.699c-0.331,0.927-0.482,0.116-1.246,0.722
	c-0.106-0.495-1.204-1.254-0.587-0.938c-0.125-0.064-0.249-0.128-0.374-0.191c0.178,0.088,0.094,0.059-0.254-0.088
	c0.351-2.067-2.45-1.764-3.574-1.27c0.03-0.288-0.031-0.57-0.184-0.845c0.973-0.513-0.382-1.825-0.86-0.823
	c-0.025-0.012-0.051-0.017-0.077-0.027c-0.139-2.096-1.852-3.895-4.01-3.902c-0.419-1.525-2.848-0.774-2.181,0.672
	c-0.314,0.211-0.849-1.105-1.027-1.736c-0.667-2.353-2.43,0.307-2.929,0.511c-0.207-0.265-0.469-0.492-0.781-0.66
	c0.024-0.464-0.122-0.916-0.396-1.279c0.563,0.019,0.962-0.479,0.802-1.022c0.78-0.614,0.645-1.873-0.298-2.25
	c-0.015-0.14-0.051-0.28-0.114-0.42c0.834-0.035,1.515-0.658,1.64-1.467c0.5,0.059,2.414,1.472,2.363-0.337
	c0.48-0.119,0.799-0.414,0.955-0.885c0.479,0.253,1.038,0.257,1.508-0.019c0.928-0.543,1.165-1.846,0.358-2.604
	c0.226-0.236,0.339-0.545,0.331-0.869c0.145-0.053,0.289-0.105,0.434-0.158c-0.217,2.513,4.082,1.657,2.871-0.602
	c0.221-0.413,0.246-0.9,0.059-1.331c0.632-0.122,1.142-0.586,1.329-1.191c0.347,0.271,0.805,0.342,1.218,0.185
	c-0.07,1.089,1.134,1.836,2.081,1.277c1.029,1.495,3.44,0.901,3.651-0.901c0.335,0.26,0.767,0.332,1.168,0.196
	c0.223,0.407,0.652,0.665,1.116,0.665c-0.69,0.759,0.239,1.932,1.136,1.431c0.448,0.339,1.102,0.195,1.37-0.297
	c0.608,0.141,1.231-0.252,1.361-0.863c1.241,1.527,3.041-1.384,1.122-1.813c0.134-0.251,0.268-0.502,0.401-0.753
	c0.276,0.234,0.639,0.313,0.987,0.212c0.129,0.694,0.907,1.075,1.535,0.755c0.644,1.904,3.485,1.527,3.683-0.402
	c0.229-0.086,1.017,1.004,1.86,0.654c0.861-0.356,1.201-1.313,0.601-2.071c0.119-0.136,0.219-0.288,0.29-0.457
	c0.415,0.037,0.813-0.093,1.125-0.372c0.393,0.865,1.479,1.208,2.295,0.724c-0.134,1.053,0.813,1.958,1.86,1.771
	c-0.194,1.299,1.732,1.73,2.113,0.477c0.32,0.077,0.647,0.034,0.939-0.119c0.471,0.761,1.494,0.991,2.246,0.507
	c0.138,0.188,0.338,0.324,0.57,0.383c0.57,0.523,1.368,0.66,2.057,0.404l0,0c0.521,0.783,1.621,0.977,2.377,0.413
	c0.141,0.499,0.553,0.882,1.07,0.975c-0.2,2.346,3.656,1.882,2.904-0.346C68.798,14.535,68.269,12.78,67.418,11.372
	C67.303,10.993,68.269,12.78,67.418,11.372z M63.221,10.296c-0.044-0.025-0.089-0.049-0.136-0.07
	c0.068,0.011,0.137,0.01,0.204-0.003C63.267,10.247,63.244,10.272,63.221,10.296C63.177,10.271,63.244,10.272,63.221,10.296z"/>
</svg>
