<?xml version="1.0" encoding="utf-8"?>
<!-- Generator: Adobe Illustrator 15.1.0, SVG Export Plug-In . SVG Version: 6.00 Build 0)  -->
<!DOCTYPE svg PUBLIC "-//W3C//DTD SVG 1.1//EN" "http://www.w3.org/Graphics/SVG/1.1/DTD/svg11.dtd">
<svg version="1.1" id="newspaper" xmlns="http://www.w3.org/2000/svg" xmlns:xlink="http://www.w3.org/1999/xlink" x="0px" y="0px"
	 width="180px" height="148.4px" viewBox="0 0 180 148.4" enable-background="new 0 0 180 148.4" xml:space="preserve">
<g>
	<path d="M173.6,17.801H153.2V6.4c0-3.4-3-6.4-6.601-6.4H6.2C2.8,0,0,3,0,6.4v122.2c0,10.8,9,19.8,19.8,19.8h140.4
		c10.8-0.2,19.8-8.8,19.8-19.8V24C180,20.6,177.2,17.801,173.6,17.801L173.6,17.801z M19.8,135.4c-3.8,0-6.8-3-6.8-6.8V13h127.4
		V128.6c0,2.199,0.398,4.6,1.199,6.8H19.8z M167,128.6c0,3.8-3,6.8-7,6.8c-3.8,0-7-3-7-6.8v-98h14V128.6z M81,83.6h46.4V72.2H81
		V83.6z M81,113.2h46.4v-11.399H81V113.2z M25.6,31.4v22.8h101.8V31.4H25.6z M25.6,113.2h43V72.4h-43V113.2z"/>
</g>
</svg>
