<?xml version="1.0" encoding="utf-8"?>
<!-- Generator: Adobe Illustrator 15.1.0, SVG Export Plug-In . SVG Version: 6.00 Build 0)  -->
<!DOCTYPE svg PUBLIC "-//W3C//DTD SVG 1.1//EN" "http://www.w3.org/Graphics/SVG/1.1/DTD/svg11.dtd">
<svg version="1.1" id="twitter" xmlns="http://www.w3.org/2000/svg" xmlns:xlink="http://www.w3.org/1999/xlink" x="0px" y="0px"
	 width="24px" height="19.495px" viewBox="0 0 24 19.495" enable-background="new 0 0 24 19.495" xml:space="preserve">
<g>
	<path d="M24,2.307c-0.883,0.391-1.831,0.657-2.827,0.775c1.017-0.609,1.795-1.575,2.164-2.722
		c-0.954,0.564-2.006,0.973-3.128,1.195C19.311,0.597,18.033,0,16.615,0c-2.719,0-4.923,2.205-4.923,4.922
		c0,0.385,0.043,0.762,0.127,1.122C7.728,5.838,4.1,3.878,1.672,0.9C1.248,1.625,1.006,2.472,1.006,3.375
		c0,1.708,0.87,3.215,2.189,4.097C2.389,7.445,1.63,7.223,0.966,6.854v0.062c0,2.385,1.698,4.375,3.949,4.828
		c-0.413,0.111-0.847,0.173-1.297,0.173c-0.318,0-0.625-0.032-0.927-0.092c0.627,1.957,2.444,3.38,4.598,3.419
		c-1.684,1.32-3.808,2.104-6.114,2.104c-0.397,0-0.789-0.024-1.174-0.067c2.179,1.399,4.766,2.215,7.546,2.215
		c9.057,0,14.007-7.502,14.007-14.008L21.538,4.85C22.505,4.16,23.342,3.293,24,2.307z"/>
</g>
</svg>
