<?xml version="1.0" encoding="utf-8"?>
<!-- Generator: Adobe Illustrator 15.1.0, SVG Export Plug-In . SVG Version: 6.00 Build 0)  -->
<!DOCTYPE svg PUBLIC "-//W3C//DTD SVG 1.1//EN" "http://www.w3.org/Graphics/SVG/1.1/DTD/svg11.dtd">
<svg version="1.1" id="yeast" xmlns="http://www.w3.org/2000/svg" xmlns:xlink="http://www.w3.org/1999/xlink" x="0px" y="0px"
	 width="102.353px" height="102.224px" viewBox="0 0 102.353 102.224" enable-background="new 0 0 102.353 102.224"
	 xml:space="preserve">
<g>
	<path d="M66.75,13.175l-31.499,31.4L4.65,75.174c-6.2,6.201-6.2,16.201,0,22.4s16.2,6.199,22.4,0l53-53l9.1-9.1L66.75,13.175z
		 M29.25,85.274c-1.2,0-2.101-1-2.101-2.1s1-2.1,2.101-2.1c1.1,0,2.1,1,2.1,2.1S30.45,85.274,29.25,85.274z M30.45,74.475
		c-3.899,0-7-3.1-7-7s3.101-7,7-7c3.9,0,7,3.1,7,7S34.25,74.475,30.45,74.475z M52.95,57.674c-1.699,0-3-1.299-3-3
		c0-1.699,1.301-3,3-3c1.7,0,3,1.301,3,3C55.95,56.375,54.55,57.674,52.95,57.674z M75.849,44.575H39.45l27.2-27.2l18.199,18.2
		L75.849,44.575z"/>
	<rect x="76.89" y="1.262" transform="matrix(-0.7071 0.7071 -0.7071 -0.7071 157.6141 -31.0622)" width="16.7" height="31.7"/>
</g>
</svg>
