<?xml version="1.0" encoding="utf-8"?>
<!-- Generator: Adobe Illustrator 15.1.0, SVG Export Plug-In . SVG Version: 6.00 Build 0)  -->
<!DOCTYPE svg PUBLIC "-//W3C//DTD SVG 1.1//EN" "http://www.w3.org/Graphics/SVG/1.1/DTD/svg11.dtd">
<svg version="1.1" id="YouTube" xmlns="http://www.w3.org/2000/svg" xmlns:xlink="http://www.w3.org/1999/xlink" x="0px" y="0px"
	 width="24px" height="16.883px" viewBox="0 0 24 16.883" enable-background="new 0 0 24 16.883" xml:space="preserve">
<path d="M23.76,3.642c0,0-0.235-1.654-0.954-2.383c-0.912-0.956-1.936-0.961-2.404-1.017C17.045,0,12.005,0,12.005,0h-0.01
	c0,0-5.038,0-8.397,0.242c-0.47,0.056-1.492,0.061-2.404,1.017C0.475,1.988,0.24,3.642,0.24,3.642S0,5.583,0,7.526v1.821
	c0,1.943,0.24,3.884,0.24,3.884s0.235,1.654,0.954,2.382c0.914,0.957,2.112,0.926,2.646,1.027C5.759,16.824,12,16.883,12,16.883
	s5.042-0.007,8.402-0.251c0.47-0.057,1.492-0.061,2.404-1.018c0.719-0.729,0.954-2.382,0.954-2.382S24,11.288,24,9.347V7.526
	C24,5.583,23.76,3.642,23.76,3.642z M9.563,11.826V5.085l6.438,3.369L9.563,11.826z"/>
<polygon fill-opacity="0.2" points="9.563,5.085 14.93,9.016 16.001,8.454 "/>
</svg>
