<?xml version="1.0" encoding="utf-8"?>
<!-- Generator: Adobe Illustrator 15.1.0, SVG Export Plug-In . SVG Version: 6.00 Build 0)  -->
<!DOCTYPE svg PUBLIC "-//W3C//DTD SVG 1.1//EN" "http://www.w3.org/Graphics/SVG/1.1/DTD/svg11.dtd">
<svg version="1.1" id="Barley" xmlns="http://www.w3.org/2000/svg" xmlns:xlink="http://www.w3.org/1999/xlink" x="0px" y="0px"
	 width="65px" height="175.5px" fill="#FFFFFF" viewBox="67.5 22.5 65 175.5" enable-background="new 67.5 22.5 65 175.5" xml:space="preserve">
<path d="M86,145.8L67.5,134.4v15.3c0,7.399,3.8,14.3,10.2,18.2l13,8v22h5.5v-18.7v-11.9V164C96.2,156.6,92.3,149.7,86,145.8z
	 M90.7,167.4"/>
<path d="M103.8,164v3.4V179.3V198h5.5v-22l13-8c6.301-3.9,10.2-10.8,10.2-18.2v-15.3L114,145.8C107.7,149.7,103.8,156.6,103.8,164z"
	/>
<path d="M86,115.4L67.5,104v15.3c0,7.4,3.8,14.3,10.2,18.2L96.2,149v-15.3C96.2,126.2,92.3,119.3,86,115.4z"/>
<path d="M103.8,133.7V149l18.5-11.4c6.301-3.899,10.2-10.8,10.2-18.199V104.1L114,115.4C107.7,119.3,103.8,126.2,103.8,133.7z"/>
<path d="M86,85.4L67.6,74v15.3c0,7.4,3.8,14.3,10.199,18.2l18.5,11.4V103.6C96.2,96.2,92.3,89.3,86,85.4z"/>
<path d="M114,85.4c-6.3,3.9-10.2,10.8-10.2,18.2V118.9l18.5-11.4c6.301-3.9,10.2-10.8,10.2-18.2V74L114,85.4z"/>
<rect x="76" y="33.1" width="5.5" height="43.3"/>
<rect x="118.5" y="33.1" width="5.5" height="43.3"/>
<rect x="90.7" y="22.5" width="5.5" height="61.7"/>
<rect x="103.8" y="22.5" width="5.5" height="61.7"/>
</svg>
