<?xml version="1.0" encoding="utf-8"?>
<!-- Generator: Adobe Illustrator 15.1.0, SVG Export Plug-In . SVG Version: 6.00 Build 0)  -->
<!DOCTYPE svg PUBLIC "-//W3C//DTD SVG 1.1//EN" "http://www.w3.org/Graphics/SVG/1.1/DTD/svg11.dtd">
<svg version="1.1" id="surfrider" xmlns="http://www.w3.org/2000/svg" xmlns:xlink="http://www.w3.org/1999/xlink" x="0px" y="0px"
	 width="124.4px" height="89.9px" viewBox="124.4 47 124.4 89.9" enable-background="new 124.4 47 124.4 89.9" xml:space="preserve"
	>
<g>
	<path fill="#FFFFFF" d="M221.1,95.5c-0.2-3.4-1.4-6.9-3.4-9.8c-1.9-2.6-4.5-4.6-7.4-6c-3.3-1.4-7-1.9-10.5-1.5s-6.9,1.4-10,3.1
		c-3.1,1.5-6,3.6-8.6,6c-1.4,1.2-2.6,2.6-3.8,4c-1,1.4-2.1,2.8-2.9,4.3c-0.9,1.5-1.7,2.9-2.4,4.5c-0.5,1.4-1.2,2.6-1.2,4.1
		c0,0.9,0.2,1.5,0.5,2.2c0.3,0.7,1,1,1.9,1.2c1.5,0.2,3.1-1,4-2.2c0.7-0.9,1.2-1.9,1.7-2.8c0.9-1.5,1.9-3.1,2.9-4.5
		c1.2-1.4,2.4-2.7,3.8-3.8c1.4-1,2.7-2.1,4.3-2.9c3.1-1.7,6.7-2.7,10.1-2.6c3.4,0.2,6.7,1.5,8.9,4c1.2,1.2,2.1,2.6,2.6,4.3
		c0.5,1.7,0.9,3.4,0.7,5.3c-0.2,3.4-1.5,6.5-3.4,9.3c-1.9,2.9-4.5,5.3-7.4,7.2c-1.5,1-3.1,1.9-4.8,2.6c-1.4,0.5-2.7,1-4.1,1.4
		c-2.6,0.9-5.3,1.4-8.1,1.7c-2.7,0.3-5.5,0.7-8.1,0.9c-2.2,0.2-4.3,0.3-6.5,0.3c-1.2,0-2.4,0-3.8,0c-0.7,0-1.2,0-1.9,0h-3.8H155
		h-5.7H145H143c-0.3,0-0.5,0-0.9,0c-0.7,0.2-1.5,0.7-1.7,1.4c0,0.9,0.9,1.4,1.5,1.5c0.5,0.2,1,0.2,1.7,0.2h1.9h4.5h5.7h5.3h3.6
		c0.3,0,0.9,0,1.2,0c1.9,0,4,0,5.8-0.2c3.4-0.2,6.7-0.3,10.1-0.7c2.9-0.3,5.8-0.7,8.6-1.2c2.9-0.5,5.7-1.4,8.4-2.4
		c1.5-0.5,3.1-1.2,4.5-1.9c1.5-0.9,3.1-1.7,4.5-2.7c2.7-2.1,5.3-4.5,7.4-7.2c1.9-2.6,3.6-5.3,4.6-8.2
		C221,101.7,221.5,98.6,221.1,95.5"/>
	<path fill="#FFFFFF" d="M206,105.3c0-1.7-0.7-3.4-1.9-4.6c-1-1.2-2.6-2.1-4.1-2.4c-3.4-0.9-7,0.5-10,2.4c-1.4,1-2.7,2.2-4,3.6
		c-0.5,0.7-1,1.2-1.4,1.9c-0.3,0.5-0.7,1-0.9,1.5c-0.2,0.7-0.3,1.7,0.2,2.4s1.4,0.9,2.1,0.9c1.4-0.2,2.4-1,3.3-1.9
		c0.5-0.5,1.2-1.2,1.9-1.7c0.7-0.5,1.4-1,2.2-1.4c1.5-0.7,3.4-1,5-0.3c0.7,0.3,1.2,0.9,1.5,1.5c0.3,0.7,0.3,1.5,0.3,2.4
		c-0.2,1.5-1.2,3.1-2.2,4.3c-1.2,1.2-2.6,2.2-4.1,3.1c-1.5,0.7-3.1,1.2-4.6,1.7c-2.9,0.7-6,1.2-8.9,1.5c-2.7,0.3-5.5,0.5-8.4,0.7
		c-2.1,0.2-4,0.2-6,0.2c-0.9,0-1.5,0-2.4,0h-4.8h-4.6c-0.7,0-1.4,0-1.7,0.3s-0.3,0.7-0.2,1s0.7,0.5,1,0.5c0.2,0,0.3,0,0.7,0
		c1.4,0,2.7,0,4.1,0c1.7,0,3.4,0,5.3,0c0.7,0,1.2,0,1.9,0c1.4,0,2.6,0,4,0c2.2,0,4.6-0.2,6.9-0.3c2.7-0.2,5.7-0.5,8.4-1
		c2.7-0.5,5.7-1,8.4-1.9c1.5-0.5,3.1-1,4.6-1.9s3.1-1.9,4.3-3.3c2.4-2.2,4.3-5.3,4.5-8.8C206,106,206,105.7,206,105.3"/>
	<path fill="#FFFFFF" d="M248.3,78.9c-0.2-3.4-1-7-2.2-10.3c-1.4-3.1-3.1-6-5.2-8.8c-1.9-2.4-4.3-4.6-6.9-6.4s-5.3-3.3-8.2-4.3
		c-3.3-1.2-6.7-1.9-10.3-2.1c-3.4-0.2-6.9,0.2-10.3,0.9c-3.4,0.7-6.9,1.7-10.1,3.3c-3.1,1.4-6.2,2.9-8.9,4.8
		c-3.1,1.9-5.8,4.1-8.4,6.5c-1.4,1.2-2.6,2.4-3.8,3.8c-1.2,1.4-2.4,2.6-3.4,4.1c-2.1,2.7-3.8,5.7-5.5,8.6c-1.5,2.7-2.9,5.7-4.1,8.8
		c-1,2.7-2.1,5.5-2.9,8.2c-0.3,1.4-0.9,2.9-0.9,4.5c0,0.9,0.2,1.5,0.7,2.2c0.5,0.7,1.2,1,1.9,1.2c1.7,0.2,3.1-1.4,4-2.7
		c0.3-0.5,0.5-1,0.7-1.5c0.3-0.7,0.7-1.5,0.9-2.2c1.2-3.3,2.7-6.4,4.5-9.5c1.7-3.1,3.8-6,6.2-8.6c2.4-2.6,5.2-5,8.1-7.2
		c2.7-2.1,5.8-3.8,8.9-5c3.3-1.4,6.7-2.2,10.3-2.6c3.6-0.3,7.2-0.2,10.7,0.9c3.3,0.9,6.4,2.4,8.9,4.5c2.6,2.1,4.8,4.5,6.5,7.4
		c1.7,3.1,2.9,6.4,3.3,10s0.2,7.2-0.7,10.8c-0.9,3.3-2.1,6.2-3.8,9.1c-1.5,2.9-3.6,5.5-5.8,7.9c-2.4,2.6-5,5-7.9,7
		c-1.5,1-2.9,2.1-4.6,2.9c-1.5,0.9-3.3,1.7-4.8,2.4c-3.1,1.4-6.4,2.4-9.6,3.1c-2.7,0.5-5.3,1-8.1,1.4c-1.7,0.2-3.4,0.3-5.3,0.5
		c-3.6,0.3-7,0.5-10.7,0.7c-2.7-0.3-5.5-0.2-8.2-0.2c-1.5,0-3.1,0-4.6,0h-1.4h-3.6h-5h-5.7h-5.7h-4.8H129c-0.7,0-1.5,0-2.2,0
		c-0.7,0-1.5,0.3-2.1,1c-0.3,0.3-0.3,0.7-0.3,1.2c0,0.3,0.3,0.7,0.7,1c0.9,0.7,2.1,0.7,3.1,0.7h1.7h3.3h4.8h5.7h5.7h5h3.6
		c0.5,0,0.9,0,1.4,0c2.4,0,5,0,7.4,0c1.4,0,2.7,0,4.1-0.2c2.2-0.2,4.5-0.2,6.9-0.3c2.6-0.2,5.3-0.3,7.9-0.5c2.6-0.2,5.2-0.7,7.7-1
		c2.9-0.5,6-1.2,8.9-1.9c3.3-0.9,6.4-1.9,9.5-3.1c1.5-0.7,3.3-1.4,4.8-2.1c1.5-0.7,3.1-1.5,4.6-2.6c3.1-1.9,6-4.1,8.8-6.5
		c2.6-2.2,4.8-4.6,7-7.2c2.1-2.6,4-5.2,5.7-8.1c1.5-2.7,2.9-5.7,4-8.6c1.2-3.4,1.9-7,2.2-10.8C248.5,82.3,248.5,80.6,248.3,78.9"/>
</g>
</svg>
